<svg xmlns="http://www.w3.org/2000/svg" xmlns:xlink="http://www.w3.org/1999/xlink" viewBox="0 0 678 550"><defs><style>.cls-1{isolation:isolate;}.cls-2{fill:#152128;}.cls-3{mix-blend-mode:multiply;fill:url(#linear-gradient);}.cls-4{fill:#313d47;}.cls-13,.cls-35,.cls-36,.cls-38,.cls-39,.cls-42,.cls-5,.cls-6{fill:none;}.cls-5,.cls-6{stroke:#00b391;}.cls-36,.cls-39,.cls-42,.cls-5{stroke-linecap:round;}.cls-13,.cls-35,.cls-38,.cls-39,.cls-5,.cls-6{stroke-miterlimit:10;}.cls-35,.cls-36,.cls-5,.cls-6{stroke-width:0.75px;}.cls-7{fill:#3d4b56;}.cls-8{fill:#f4b7a1;}.cls-9{fill:#e79280;}.cls-10{fill:#1aac8c;}.cls-11{fill:#d8d8d8;}.cls-12{fill:#bec0c2;}.cls-13{stroke:#10846e;}.cls-14{fill:#d5cac1;}.cls-15{fill:#bebebe;}.cls-16{fill:#8c8c8c;}.cls-17{fill:#0c1113;}.cls-18{fill:#283238;}.cls-19{fill:#0a0c0c;}.cls-20{fill:#1c2328;}.cls-21{fill:#101517;}.cls-22{fill:#199580;}.cls-23{fill:#22c6a3;}.cls-24{fill:#4c5b66;}.cls-25{fill:#939393;}.cls-26{fill:#757575;}.cls-27{fill:#b2b2b2;}.cls-28{fill:#fff;}.cls-29{fill:#d3d3d3;}.cls-30{fill:#bfb8b3;}.cls-31{fill:#c4c4c4;}.cls-32{fill:#148c75;}.cls-33{fill:#19a583;}.cls-34{fill:#3f4649;}.cls-35,.cls-38,.cls-39{stroke:#313d47;}.cls-36,.cls-42{stroke:#515960;stroke-linejoin:round;}.cls-37{fill:#58636b;}.cls-40{fill:#202930;}.cls-41{fill:#e7e1e1;}.cls-43{fill:#cecece;}.cls-44{fill:#ddd;}.cls-45{fill:#546772;}.cls-46{fill:#4a5a66;}.cls-47{fill:#acacac;}.cls-48{fill:#10846e;}.cls-49{fill:#ccc;}.cls-50{fill:#d8d2cd;}</style><linearGradient id="linear-gradient" x1="404.67" y1="65.89" x2="285.73" y2="392.68" gradientUnits="userSpaceOnUse"><stop offset="0" stop-color="#fff"/><stop offset="1"/></linearGradient></defs><title>404</title><g class="cls-1"><g id="artwork"><path class="cls-2" d="M389.54,71.57c-121.36,0-149.11,79.59-272.29,88.78C46.93,165.59,1.11,196.57,1,245.8c-.14,59.86,62.68,79.61,191.93,65.35,119.66-13.2,187.65-15.07,306.6-.6,41.66,5.07,160,10.37,175.93-47.18C690,211,598.33,181.92,551.1,139.55,501.36,94.94,431.41,71.57,389.54,71.57Z"/><path class="cls-3" d="M389.54,71.57c-121.36,0-149.11,79.59-272.29,88.78C46.93,165.59,1.11,196.57,1,245.8c-.14,59.86,62.68,79.61,191.93,65.35,119.66-13.2,187.65-15.07,306.6-.6,41.66,5.07,160,10.37,175.93-47.18C690,211,598.33,181.92,551.1,139.55,501.36,94.94,431.41,71.57,389.54,71.57Z"/><ellipse class="cls-4" cx="356.9" cy="417.14" rx="3.55" ry="2.16" transform="translate(-136.08 658.7) rotate(-75.56)"/><ellipse class="cls-4" cx="349.49" cy="420.61" rx="3.55" ry="2.16" transform="translate(-145 654.14) rotate(-75.56)"/><path class="cls-5" d="M346.46,413.05c1.34-.93,2.29-1.6,3.56-1,.41.2,6.16,2.73,9.45,4.38"/><path class="cls-6" d="M351.73,420.11s.33-1.84,2.85-1.94"/><path class="cls-4" d="M460,362.12a2.48,2.48,0,0,0,1.93,2.6,12.7,12.7,0,0,0,4.15.6h0a12.7,12.7,0,0,0,4.15-.6,2.47,2.47,0,0,0,1.93-2.6Z"/><ellipse class="cls-7" cx="466.12" cy="362.12" rx="6.09" ry="1.07"/><path class="cls-4" d="M316.49,406s-.16-.06-.43-.13c-3.25-.82-4.55-2.72-4.48-4.51a2.52,2.52,0,0,1,1.44-2.22,2.22,2.22,0,0,1,3.13,1.94l-.73.52c-.34-1.84-2.56-1.57-2.34.1s1.65,2.16,2.75,2.68A2.21,2.21,0,0,1,316.49,406Z"/><path class="cls-8" d="M174.88,492s-.55,13.71-1.57,16.8-3.25,7.22,2.24,6.28c3-.51,18.21,5.08,19.5,3.2,1.06-1.55-8.59-8-9.76-11.67-1-3.06-1.32-8.14,1.31-15.51S175.51,487.44,174.88,492Z"/><path class="cls-9" d="M174.86,491.78s-.43,13.41-1.4,16.44c-.66,2.07,1.49-3.19,5.37-2.64,4.84.68,6-.59,5.92-1.16-.62-3-.55-7.52,1.56-13.61C188.83,483.59,175.44,487.3,174.86,491.78Z"/><path class="cls-8" d="M132.12,504.19s-.55,13.72-1.57,16.81-3.25,7.22,2.24,6.28c3-.52,18.21,5.07,19.5,3.2,1.06-1.56-8.59-8-9.76-11.67-1-3.07-1.32-8.15,1.31-15.51S132.75,499.61,132.12,504.19Z"/><path class="cls-9" d="M132.12,504.19s-.55,13.72-1.57,16.81c-.69,2.1,1.14-2.63,5.49-2.24,5,.44,6.29.08,6.08-1.56a29,29,0,0,1,1.72-13.9C146.47,495.93,132.75,499.61,132.12,504.19Z"/><path class="cls-2" d="M147.71,368.17c.39.27,209.92,89.45,209.92,89.45v-5.28S148.1,363.15,147.71,362.89Z"/><path class="cls-7" d="M170.35,518.05a20.14,20.14,0,0,0,.34,4.28c.37,1,4,1.51,8.86,3.26,4.39,1.6,7.38,5,12.22,6.08,7.56,1.67,17.93,1.31,18.1-1.25.35-5.47.43-3.57-5.07-7.64-2.27-1.68-10-6.1-14.17-11-1.91-2.27-2.78-2.77-5-2.18a3.33,3.33,0,0,0-2,4.16c-5.67.67-9.89-1.42-10.79-3.62C170.75,511.53,170.55,514.64,170.35,518.05Z"/><path class="cls-4" d="M191.9,527.85c-4.84-1.07-7.82-4.49-12.21-6.08-4.84-1.76-9-2.38-9.38-3.39a30.85,30.85,0,0,0,.38,4c.37,1,4,1.51,8.86,3.26,4.39,1.6,7.38,5,12.22,6.08,7.56,1.67,17.93,1.31,18.09-1.25.07-1,.06-3,.08-3.56C209.09,529.18,199.19,529.45,191.9,527.85Z"/><path class="cls-7" d="M193.81,344.75s-5.19,4.87-2.35,5.33c1.41.23,2.89,7.57,3.45,19.13a235.63,235.63,0,0,1-.2,24.72C192,440.75,187.19,502,187.19,502s-.92.92-3.86.83a60.66,60.66,0,0,1-10.77-1.41s-6.59-42.32-2.12-67.57c1.38-7.82-2.2-54.77-2.2-54.77s-.64-20.74,1.88-24.67S193.81,344.75,193.81,344.75Z"/><path class="cls-7" d="M365.34,383.21l-26.11,8.29L355.92,399a2.52,2.52,0,0,0,1.87.06l24.7-9.11a.71.71,0,0,0,0-1.35Z"/><path class="cls-10" d="M356.67,398.32s-15.09-6.76-15.89-6.7-1.16-.21-1.2-2.38c-.05-2.42.26-2.84,1.05-2.89.49,0,5.74-2.49,6-1.4.15.55,12,6.1,14.57,9.86C362,395.89,356.93,398.13,356.67,398.32Z"/><polygon class="cls-10" points="357.04 398.13 382.65 388.91 382.63 384.51 357.02 393.88 357.04 398.13"/><polygon class="cls-11" points="357.04 397.46 340.85 390.44 340.74 386.57 357.02 393.21 357.04 397.46"/><path class="cls-7" d="M358,393.67l24.5-8.89a.54.54,0,0,0,0-1l-16.46-6.15-26.42,8.82c-.73.09-1,.57-1,2.89,0,2.16.54,2.62,1.33,2.57l.68-.06c.36,0,0-.2-.07-.2-.72-.05-1-.49-1.05-2.39,0-1.49.05-2.15.46-2.32a.77.77,0,0,1,.71.1l15.27,6.6A2.71,2.71,0,0,0,358,393.67Z"/><path class="cls-8" d="M342.74,389.68l.06,3c0,.63-.14.87-1.08,1l-2.21.35-1.57-.36,2.84-.45c1.1-.17,1.2-.2,1.18-1.14,0-.64-.06-2.76-.06-2.76Z"/><path class="cls-9" d="M342.74,389.68l.06,2.76c0,.64-.83.22-.85-.57,0-.64-.05-2.52-.05-2.52Z"/><path class="cls-7" d="M278.72,164.22c.35-5.9-6.26-10.3-11.43-10.86-2.24-.24-11.41.87-13.33,6-2.26-1.47-8.25-1.93-15.14,0-6.36,1.79-9.75,4.49-14.18,8.68a50,50,0,0,0-25.56-3.66c-10,1.13-16.94,4.23-18.7,8.73-2,.32-6.68,3.17-6.9,6.33-.24,3.64,9.67,4.52,31.41.71,7.64-1.34,18.56-1.1,25.94-1.2,19-.23,26.48-5.45,29.72-6.1a21.92,21.92,0,0,0,10.18,1.88c2.27-.15,3.32-1.06,5.09-2.16.87-.54,3.3-1.25,3.85-2C281,168.78,278.25,165.47,278.72,164.22Z"/><path class="cls-4" d="M270.45,172.11c-2.93-.07-5.73-3.38-9.76-3.39-3.88,0-6.78,5.07-13.24,6-7.55,1.09-10.17-1.33-16.15-1.19-4.47.1-15.39,3.87-22.93,4.38s-14.68,2.16-24.32,2.16a59.85,59.85,0,0,1-9.37-.81c-.89,0-1.26.4-1.13.8,1,3.09,10.91,3.67,31.34.09,7.64-1.34,18.56-1.1,25.94-1.2,19-.23,26.48-5.45,29.72-6.1a21.92,21.92,0,0,0,10.18,1.88c2.27-.15,3.32-1.06,5.09-2.16.87-.54,3.3-1.25,3.85-2C281,168.78,275.78,172.24,270.45,172.11Z"/><path class="cls-7" d="M427.84,265.86c-.83-3.27,3.57-6.13,11.48-5.18a29.15,29.15,0,0,1,17.46-8.28c8.1-.67,13.69,5.19,13.69,5.19,6.85-2.38,13.81-1.21,16.82,5.26,1.95-1.57,9.27,1.19,9.1,4.15-.24,4.4-6.61,2.63-8.95,2a74.94,74.94,0,0,0-23.14-2.17c-7.55.62-11.25,2.48-18.8,3.06C435.14,270.73,428.83,269.73,427.84,265.86Z"/><path class="cls-2" d="M407.41,353.57c.36.25,58.47,22.26,58.47,22.26v-4.12s-58.11-22-58.47-22.26Z"/><polyline class="cls-12" points="484.83 366.55 465.88 372.09 465.88 375.45 484.83 369.9"/><path class="cls-4" d="M427.52,317s.31,1.91,3.09,2.18c1.76.17,1.9.45,1.9.45l-12,5.51s-4.49-.54-5.06-1.36-.57-.91,2.78-2.58S427.52,317,427.52,317Z"/><path class="cls-11" d="M433.75,344l-12.65,6.18V324.71l11.31-5.52a.93.93,0,0,1,1.34.84Z"/><ellipse class="cls-13" cx="349.49" cy="420.61" rx="3.55" ry="2.16" transform="translate(-145 654.14) rotate(-75.56)"/><ellipse class="cls-13" cx="356.85" cy="417.31" rx="3.55" ry="2.16" transform="translate(-136.28 658.79) rotate(-75.56)"/><path class="cls-4" d="M435.14,322.21a2.38,2.38,0,0,0,1.54,1.14,7.8,7.8,0,0,0,3.64-.07l-12.4,6s-3.51.05-4-.7-1.14-.73,1.9-2.23S435.14,322.21,435.14,322.21Z"/><path class="cls-7" d="M440.54,345.94l-12.23,6V329.05l11.58-5.64a.74.74,0,0,1,1.07.67v21.19A.75.75,0,0,1,440.54,345.94Z"/><path class="cls-7" d="M127.58,530.21a20.89,20.89,0,0,0,.35,4.29c.36,1,4,1.5,8.86,3.26,4.39,1.59,7.37,5,12.21,6.08,7.56,1.66,17.93,1.3,18.1-1.25.36-5.48.44-3.58-5.07-7.65-2.26-1.68-10-6.1-14.16-11-1.91-2.27-2.79-2.77-5-2.17a3.31,3.31,0,0,0-2,4.15c-5.68.68-9.89-1.41-10.8-3.61C128,523.69,127.79,526.81,127.58,530.21Z"/><circle class="cls-10" cx="384.72" cy="228.63" r="1.13" transform="translate(21.13 489.56) rotate(-66.39)"/><path class="cls-4" d="M147.7,152.39c-2.56-3.13-10.65-3.27-11.3,1.64a22.92,22.92,0,0,0-7.88-.2c-3.32.45-4.48,2-5,2.69-1.24-.28-4.21.54-4,2.28.18,1.48,3.15,1.66,10.46.74a59.56,59.56,0,0,1,8.66,0c6.35.22,8.26-1.51,9.35-1.67,2.55,1.07,10.87.38,10.76-3.1C158.73,152.88,151.61,150.4,147.7,152.39Z"/><path class="cls-7" d="M248.21,43.91c-.82-4.95-10.27-4.81-12.79-.35-2.42-1-8.23-.61-8.68,3.95-.68.05-3.89.11-4.15,1.42-.3,1.51,1.71,2.48,9.12,1.61,3.87-.45,7,.57,13.71-.07C259.67,49.1,251.92,41.91,248.21,43.91Z"/><circle class="cls-14" cx="72.25" cy="263.31" r="0.94" transform="translate(-179.62 157.9) rotate(-51.95)"/><circle class="cls-14" cx="163.37" cy="198.71" r="0.94" transform="translate(-93.67 209.02) rotate(-52.87)"/><circle class="cls-8" cx="529.04" cy="97.56" r="0.94" transform="translate(153.33 482.57) rotate(-56.15)"/><circle class="cls-8" cx="221.38" cy="100.31" r="0.94" transform="translate(14.76 228.29) rotate(-56.15)"/><circle class="cls-8" cx="307.76" cy="106.2" r="0.94" transform="translate(65.61 323.82) rotate(-60.98)"/><circle class="cls-8" cx="302.14" cy="258.37" r="0.94" transform="translate(-55.28 432.43) rotate(-66.5)"/><path class="cls-4" d="M94.87,201.69c.18-.19,5.75,4.81,5.51,5.08-11.31,12.76-32.14,16.12-45.78,4.85C65.72,218.62,82.9,214.66,94.87,201.69Z"/><path class="cls-7" d="M94.87,201.69c.14-.22,5.75,4.81,5.51,5.08a28.37,28.37,0,0,1-3.86,3.49c-4.36,3.25-9.24,3.61-9.85,2.39s1.78-3.34,5.09-7A32.67,32.67,0,0,0,94.87,201.69Z"/><circle class="cls-15" cx="97.69" cy="204.16" r="3.87" transform="translate(-23.41 12.95) rotate(-6.78)"/><path class="cls-16" d="M101.39,203a3.68,3.68,0,0,0-1.65-2.12,3.87,3.87,0,0,0-5.34,1.24,4.05,4.05,0,0,0-.57,2.37c0,.41.3.92,1,.27a6.44,6.44,0,0,1,2.66-1.65,4.31,4.31,0,0,1,3.33.32C101.28,203.75,101.49,203.37,101.39,203Z"/><path class="cls-17" d="M434.7,129.09c-11.8,2-19.63,3.24-48.56,1.26-21.44-1.47-38.74-6.65-45.77-7.48a21,21,0,0,0-4.66-.48c-17.23.16-27.48,22-22.89,48.8s22.27,48.36,39.5,48.2c6.7-.07,13.06-2.56,17.46-8C375.37,204.47,393,179,400,172c13.88-13.88,27.19-20,38.35-28.46S443.62,127.57,434.7,129.09Z"/><ellipse class="cls-18" cx="345.5" cy="171.13" rx="29.8" ry="48.63" transform="translate(-34.88 108.17) rotate(-16.95)"/><path class="cls-19" d="M438.1,131.61c-5.4,1.92-3.74,9.07-13.62,12.45-12,3.76-21.52-2.62-32.35,5.3-10.26,7.52-6.35,20.66-2.08,24,3,2.34,6.83,2,8.24.51,12.36-13.53,30.55-23.23,40.08-30.32C448.67,135.66,443.7,129.8,438.1,131.61Z"/><path class="cls-20" d="M375.6,168.76c4.65,21.4,0,40.81-11.56,45.31-15.42,6-38.15-17.09-43.6-42.11s2.49-46,17.72-46.92S370.16,143.73,375.6,168.76Z"/><ellipse class="cls-21" cx="354.09" cy="168.6" rx="20.92" ry="34.13" transform="translate(-33.77 110.55) rotate(-16.95)"/><ellipse class="cls-19" cx="360.25" cy="165.85" rx="13.47" ry="21.98" transform="translate(-32.7 112.25) rotate(-16.95)"/><ellipse cx="366.01" cy="164.6" rx="7.53" ry="12.23" transform="matrix(0.97, -0.26, 0.26, 0.97, -30.29, 101.34)"/><polygon class="cls-22" points="358.2 260.96 358.2 260.96 358.2 260.96 358.2 260.96 356.4 273.32 361.66 268.31 361.66 268.31 358.2 260.96"/><polygon class="cls-10" points="358.2 260.96 358.2 260.96 361.66 268.31 361.66 268.31 368.87 267.44 358.21 260.96 358.2 260.96"/><polygon class="cls-23" points="361.66 268.3 356.39 273.32 363.47 272.17 368.88 267.44 361.66 268.3"/><polygon class="cls-4" points="273.18 232.57 277.01 235.56 281.46 233.7 277.91 231.78 273.18 232.57"/><polygon class="cls-24" points="278.35 225.94 282.19 228.93 281.46 233.7 278.74 230.72 278.35 225.94"/><polygon class="cls-7" points="281.46 233.69 278.35 225.94 273.18 232.58 281.46 233.69"/><polygon class="cls-4" points="273.83 227.75 278.35 225.94 273.18 232.58 273.83 227.75"/><rect class="cls-10" x="485.07" y="126.24" width="2.6" height="2.6"/><rect class="cls-10" x="485.07" y="131.44" width="2.6" height="2.6"/><rect class="cls-10" x="487.67" y="128.84" width="2.6" height="2.6" transform="translate(358.83 619.11) rotate(-90)"/><rect class="cls-10" x="482.46" y="128.84" width="2.6" height="2.6" transform="translate(353.62 613.9) rotate(-90)"/><rect class="cls-10" x="482.46" y="128.84" width="2.6" height="2.6" transform="translate(353.62 613.9) rotate(-90)"/><rect class="cls-12" x="46.95" y="244.48" width="2.6" height="2.6"/><rect class="cls-12" x="46.95" y="249.68" width="2.6" height="2.6"/><rect class="cls-12" x="49.55" y="247.08" width="2.6" height="2.6" transform="translate(-197.53 299.23) rotate(-90)"/><rect class="cls-12" x="44.35" y="247.08" width="2.6" height="2.6" transform="translate(-202.73 294.03) rotate(-90)"/><rect class="cls-12" x="44.35" y="247.08" width="2.6" height="2.6" transform="translate(-202.73 294.03) rotate(-90)"/><rect class="cls-10" x="187.95" y="119.5" width="2.6" height="2.6"/><rect class="cls-10" x="187.95" y="124.71" width="2.6" height="2.6"/><rect class="cls-10" x="190.56" y="122.11" width="2.6" height="2.6" transform="translate(68.45 315.26) rotate(-90)"/><rect class="cls-10" x="185.35" y="122.11" width="2.6" height="2.6" transform="translate(63.25 310.06) rotate(-90)"/><rect class="cls-10" x="185.35" y="122.11" width="2.6" height="2.6" transform="translate(63.25 310.06) rotate(-90)"/><circle class="cls-25" cx="336.9" cy="74.46" r="10.21"/><path class="cls-26" d="M345.11,68.39a9.72,9.72,0,0,1,2,6.8,10.21,10.21,0,0,1-10.91,9.46,10.39,10.39,0,0,1-5.94-2.45c-.83-.69-1.51-2.06.93-2.48,2-.35,5.4-1.21,7.63-3.12,2.66-2.28,4.39-5.06,4.48-7.62C343.32,67.45,344.46,67.59,345.11,68.39Z"/><path class="cls-7" d="M478.34,191.48c5.89-13.31,12.55-21.15,20.89-23.6,6.82-2,22.17-1.23,26.51,6.83,3.4-2.94,20.3-6.51,32-5.23a31.07,31.07,0,0,1,21.91,12.94s10.75-9,30.3-8.39c16.8.49,31.28,12,33.61,16.17,3.39.08,13.53,1.67,15,6.76,2.84,10.08-17.06,7.9-53.94,6.46-13-.51-28.61,4.72-40.88,6.07-33.25,3.66-36.79-5.79-42.32-6.13-8.69,4.86-26.88,7.3-36.52,1.39-1.56-.72-6.19-1.52-8.75-3C471.57,199.18,473,192.72,478.34,191.48Z"/><path class="cls-4" d="M522.14,194.33c1.69.11,11.33,12.64,30.5,12,19.37-.64,22.8-9.58,26.66-9.71,4.15-.13,18.21,1.48,33.46,3.09,18.5,1.95,29.12,2.54,37.54.92,5.84-1.12,5.78-4.81,6.64-5,1-.27,1.49.88,1.63,1.35,2.84,10.08-17.06,7.9-53.94,6.46-13-.51-28.58,5.61-40.85,7-33.25,3.66-38.52-5-42.35-7-8.69,4.86-26.88,7.3-36.52,1.39-1.56-.72-6.45-1.55-9.07-3.12-2-1.17-3.16-4.7-1.69-4.13,7.38,2.84,8.63,2.2,10.75,2.32,1.34.07,5.09,5.76,17,5.17C513.58,204.41,518.31,194.09,522.14,194.33Z"/><polygon class="cls-4" points="558.34 255.33 567.15 257.71 573.49 251.24 565.95 250.51 558.34 255.33"/><polygon class="cls-24" points="562.45 240.08 571.26 242.46 573.49 251.24 566.6 248.07 562.45 240.08"/><polygon class="cls-7" points="573.48 251.24 562.45 240.08 558.33 255.33 573.48 251.24"/><polygon class="cls-4" points="555.95 246.5 562.45 240.08 558.33 255.33 555.95 246.5"/><circle class="cls-14" cx="553.15" cy="270.58" r="0.94" transform="translate(148.42 734.67) rotate(-74.97)"/><polygon class="cls-10" points="18.01 285.58 14.31 285.1 11.91 288.25 15.61 288.74 18.01 285.58"/><polygon class="cls-23" points="12.86 281.66 14.31 285.1 11.91 288.25 10.46 284.81 12.86 281.66"/><polygon class="cls-22" points="12.86 281.66 12.86 281.66 12.86 281.66 12.86 281.66 16.56 282.15 16.56 282.15 18.01 285.58 18.01 285.58 18.01 285.58 18.01 285.58 18.01 285.59 14.31 285.1 14.31 285.1 14.31 285.1 14.31 285.1 14.31 285.1 12.86 281.66 12.86 281.66"/><polygon class="cls-27" points="591.14 123.09 591.14 123.09 591.14 123.08 591.13 123.09 583.28 126.47 586.45 130.88 586.45 130.88 591.14 123.09"/><polygon class="cls-28" points="591.14 123.09 591.14 123.09 586.45 130.88 586.45 130.88 591.79 131.66 591.14 123.09 591.14 123.09"/><polygon class="cls-29" points="434.37 214.1 439.87 213.35 443.46 218.02 437.96 218.77 434.37 214.1"/><polygon class="cls-28" points="442.01 208.23 439.87 213.35 443.46 218.02 445.6 212.9 442.01 208.23"/><polygon class="cls-27" points="442.01 208.23 442.01 208.23 442.01 208.23 442.01 208.23 436.51 208.98 436.51 208.98 434.37 214.1 434.37 214.1 434.37 214.1 434.37 214.1 434.37 214.11 439.87 213.36 439.87 213.36 439.87 213.36 439.87 213.36 439.87 213.36 442.01 208.23 442.01 208.23"/><rect class="cls-10" x="631.97" y="232.66" width="2.6" height="2.6"/><rect class="cls-10" x="631.97" y="237.86" width="2.6" height="2.6"/><rect class="cls-10" x="634.57" y="235.26" width="2.6" height="2.6" transform="translate(399.31 872.44) rotate(-90)"/><rect class="cls-10" x="629.37" y="235.26" width="2.6" height="2.6" transform="translate(394.11 867.23) rotate(-90)"/><rect class="cls-10" x="629.37" y="235.26" width="2.6" height="2.6" transform="translate(394.11 867.23) rotate(-90)"/><polygon class="cls-30" points="382.46 341.4 251.47 297.5 251.49 63.25 382.49 2 382.48 71.57 378.48 71.73 378.49 8.29 255.49 65.79 255.47 294.63 378.46 335.84 378.46 300.91 382.46 301.06 382.46 341.4"/><path class="cls-25" d="M346.22,193.41a55.55,55.55,0,0,0-5.74,11.82c-1.17,2.57-.69,3.72.74,4.81,1.16.89,3.42.14,4-1.08,1.26-2.47.45-7.89,5.6-17,6.63-11.77,12-12.76,11.44-13.15S354,181.47,346.22,193.41Z"/><path class="cls-31" d="M340.48,205.23c-1.17,2.57-.69,3.72.74,4.81,1.16.89,3.42.14,4-1.08a19.6,19.6,0,0,0,1-4.36c.24-1.46.69-4.79,1.07-6.24.73-2.81,1.71-4.84,1.27-5.2s-3,2.13-5.26,5.85A37.58,37.58,0,0,0,340.48,205.23Z"/><circle class="cls-28" cx="342.73" cy="207.66" r="2.91" transform="translate(23.74 450.21) rotate(-68.46)"/><path class="cls-27" d="M344.69,205.49a3,3,0,0,1,.2,4.14,2.88,2.88,0,0,1-4.09.18c-.71-.65,1-.06,2.58-1.43S344.21,205,344.69,205.49Z"/><path class="cls-23" d="M308.84,159.25a61.41,61.41,0,0,0-7.1-1.64,2.54,2.54,0,0,0-2.85,2.11A2.41,2.41,0,0,0,301,162.6a51.1,51.1,0,0,0,7.3.34c8.84.17,11.29.7,11.44-.27S317.15,161.49,308.84,159.25Z"/><path class="cls-10" d="M315,162c.06-.4-1.2-.69-3.22-1.36a94.82,94.82,0,0,0-10.06-3,2.46,2.46,0,0,0-2.77,2.11,2.34,2.34,0,0,0,2,2.84c3.24.42,7.41,0,10.6-.12C313.75,162.34,315,162.4,315,162Z"/><path class="cls-32" d="M308.18,161.08c.05-.32-.56-.91-1.56-1.46a17.72,17.72,0,0,0-4.88-2,2.49,2.49,0,0,0-2.76,2.13,2.44,2.44,0,0,0,2,2.87,15.63,15.63,0,0,0,5.17-.55C307.32,161.76,308.13,161.42,308.18,161.08Z"/><ellipse class="cls-23" cx="301.33" cy="160.1" rx="2.53" ry="2.55" transform="translate(-13.47 291.75) rotate(-50.68)"/><path class="cls-33" d="M303.84,160.54a2.53,2.53,0,0,1-3.06,2,2.58,2.58,0,0,1-1.93-3.07c.14-.64,1,1,2.38,1.2S304,159.83,303.84,160.54Z"/><path class="cls-34" d="M351,156.69a38.67,38.67,0,0,1-8.54-3.42c-1.82-.78-2.12-1.6-1.89-2.85a2.17,2.17,0,0,1,2.61-1.34c1.82.68,3.95,3.87,10.92,6.18,9,3,10,2.89,9.9,3.34S360.6,159.23,351,156.69Z"/><path class="cls-18" d="M342.42,153.27c-1.82-.78-2.12-1.6-1.89-2.85a2.17,2.17,0,0,1,2.61-1.34,13.7,13.7,0,0,1,2.58,1.78c.81.64,2.61,2.16,3.49,2.73,1.7,1.11,3.17,1.7,3.11,2.1s-2.55.29-5.48-.56A25.93,25.93,0,0,1,342.42,153.27Z"/><circle class="cls-18" cx="342.44" cy="150.95" r="2.04" transform="translate(42.28 374.45) rotate(-60.46)"/><path class="cls-19" d="M340.44,150.57A2.07,2.07,0,0,0,342,153a2,2,0,0,0,2.39-1.6c.13-.66-.61.4-2.05.27S340.52,150.12,340.44,150.57Z"/><line class="cls-35" x1="451.92" y1="359.05" x2="451.92" y2="356.04"/><line class="cls-36" x1="466.07" y1="356.59" x2="451.92" y2="359.05"/><line class="cls-35" x1="479.59" y1="355.21" x2="479.59" y2="351.25"/><line class="cls-36" x1="466.29" y1="355.57" x2="479.59" y2="355.21"/><line class="cls-35" x1="486.29" y1="360.3" x2="486.29" y2="356.55"/><line class="cls-36" x1="466.29" y1="357.53" x2="486.29" y2="360.3"/><polygon class="cls-22" points="451.92 350.92 451.92 350.92 451.92 350.92 451.92 350.92 455.53 355.9 451.92 356.35 451.92 356.35 451.92 350.92"/><polygon class="cls-23" points="451.92 350.92 451.92 350.92 451.92 356.35 451.92 356.35 448.31 355.9 451.92 350.92 451.92 350.92"/><circle class="cls-8" cx="486.38" cy="354.86" r="1.74"/><path class="cls-9" d="M487.73,353.77a1.74,1.74,0,0,1-2.39,2.48,3,3,0,0,0,1.64-.88,2.39,2.39,0,0,0,.63-1.09C487.71,354,487.71,353.74,487.73,353.77Z"/><ellipse class="cls-4" cx="466.16" cy="351.37" rx="3.27" ry="0.79"/><ellipse class="cls-7" cx="466.16" cy="350.78" rx="3.09" ry="0.75"/><polygon class="cls-4" points="482.17 348.34 479.59 348.75 479.59 352.14 482.17 351.73 482.17 348.34"/><polygon class="cls-37" points="477 348.34 479.59 348.75 479.59 352.14 477 351.73 477 348.34"/><polygon class="cls-7" points="477 348.34 477 348.34 477 348.34 477 348.33 479.59 347.92 479.59 347.92 482.17 348.33 482.17 348.34 482.17 348.34 482.17 348.34 482.17 348.34 479.59 348.75 479.59 348.75 479.59 348.75 479.59 348.75 479.59 348.75 477 348.34 477 348.34"/><line class="cls-38" x1="466.07" y1="351.69" x2="466.07" y2="361.77"/><polygon class="cls-27" points="471.42 337.63 466.15 338.23 466.14 344.5 471.27 347.61 474.74 343.25 471.42 337.63"/><polygon class="cls-29" points="474.74 343.25 474.7 345.68 471.52 351.21 469.41 352.49 471.28 347.6 474.74 343.25"/><polygon class="cls-28" points="460.88 337.63 466.15 338.23 466.16 344.5 461.03 347.61 457.56 343.25 460.88 337.63"/><polygon class="cls-29" points="457.56 343.25 457.6 345.68 460.78 351.21 462.89 352.49 461.02 347.6 457.56 343.25"/><polygon class="cls-29" points="460.89 337.63 462.88 336.28 466.15 336.28 466.15 336.28 469.42 336.28 471.42 337.63 466.15 338.23 460.89 337.63"/><polygon class="cls-15" points="466.15 344.5 471.28 347.6 469.41 352.49 462.89 352.49 461.02 347.6 466.15 344.5"/><line class="cls-35" x1="451.92" y1="359.05" x2="451.92" y2="356.04"/><line class="cls-36" x1="466.07" y1="356.59" x2="451.92" y2="359.05"/><line class="cls-35" x1="479.59" y1="355.21" x2="479.59" y2="351.25"/><line class="cls-36" x1="466.29" y1="355.57" x2="479.59" y2="355.21"/><line class="cls-35" x1="486.29" y1="360.3" x2="486.29" y2="356.55"/><line class="cls-36" x1="466.29" y1="357.53" x2="486.29" y2="360.3"/><polygon class="cls-22" points="451.92 350.92 451.92 350.92 451.92 350.92 451.92 350.92 455.53 355.9 451.92 356.35 451.92 356.35 451.92 350.92"/><polygon class="cls-23" points="451.92 350.92 451.92 350.92 451.92 356.35 451.92 356.35 448.31 355.9 451.92 350.92 451.92 350.92"/><circle class="cls-8" cx="486.38" cy="354.86" r="1.74"/><path class="cls-9" d="M487.73,353.77a1.74,1.74,0,0,1-2.39,2.48,3,3,0,0,0,1.64-.88,2.39,2.39,0,0,0,.63-1.09C487.71,354,487.71,353.74,487.73,353.77Z"/><ellipse class="cls-4" cx="466.16" cy="351.37" rx="3.27" ry="0.79"/><ellipse class="cls-7" cx="466.16" cy="350.78" rx="3.09" ry="0.75"/><polygon class="cls-4" points="482.17 348.34 479.59 348.75 479.59 352.14 482.17 351.73 482.17 348.34"/><polygon class="cls-37" points="477 348.34 479.59 348.75 479.59 352.14 477 351.73 477 348.34"/><polygon class="cls-7" points="477 348.34 477 348.34 477 348.34 477 348.33 479.59 347.92 479.59 347.92 482.17 348.33 482.17 348.34 482.17 348.34 482.17 348.34 482.17 348.34 479.59 348.75 479.59 348.75 479.59 348.75 479.59 348.75 479.59 348.75 477 348.34 477 348.34"/><line class="cls-39" x1="466.07" y1="351.69" x2="466.07" y2="361.77"/><polygon class="cls-27" points="471.42 337.63 466.15 338.23 466.14 344.5 471.27 347.61 474.74 343.25 471.42 337.63"/><polygon class="cls-29" points="474.74 343.25 474.7 345.68 471.52 351.21 469.41 352.49 471.28 347.6 474.74 343.25"/><polygon class="cls-28" points="460.88 337.63 466.15 338.23 466.16 344.5 461.03 347.61 457.56 343.25 460.88 337.63"/><polygon class="cls-29" points="457.56 343.25 457.6 345.68 460.78 351.21 462.89 352.49 461.02 347.6 457.56 343.25"/><polygon class="cls-29" points="460.89 337.63 462.88 336.28 466.15 336.28 466.15 336.28 469.42 336.28 471.42 337.63 466.15 338.23 460.89 337.63"/><polygon class="cls-15" points="466.15 344.5 471.28 347.6 469.41 352.49 462.89 352.49 461.02 347.6 466.15 344.5"/><polygon class="cls-12" points="472.72 418.63 357.63 457.21 357.63 452.75 472.72 414.17 472.72 418.63"/><polygon class="cls-4" points="445.78 347.62 435.14 353.24 429.6 336.51 440.11 330.99 445.78 347.62"/><path class="cls-4" d="M441,331.31a3.69,3.69,0,0,0,.94.66c.92.37.83.11.83.11l-2.68,1.34-.57-1.65Z"/><ellipse class="cls-40" cx="360.48" cy="384.04" rx="10.11" ry="3.61"/><path class="cls-41" d="M363.38,371.66a3.69,3.69,0,0,1,0-3.69l6.34-10.88H351.24L357.58,368a3.69,3.69,0,0,1,0,3.69l-6.34,10.88h0c0,1.83,4.14,3.3,9.24,3.3s9.24-1.47,9.24-3.3h0Z"/><path class="cls-40" d="M354.79,379.67l-1.27,2.17h0c0,1.38,3.12,2.49,7,2.49s7-1.11,7-2.49h0l-1.94-3.33a3.6,3.6,0,0,0-3.92-2.14c-1,.13-1.35,1.07-2.06,1.48-.43.24-1.08.07-1.79.07A3.58,3.58,0,0,0,354.79,379.67Z"/><path class="cls-40" d="M359.38,368.46a1.21,1.21,0,0,0,2.08,0c.88-1.5,2.14-3.67,3.07-5.3,1.18-2.07-8.76-1-7.06,2C358,366.11,358.77,367.41,359.38,368.46Z"/><path class="cls-37" d="M361.43,379.07c1.5-.08,1.91.64,3.15.55.85-.05,1.33-.41.92-1.11a3.6,3.6,0,0,0-3.92-2.14c-1.57.21-1.74,1.46-3.85,1.55a3.33,3.33,0,0,0-2.46,1.12.35.35,0,0,0,0,.4,2.13,2.13,0,0,0,1.43.62C358.62,380.27,359.41,379.17,361.43,379.07Z"/><path class="cls-37" d="M364.53,363.16c1.06-1.85-6.82-1.19-7.24,1.12-.14.76,1.82,1.53,3.84.35S363.89,364.29,364.53,363.16Z"/><ellipse class="cls-40" cx="360.48" cy="356.47" rx="10.11" ry="2.95"/><ellipse class="cls-4" cx="360.48" cy="355.4" rx="9.01" ry="2.63"/><circle class="cls-10" cx="509.91" cy="233.3" r="1.13" transform="translate(91.9 607.07) rotate(-66.39)"/><circle class="cls-14" cx="643.61" cy="318.53" r="1.12" transform="translate(-32.62 76.85) rotate(-6.67)"/><path class="cls-4" d="M418.13,412a21.13,21.13,0,0,0-6.94-1h-.05a21.09,21.09,0,0,0-6.94,1c-2.16.78-3.22,2-3.22,4.33h0c0,1,3.57,2.71,10.16,2.71s10.16-1.72,10.16-2.71C421.35,414,420.29,412.77,418.13,412Z"/><path class="cls-7" d="M419.79,413.21c0,1-3.86,1.91-8.63,1.91s-8.63-.93-8.63-1.91,3.87-2.17,8.63-2.17S419.79,412.23,419.79,413.21Z"/><line class="cls-42" x1="411.16" y1="395.79" x2="411.16" y2="412.18"/><circle class="cls-43" cx="411.16" cy="387.64" r="16.99" transform="translate(-123.15 203.7) rotate(-24.32)"/><path class="cls-27" d="M400.06,400.43a17,17,0,0,0,23.21-24.8c-1.16-1.16-3.54-1.06-3.39,2,.17,3.32.67,10.06-3.79,14.64A15.78,15.78,0,0,1,403,397C398.93,396.31,399,399.5,400.06,400.43Z"/><circle class="cls-44" cx="403.94" cy="380.05" r="3.38"/><path class="cls-42" d="M393.47,389.24c0,2.07,7.92,3.75,17.69,3.75s17.7-1.68,17.7-3.75"/><path class="cls-7" d="M407.48,371.21c0-1.11,1.65-2,3.68-2s3.69.89,3.69,2"/><ellipse class="cls-7" cx="411.16" cy="371.21" rx="3.68" ry="0.91"/><line class="cls-42" x1="411.16" y1="368.35" x2="411.16" y2="369.51"/><line class="cls-42" x1="411.16" y1="395.79" x2="411.16" y2="412.18"/><circle class="cls-43" cx="411.16" cy="387.64" r="16.99" transform="translate(-123.15 203.7) rotate(-24.32)"/><path class="cls-27" d="M400.06,400.43a17,17,0,0,0,23.21-24.8c-1.16-1.16-3.54-1.06-3.39,2,.17,3.32.67,10.06-3.79,14.64A15.78,15.78,0,0,1,403,397C398.93,396.31,399,399.5,400.06,400.43Z"/><circle class="cls-44" cx="403.94" cy="380.05" r="3.38"/><path class="cls-42" d="M393.47,389.24c0,2.07,7.92,3.75,17.69,3.75s17.7-1.68,17.7-3.75"/><path class="cls-7" d="M407.48,371.21c0-1.11,1.65-2,3.68-2s3.69.89,3.69,2"/><ellipse class="cls-7" cx="411.16" cy="371.21" rx="3.68" ry="0.91"/><line class="cls-42" x1="411.16" y1="368.35" x2="411.16" y2="369.51"/><path class="cls-2" d="M294.77,361.74l.8-.23L256.72,347l-55,17.61,34.1,13.94s.13.54,2.85,1.71c3.2,1.38,3.61.93,3.61.93l34.13,13.74,55.94-17.11Z"/><path class="cls-2" d="M294.49,360.64l.8-.23L256.45,345.9l-55,17.61,34.1,13.94s.12.54,2.85,1.71c3.19,1.38,3.61.93,3.61.93l34.13,13.74L332,376.71Z"/><polygon class="cls-12" points="240.26 377.12 205.55 362.63 256.29 346.83 295.03 359.99 240.26 377.12"/><polygon class="cls-4" points="205.55 362.67 239.01 376.61 240.3 376.96 240.1 372.82 238.95 367.13 207.17 359.2 205.55 362.67"/><path class="cls-7" d="M233.49,368.07c-11.55-3.15-26.32-8.87-26.32-8.87l51.12-14.66s12.15,4.65,20.43,6.55c6.27,1.43,8.57,4.48,7.74,7.12-3.13,10-33.66,18.93-47.59,18.25C238.89,372.62,236.92,369,233.49,368.07Z"/><path class="cls-45" d="M238.87,376.46c.06-1,1.43-8-5.57-9.42a189.48,189.48,0,0,1-26.13-7.84l51.12-14.66s12.15,4.65,20.43,6.55c6.27,1.43,8.57,4.48,7.74,7.12-3.62,11.62-42.46,17.85-47.07,18.41C239.1,376.66,238.86,376.57,238.87,376.46Z"/><path class="cls-10" d="M225.16,370.85l10.72,4.47s-.41-1.21-4.24-2.46C230.34,372.43,225.16,370.85,225.16,370.85Z"/><polygon class="cls-4" points="291.47 359.19 329.49 375.46 276.47 391.7 238.83 376.58 240.13 373.36 291.47 359.19"/><path class="cls-7" d="M303,359.38c2.37,1,3.39,1.7,7.62,3.42,8.14,3.32,17.72,6.39,17.72,6.39l-53,16.24s-20.33-8.25-29.15-11.66c-6-2.33-7.32,2.69-7.32,2.69s1.17-5.54,8.64-7.87c10.72-3.33,27.42-9.6,35-12C288.48,354.69,297.26,357,303,359.38Z"/><polygon class="cls-10" points="328.12 369.25 329.49 375.46 276.47 391.7 275.1 385.48 328.12 369.25"/><path class="cls-10" d="M259.39,384.74l-16.79-6.62c1.24-.82,3.7.72,10,3.77C255.25,383.2,259.39,384.74,259.39,384.74Z"/><path class="cls-7" d="M242.6,378.12a8.43,8.43,0,0,1-4-.8c-2.45-.95-2.72-2.05-2.72-2.05l2.95,1.25Z"/><path class="cls-7" d="M238.85,376.52l-.29.76c-2.44-1-2.66-2-2.66-2"/><path class="cls-46" d="M301.58,358.53c3.18,1.51,6.53,2.84,12.61,5.2,7.19,2.8,13,4.35,13,4.35l-51.63,15.81s-7-2.09-12.61-4.31c-7.69-3.07-11.23-4.87-16-7.13-6.56-3.1-8.11,4.13-8.11,4.13s.39-5.6,5.6-7.23C255.2,366,274.89,359,282.49,356.58,288.48,354.69,295.38,355.58,301.58,358.53Z"/><path class="cls-4" d="M175.47,502c-1.77-.28-2.91-.57-2.91-.57s-6.59-42.32-2.12-67.57c1.38-7.82-2.2-54.77-2.2-54.77s-.64-20.74,1.88-24.67c1.35-2.12,2.92,35.92,4.9,76.08.72,14.68-4.42,18.12-4.49,30.33a132.06,132.06,0,0,0,5.06,34.84C176.67,499.42,176.91,502.21,175.47,502Z"/><path class="cls-7" d="M181.81,354.62,165.7,442.25,143.51,515.5a24.91,24.91,0,0,1-5.8.66c-5.5-.11-7.94-1.84-7.94-1.84s4.21-55.5,9.18-71.7c1.09-3.53,5.43-14.57,5.33-26.16-.22-24.86-.07-41.8,7.53-56.72C153.93,355.59,181.81,354.62,181.81,354.62Z"/><path class="cls-12" d="M195.4,359.84a20.69,20.69,0,0,0-.94,8.87c.5,4.36-15.24,8.69-31.14,8.41-6.6-.12-16.87-1-17.71,1.84,0,0-1.85-3.36-1.62-9.91,0-3.13,2.44-6.25,2.18-9.82C146.17,359.23,193.54,356,195.4,359.84Z"/><path class="cls-4" d="M133.83,515.76a9.16,9.16,0,0,1-4.06-1.44s4.21-55.5,9.18-71.7c1.09-3.53,5.43-14.57,5.33-26.16-.13-14.38-.13-26.1,1.36-36.32.42-2.87.64,12.13,1.49,34.18.29,7.53,0,21-2,30.47-1.14,5.39-7.05,15.18-9,28.91-2.3,16.22.09,34.79-.26,40.26C135.79,515,135.18,516,133.83,515.76Z"/><path class="cls-28" d="M232.15,217.58c1.6,2.57,1.58,5.46.27,6.27s-3.67-.61-5.26-3.17-1.84-5.32-.53-6.13S230.55,215,232.15,217.58Z"/><path class="cls-10" d="M233.38,224.45a21,21,0,0,0-2.49-6.24,18.76,18.76,0,0,0-4.49-4.71l-5.51,4.23a19.63,19.63,0,0,1,6.28,9.86Z"/><polygon class="cls-22" points="175.16 254.09 166.82 258.56 165.43 256.25 173.29 250.97 175.16 254.09"/><polygon class="cls-10" points="192.06 245.88 175.23 254.76 172.78 250.68 188.81 240.47 192.06 245.88"/><polygon class="cls-22" points="228.87 225.86 190.56 247.12 186.88 241 223.59 216.83 228.87 225.86"/><path class="cls-9" d="M175.45,249s.09-1.36.29-1.49.59.27,1.17.64Z"/><path class="cls-12" d="M188.63,281.34c10.52-3,18.1-6.31,23.76-11.89,3.62-3.56,11.58,6.48,6.9,11.39-3.27,3-11.93,10.69-19.08,13.73s-14,2.71-16.74-1.62S181.64,283.36,188.63,281.34Z"/><path class="cls-47" d="M219.92,280c-4.82,5.9-20.9,16.21-21.87,15.29s-8.5-5.27-4.25-6.79c5.47-1.94,13.13-4.15,18-5.41A56,56,0,0,0,219.92,280Z"/><path class="cls-11" d="M189.86,281.43c5.89-1.35,5.74.32,6.24,4.92,1.52,13.93-.7,22.34-1.09,44-.33,17.93,1.45,25.65.39,28.45-1.61,4.28-17.69,9.55-34.27,9.26-6.88-.12-15.17-.41-17.16,1.71a152.69,152.69,0,0,1-2.91-19.79c-.86-11.87-.3-16.89-2.36-30.15-1.17-7.58,1.16-14.27,7.43-18.31,2.05-1.32,14.67-10.37,15.88-15.42,1.69-7.06,3.66-2.59,9.2-2.36C177.94,284,184.86,282.57,189.86,281.43Z"/><path class="cls-10" d="M172.8,286.67c2.4.2,5.85-.1,6.88.88,1.68,1.61-.44,5.3-3.65,7.36-1.27.81-4-1.1-5.14-4.3A2.77,2.77,0,0,1,172.8,286.67Z"/><path class="cls-9" d="M180.23,289.49a12.61,12.61,0,0,1-7.43-1.72l2.48,7.32a1.27,1.27,0,0,0,.75-.18C178.26,293.48,180,291.25,180.23,289.49Z"/><path class="cls-8" d="M176.36,273.26s-4.56,4.73-4.06,9.3A21.69,21.69,0,0,0,177,293.3c1.55,1.71-5.43,3.84-11.14,1.2-2.82-1.3-3.79-2.13-4.09-3.25-.8-2.89-1-8.64-4.16-9-2.59-6-5.13-8-5.13-8s6.65-10.94,12.47-6.65A36.37,36.37,0,0,0,176.36,273.26Z"/><path class="cls-9" d="M176.36,273.26s-4.56,4.73-4.06,9.3c.17,1.52.16,2.28,0,2.53-.53.74-3-2.51-6.08-4.5-3.95-2.52-8-2.45-10.59-1-8.15-1.76-3.17-5.32-3.17-5.32s6.65-10.94,12.47-6.65A36.37,36.37,0,0,0,176.36,273.26Z"/><path class="cls-10" d="M153.81,269.17a.8.8,0,0,1,.7.88,1.38,1.38,0,0,1-.52.86c-.81.75-2.16.39-3.07,0a3.09,3.09,0,0,1-1.14-.69,1.89,1.89,0,0,1-.55-1.43.57.57,0,0,1,.32-.53c.54-.2,1.12.7,1.39.81.49.19.76-.2.8-.65a1.5,1.5,0,0,1,.11-.51.61.61,0,0,1,.8-.27,1.09,1.09,0,0,1,.76.94C153.45,269,153.56,269.14,153.81,269.17Z"/><path class="cls-8" d="M174.06,260.21a1.26,1.26,0,0,1,.92.31c.5.57-.15,2.35-1,3.44a8,8,0,0,0,1.43,3.49c1.89,2.27,2.53,3.28,2.27,4.68-.4,2.22-7.87,5.61-12.7,5.67-3.1,0-4.46-1.27-9.76-5.52,0,1.27-10.28-7-9.43-9.73-3.35-6.11,5.7-11.44,8.84-12.9,2.32-1.09,6.76-.62,7.4,1.69,1.4,1.21,2.23,3.74,4.08,5.26C168.74,258.77,171.11,260,174.06,260.21Z"/><path class="cls-9" d="M175.08,260.69s-.34,1.4-2.62,3.06c-1,.73,1.15,1.3,1.76.75S175.3,261.49,175.08,260.69Z"/><path class="cls-7" d="M155.37,272.4c-1.55-.45-4.2-6.61-1.3-3.74.08-4.1-1.72-5-3.3-6.81-1.43-5.64,4-11.62,7.37-12,3.09-.33,3.85,1.46,3.85,1.46a7.7,7.7,0,0,0-4.68-9.56c-.35-.09,0,.19.21.69.28.7.06,1.41-.08,1.34-5.51-2.77-15.66,3.39-18.81,10.7a9,9,0,0,0-.07,7.21c-3.93,7.4,2.87,13,6.25,15.37A32.08,32.08,0,0,0,155.09,282c2.28.66,3.27,1.59,3.67,1.13S158.37,277,155.37,272.4Z"/><path class="cls-8" d="M155.37,272.4c-.53,1.31-2.89,1.07-5.2.21a5.37,5.37,0,0,1-3.23-3.39c-.89-3.31,2.83-4.94,5.75-2.81C155.82,268.7,155.78,271.12,155.37,272.4Z"/><path class="cls-9" d="M152.36,271.44a3.54,3.54,0,0,1-2.81-1.08,1.84,1.84,0,0,1,.29-3.12,1.7,1.7,0,0,1,2.16,1c.25.88-.81,1.11-.36,1.64s1.46.16,1.75.59S153.25,271.38,152.36,271.44Z"/><path class="cls-7" d="M149.91,255.39c-.23,4.8,4.39,8.65,3.65,8.8a5.8,5.8,0,0,1-4.08-1.39C147.54,261.12,149.91,255.39,149.91,255.39Z"/><path class="cls-48" d="M226.82,227c-11.82,7.22-28.6,15.87-28.6,15.87L213,229.12c2.18-2,6.55-4.82,9.8-4.82C225.78,224.29,227.72,226.45,226.82,227Z"/><path class="cls-10" d="M216.06,245.1c.06.43,1.38,1.3,3.57,1s5.13-.81,5.39-2c.1-.42-2.93-.67-5.11-.34S216,244.68,216.06,245.1Z"/><path class="cls-8" d="M225.83,228.4c-1-2.3-5.51.59-9.49,3.25a7.94,7.94,0,0,1-2.48,1.06c-.89.29-1.43,1.34.09,1.52,2.23.26,1.72-.1,3.4,1.1.84,1-1.29,9.77-1.92,12.6-.29,1.34,7.47-.67,7.32-1.19-.38-1.27.66-12.19.92-13.29a2.7,2.7,0,0,1,.78-1.74C226.06,230.37,226.12,229.09,225.83,228.4Z"/><path class="cls-9" d="M216.34,231.65a7.94,7.94,0,0,1-2.48,1.06c-.89.29-1.43,1.34.09,1.52,2.23.26,1.72-.1,3.4,1.1.84,1-1.29,9.77-1.92,12.6-.29,1.34,6.81-1,6.09-.81-2.41.63-3.15-3.82-2.67-7.35.44-3.18.91-7.7,2.9-9.11,1.36-1,2-1.21,3.1-2,.53-.41.53-1.06-.39-1.06C221.8,227.56,217.25,231,216.34,231.65Z"/><path class="cls-12" d="M213,258.45c-1.76,7.58-4.5,14.1-2,18,.82,1.29,5.56,5.08,8.29,4.43.94-.22,3.5-8.19,4-18.13.47-9.18,1.31-13.13,1.73-18.6,0,0-.37.68-2.06,1.11a13.44,13.44,0,0,1-6.9-.15S215.1,249.55,213,258.45Z"/><path class="cls-22" d="M188.29,247.87l-13.06,6.89a3.74,3.74,0,0,0,1.53-3.55c-.23-1.33-1.39-1.44-1.31-2.22,0,0,.69-.48,2.2-1.32C182.61,244.91,188.29,247.87,188.29,247.87Z"/><path class="cls-10" d="M182.42,264.7c.07.48,2.05,1.24,4.33.91s5-1,4.68-2.22c-.11-.47-2.11-.73-4.4-.4S182.35,264.22,182.42,264.7Z"/><path class="cls-9" d="M189.19,257.43c-1.08-4.42-1.13-5-.86-9,.1-1.43-10.36-3.86-10.62-3.74-.8.35-1.73.38-2.4.72s-.76,2.29-.14,3.73l1.71-1.07c1.65,1,2,2.66,2.14,4.36a12.26,12.26,0,0,1-2.39,1.57,6.62,6.62,0,0,0,2.28,1.72c1.62.8,3.6.88,4,2,1.37,4.43,1.88,10.83,2.22,13.09,1.45-.15,6.46-1.3,7.4-2.5C192.48,268.35,189.64,259.29,189.19,257.43Z"/><path class="cls-48" d="M175.45,249s.09-1.39.29-1.52.59.27,1.17.64Z"/><path class="cls-8" d="M188.4,253.9a20.37,20.37,0,0,1-.07-5.45c.1-1.43.89-8.34-1.12-8.67-.24,0-1,0-1.27.48-.11.15-.18.5-.62.69s-1.15-.56-1.81-.48c-.84.09-.94,1-1.73,1.4-.55.3-1.34.17-1.91.46s-.7.84-1.32,1.78a1.79,1.79,0,0,1-.85.6,5.31,5.31,0,0,1-.56.2c-.17,0-1,.21-1.19.29a2.46,2.46,0,0,1,1.81.61,11,11,0,0,1,2.56,2.79c1,1.65-.12,4.28,2.1,5.94,1.38,1,1.72,2.87,2.71,6.84.94,3.73,6.68,4.88,6.63,4.74-.25-.74-1.74-5.7-2.36-8.16S188.42,254,188.4,253.9Z"/><path class="cls-12" d="M182.42,264.7c2,10.56,1,20,2.12,30.14,1,8.88-4.8,18.93-4.8,18.93,8.57-3.23,17.22-5.26,18.78-9.73,1-2.76.08-12.72-1.75-19.5-3.31-12.24-5.34-21.15-5.34-21.15-.07.94-2.63,1.6-6,1.76C182.48,265.29,182.42,264.7,182.42,264.7Z"/><path class="cls-49" d="M162.09,368c-4-.07-8.36-.19-11.79.11-3.65.33-5.91-6.74-6.65-16.92-.86-11.87-6.14-44.2-2.35-39.3,1.9,2.44,32.36,4.89,25.11,7.35-5.32,1.8-12.32,9.54-14.29,15.39-.69,2.06,1.11,3.34,1.29,4.84.28,2.31-2.44,3.21-2.59,4.82-.11,1.2,4.93,2.61,5,3.78,0,1.85-2.55,3.24-2.38,4.61.29,2.27,8.34,4.23,8.4,6,.06,1.49-7.64,1.77-7.43,3.87.1,1.05,5.9,1.39,11,1.18,3.7-.15,6-.07,6.19.61C172.23,366.75,163.6,368.05,162.09,368Z"/><path class="cls-12" d="M159.86,300.17c9.66,0,14.59-1,27.34-6.15,5.14-2.07,20.07,9.12,3.42,15.85-4.48,1.81-14.37,4.62-26.26,10.36-14.66,7.08-23.26,2.63-24.26-2.87C138.32,307.55,147,300.21,159.86,300.17Z"/><path class="cls-4" d="M316.49,406s-.16-.06-.43-.13c-3.25-.82-4.55-2.72-4.48-4.51a2.52,2.52,0,0,1,1.44-2.22,2.22,2.22,0,0,1,3.13,1.94l-.73.52c-.34-1.84-2.56-1.57-2.34.1s1.65,2.16,2.75,2.68A2.21,2.21,0,0,1,316.49,406Z"/><path class="cls-7" d="M316,406.29l-1-9.72c0-.82,2.87-1.67,6.41-1.67s6.41.85,6.41,1.67l-1,9.72"/><ellipse class="cls-4" cx="321.44" cy="397.03" rx="5.71" ry="1.47"/><path class="cls-7" d="M315.72,406a3.5,3.5,0,0,0,2.91,3.24,16.8,16.8,0,0,0,2.81.21,16.4,16.4,0,0,0,2.9-.24,3.48,3.48,0,0,0,2.82-3.22l.67-9.53s-.68-.08-.68.53-2.4,1-5.71,1-5.71-.39-5.71-1-.67-.53-.67-.53Z"/><path class="cls-4" d="M327.85,396.57c-.05.92-3,1.66-6.51,1.66s-6.36-.74-6.31-1.66,3-1.67,6.51-1.67S327.9,395.65,327.85,396.57Z"/><path class="cls-11" d="M323.75,393.11c-.24-1-.41-1.29-.73-1.29s-.56.41-.81,1.3c-.74,2.62-3.81,3.44-5.87,3.66-1.64.17,3,.55,5.23.55a13.19,13.19,0,0,0,5.28-.85C325,396.52,324.25,395.27,323.75,393.11Z"/><path class="cls-27" d="M316.18,396.91c-1.1.11,3.2,1.11,5.44,1.11a11.35,11.35,0,0,0,5.23-1.54,2.69,2.69,0,0,1-2.69-2c-.39-.92-.47-1.23-.75-1.17-.62.12-.23,1.53-1.81,2.73S316.48,396.88,316.18,396.91Z"/><circle class="cls-29" cx="322.99" cy="387.96" r="0.81" transform="translate(-140.2 588.69) rotate(-73.65)"/><path class="cls-27" d="M322.49,388.6a.81.81,0,1,0,1-1.28c-.16-.13,0,.36-.35.78S322.3,388.46,322.49,388.6Z"/><path class="cls-7" d="M321.34,398.23c-3.22,0-5.89-.63-6.26-1.44l.64,9.25a3.5,3.5,0,0,0,2.91,3.24,16.8,16.8,0,0,0,2.81.21,16.4,16.4,0,0,0,2.9-.24,3.48,3.48,0,0,0,2.82-3.22l.65-9.31C327.45,397.57,324.64,398.23,321.34,398.23Z"/><path class="cls-4" d="M327.5,396.05c-.88.67-3.34,1.15-6.15,1.15s-5.1-.46-6-1.1a.75.75,0,0,0-.35.51c0,.93,2.81,1.67,6.32,1.67s6.45-.75,6.5-1.67A.7.7,0,0,0,327.5,396.05Z"/><path class="cls-4" d="M318.63,409.28a16.8,16.8,0,0,0,2.81.21,16.4,16.4,0,0,0,2.9-.24,3.48,3.48,0,0,0,2.82-3.22l.65-9.31c-.13.31-.79.28-1.25.83-2.41,2.84-2.09,5.57-3.42,7.92C321.06,409.12,317.65,409.11,318.63,409.28Z"/><path class="cls-5" d="M334.58,417.94c1.34-.93,2.29-1.59,3.56-1,.41.19,6.16,2.72,9.45,4.37"/><path class="cls-50" d="M427.83,317.75l-12.89,6.09-.17-1.28L426.5,317a.93.93,0,0,1,1.33.8Z"/><path class="cls-27" d="M421.1,350.16s-1.11.36-3.7-.57-2.61-1.59-2.61-1.59V322.55s0,1,2.18,1.7a9,9,0,0,0,4.13.46Z"/><path class="cls-7" d="M435.85,323l-12.29,5.79-.26-1.21,11.22-5.38a.93.93,0,0,1,1.33.8Z"/><path class="cls-27" d="M428.31,351.91a5.17,5.17,0,0,1-3.07-.21c-1.94-.63-1.94-1.3-1.94-1.3V327.55s.17.95,2.19,1.38a10.45,10.45,0,0,0,2.82.12Z"/><polygon class="cls-27" points="429.78 337.41 429.5 336.51 440.74 330.49 440.99 331.31 429.78 337.41"/><path class="cls-4" d="M438.07,354.91s-.27.35-1.52,0-1.49-1-1.49-1l-5.63-17.46a2.67,2.67,0,0,0,1.4.87,2.46,2.46,0,0,0,1.61.14Z"/><polygon class="cls-7" points="448.67 349.29 438.02 354.91 432.39 337.46 443.03 331.84 448.67 349.29"/><path class="cls-49" d="M347,76a8.9,8.9,0,0,1-.21,1c3.31,1.46,5.07,2.63,5.2,3.12-.64.57-6.31.18-15.67-2.66s-14.43-5.73-14.54-6.47c.13-.15.61-.24,1.42-.24a26.43,26.43,0,0,1,4.06.41c0-.11.07-.22.11-.34s.18-.41.28-.62L326.46,70c-4.61-.66-5.43,0-5.63.66s.12,1.66,4.32,3.67A81.15,81.15,0,0,0,336,78.37c.5.15,9.68,2.91,14.32,2.91,1.42,0,2.41-.26,2.61-.92C353.35,79.07,350.4,77.41,347,76Z"/></g></g></svg>