<svg height="27" viewBox="0 0 20 27" width="20" xmlns="http://www.w3.org/2000/svg"><g fill="none" transform="translate(1 1)"><g fill="#dedede" transform="translate(0 7)"><path d="m17.2581769 13.1496367c.194622 0 .3527573.1566855.3527987.3500118v3.0002226c0 .8548907-.7016258 1.5501289-1.563887 1.5501289h-14.5332016c-.86227256 0-1.563887-.6952495-1.563887-1.5501289v-12.00092572c0-.81050997.63178901-1.4618025 1.47030234-1.68756673l9.07078006-2.69635709c.493866-.2049085 1.1815687-.28272404 1.6955747.06133705.3852466.25774324.5798943.70477313.5798943 1.32236413 0 .19331581-.158133.35001172-.3527632.35001172s-.3527632-.15669591-.3527632-.35001172c0-.37571047-.0921008-.62381672-.2688233-.74212651-.2469936-.1655647-.7276357-.11723629-1.0675892.0183823l-9.11082386 2.70956457c-.53992293.14547066-.95822675.54773665-.95822675 1.01440228v12.00092572c0 .4685171.3850525.8500703.85832511.8500703h14.5332016c.4732726 0 .8583251-.3815532.8583251-.8500703v-3.0002226c0-.1933158.158133-.3500118.3527632-.3500118z" stroke="#dedede" stroke-width=".1"/><path d="m17.4541732 9.639883c.3331379.02610397.5958268.3108164.5958268.6567822v1.8262727c0 .3631207-.2893749.6587694-.6458268.6587694h-6.5539554c-.3564637 0-.6458268-.2956607-.6458268-.6587694v-1.8262727c0-.36312065.2893748-.65876941.6458268-.65876941l5.9081635.05v-3.95691218c0-.47606113-.3788459-.86313633-.8437228-.86313633h-14.29956443c-.17965355 0-.32950889-.13936741-.34650026-.32119621-.01665029-.18165461.10494807-.34706053.28123069-.38115934l12.5101278-2.43461232c.3020839-.07167299.74556-.0397405 1.1035655.25445056.3345629.27536333.5032098.71763687.5032098 1.31061155 0 .19537942-.1556073.35436688-.3478959.35436688s-.347896-.15898746-.347896-.35436688c0-.37030371-.0828545-.62398561-.2418051-.75664292-.1581633-.13196185-.4190889-.14836399-.5307141-.11379885l-9.42729406 1.73357809h11.14350116c.8491979 0 1.5395496.70535901 1.5395496 1.57190577zm-6.5539554 2.4334393 6.4542696.0496242.0496858-1.7762813-6.5039554-.05z" stroke="#dedede" stroke-width=".1"/><path d="m15.5592431 6.6857143c.1817424 0 .3292586-.15360869.3292586-.34285715 0-.18924847-.1475162-.34285715-.3292586-.34285715h-.6585559c-.1817424 0-.3292586.15360868-.3292586.34285715 0 .18924846.1475162.34285715.3292586.34285715z"/><path d="m15.5592431 16.1142857c.1817424 0 .3292586-.1536087.3292586-.3428571 0-.1892485-.1475162-.3428572-.3292586-.3428572h-.6585559c-.1817424 0-.3292586.1536087-.3292586.3428572 0 .1892484.1475162.3428571.3292586.3428571z"/><path d="m12.9878145 6.6857143c.1817425 0 .3292587-.15360869.3292587-.34285715 0-.18924847-.1475162-.34285715-.3292587-.34285715h-.6585559c-.1817424 0-.3292586.15360868-.3292586.34285715 0 .18924846.1475162.34285715.3292586.34285715z"/><path d="m12.9878145 16.1142857c.1817425 0 .3292587-.1536087.3292587-.3428571 0-.1892485-.1475162-.3428572-.3292587-.3428572h-.6585559c-.1817424 0-.3292586.1536087-.3292586.3428572 0 .1892484.1475162.3428571.3292586.3428571z"/><path d="m10.416386 6.6857143c.1817424 0 .3292586-.15360869.3292586-.34285715 0-.18924847-.1475162-.34285715-.3292586-.34285715h-.65855593c-.18174243 0-.32925864.15360868-.32925864.34285715 0 .18924846.14751621.34285715.32925864.34285715z"/><path d="m10.416386 16.1142857c.1817424 0 .3292586-.1536087.3292586-.3428571 0-.1892485-.1475162-.3428572-.3292586-.3428572h-.65855593c-.18174243 0-.32925864.1536087-.32925864.3428572 0 .1892484.14751621.3428571.32925864.3428571z"/><path d="m7.84495738 6.6857143c.18174244 0 .32925865-.15360869.32925865-.34285715 0-.18924847-.14751621-.34285715-.32925865-.34285715h-.65855588c-.18174243 0-.32925864.15360868-.32925864.34285715 0 .18924846.14751621.34285715.32925864.34285715z"/><path d="m7.84495738 16.1142857c.18174244 0 .32925865-.1536087.32925865-.3428571 0-.1892485-.14751621-.3428572-.32925865-.3428572h-.65855588c-.18174243 0-.32925864.1536087-.32925864.3428572 0 .1892484.14751621.3428571.32925864.3428571z"/><path d="m5.27352881 6.6857143c.18174244 0 .32925865-.15360869.32925865-.34285715 0-.18924847-.14751621-.34285715-.32925865-.34285715h-.65855588c-.18174244 0-.32925864.15360868-.32925864.34285715 0 .18924846.1475162.34285715.32925864.34285715z"/><path d="m5.27352881 16.1142857c.18174244 0 .32925865-.1536087.32925865-.3428571 0-.1892485-.14751621-.3428572-.32925865-.3428572h-.65855588c-.18174244 0-.32925864.1536087-.32925864.3428572 0 .1892484.1475162.3428571.32925864.3428571z"/><path d="m2.70210024 6.6857143c.18174244 0 .32925865-.15360869.32925865-.34285715 0-.18924847-.14751621-.34285715-.32925865-.34285715h-.65855588c-.18174244 0-.32925865.15360868-.32925865.34285715 0 .18924846.14751621.34285715.32925865.34285715z"/><path d="m2.70210024 16.1142857c.18174244 0 .32925865-.1536087.32925865-.3428571 0-.1892485-.14751621-.3428572-.32925865-.3428572h-.65855588c-.18174244 0-.32925865.1536087-.32925865.3428572 0 .1892484.14751621.3428571.32925865.3428571z"/></g><path d="m8.61111111 6.89610791v-4.11833013c0-.64433221-.52233446-1.16666667-1.16666667-1.16666667h-3.88888888c-.58296724 0-1.05555556-.47258832-1.05555556-1.05555555 0-.58296724.47258832-1.05555556 1.05555556-1.05555556h3.88888888c1.81026668 0 3.27777776 1.4675111 3.27777776 3.27777778v4.11833013l.9758318-.97583173c.41222-.41222009 1.0805608-.41222009 1.4927809 0 .4122201.41222008.4122201 1.08056089 0 1.49278098l-2.7777777 2.77777774c-.4122201.4122201-1.08056094.4122201-1.49278102 0l-2.77777778-2.77777774c-.41222009-.41222009-.41222009-1.0805609 0-1.49278098.41222008-.41222009 1.08056089-.41222009 1.49278098 0z" fill="#12bb9b" stroke="#202930"/></g></svg>