<?xml version="1.0" encoding="UTF-8"?>
<svg width="48px" height="48px" viewBox="0 0 48 48" version="1.1" xmlns="http://www.w3.org/2000/svg" xmlns:xlink="http://www.w3.org/1999/xlink">
    <!-- Generator: Sketch 47.1 (45422) - http://www.bohemiancoding.com/sketch -->
    <title>Icon Locked</title>
    <desc>Created with Sketch.</desc>
    <defs>
        <circle id="path-1" cx="24" cy="24" r="24"></circle>
        <polygon id="path-2" points="0 0 17 0 17 19 0 19"></polygon>
        <polygon id="path-4" points="0 16 17 16 17 28 0 28"></polygon>
    </defs>
    <g id="12_Elements" stroke="none" stroke-width="1" fill="none" fill-rule="evenodd">
        <g id="Elements" transform="translate(-124.000000, -966.000000)">
            <g id="Icon-Locked" transform="translate(124.000000, 966.000000)">
                <g id="Oval-2-Copy-4">
                    <use fill="#202930" fill-rule="evenodd" xlink:href="#path-1"></use>
                    <circle stroke="#9AA3AD" stroke-width="2" cx="24" cy="24" r="23"></circle>
                </g>
                <g id="Group-9" transform="translate(13.000000, 10.000000)">
                    <g id="Group-5">
                        <mask id="mask-3" fill="white">
                            <use xlink:href="#path-2"></use>
                        </mask>
                        <g id="Clip-2"></g>
                        <path d="M7.97959184,9.84788732 L1.89481947,12.6042254 L7.97959184,2.43521127 L7.97959184,9.84788732 Z M9.04709576,9.84788732 L9.04709576,2.46197183 L15.1318681,12.6309859 L9.04709576,9.84788732 Z M9.04709576,11.0253521 L15.3186813,13.8887324 L9.04709576,17.5549296 L9.04709576,11.0253521 Z M7.97959184,17.5549296 L1.70800628,13.8619718 L7.97959184,11.0253521 L7.97959184,17.5549296 Z M0.0266875981,13.8887324 L0.0266875981,13.9422535 C0.0266875981,13.9690141 0.0266875981,13.9690141 0.0533751962,13.9957746 L0.0533751962,14.0225352 C0.0533751962,14.0492958 0.0800627943,14.0492958 0.0800627943,14.0760563 L0.106750392,14.1028169 L0.133437991,14.1295775 C0.133437991,14.156338 0.160125589,14.156338 0.160125589,14.1830986 L0.186813187,14.2098592 C0.213500785,14.2366197 0.213500785,14.2366197 0.240188383,14.2366197 L8.24646782,18.9464789 L8.27315542,18.9464789 C8.29984301,18.973507 8.32653061,18.973507 8.35321821,18.973507 L8.37990581,18.973507 C8.433281,18.973507 8.4599686,19 8.5133438,19 C8.566719,19 8.59340659,19 8.64678179,18.973507 L8.67346939,18.973507 C8.70015699,18.973507 8.72684458,18.9464789 8.75353218,18.9464789 L8.78021978,18.9464789 L16.7598116,14.2633803 C16.7598116,14.2633803 16.7864992,14.2633803 16.7864992,14.2366197 C16.8131868,14.2098592 16.8398744,14.1830986 16.866562,14.156338 L16.8932496,14.1295775 C16.9199372,14.1028169 16.9466248,14.0492958 16.9733124,14.0225352 L16.9733124,13.9957746 C16.9733124,13.9690141 17,13.9690141 17,13.9422535 L17,13.8887324 L17,13.8352113 L17,13.7816901 L17,13.728169 C17,13.7014085 17,13.7014085 16.9733124,13.6746479 L16.9733124,13.6211268 C16.9733124,13.5943662 16.9466248,13.5943662 16.9466248,13.5676056 C16.9466248,13.5676056 16.9466248,13.5408451 16.9199372,13.5408451 L8.96703297,0.24084507 C8.94034537,0.214084507 8.91365777,0.16056338 8.88697017,0.133802817 L8.86028257,0.133802817 C8.83359498,0.107042254 8.80690738,0.0802816901 8.78021978,0.0802816901 C8.78021978,0.0802816901 8.75353218,0.0802816901 8.75353218,0.0535211268 C8.72684458,0.0267605634 8.70015699,0.0267605634 8.67346939,0.0267605634 L8.64678179,0.0267605634 C8.59340659,0 8.566719,0 8.5133438,0 C8.4599686,0 8.433281,0 8.37990581,0.0267605634 L8.35321821,0.0267605634 C8.32653061,0.0267605634 8.29984301,0.0535211268 8.27315542,0.0535211268 C8.27315542,0.0535211268 8.24646782,0.0535211268 8.24646782,0.0802816901 C8.21978022,0.107042254 8.19309262,0.107042254 8.16640502,0.133802817 L8.13971743,0.133802817 C8.11302983,0.16056338 8.08634223,0.187323944 8.05965463,0.24084507 L0.0800627943,13.5408451 C0.0800627943,13.5408451 0.0800627943,13.5676056 0.0533751962,13.5676056 C0.0533751962,13.5943662 0.0266875981,13.5943662 0.0266875981,13.6211268 L0.0266875981,13.6746479 C0.0266875981,13.7014085 0.0266875981,13.7014085 0,13.728169 L0,13.7816901 L0,13.8352113 C0,13.8619718 0,13.8619718 0.0266875981,13.8887324 L0.0266875981,13.8887324 Z" id="Fill-1" fill="#DEDEDE" mask="url(#mask-3)"></path>
                        <mask id="mask-5" fill="white">
                            <use xlink:href="#path-4"></use>
                        </mask>
                        <g id="Clip-5"></g>
                        <path d="M9.02957058,25.8600636 L9.02957058,21.5013687 L14.5562217,18.2647116 L9.02957058,25.8600636 Z M7.96161866,21.5013687 L7.96161866,25.8600636 L2.43496749,18.2647116 L7.96161866,21.5013687 Z M16.8523184,16.1767141 C16.6921256,15.9940143 16.3984388,15.9681753 16.1848484,16.0725752 L8.49559462,20.5878698 L0.806340822,16.0725752 C0.592750438,15.9420754 0.299063661,15.9940143 0.138870874,16.1767141 C-0.0213219138,16.3596749 -0.0480207117,16.6206746 0.0854732779,16.8292133 L8.06841386,27.7912002 C8.17520905,27.9217001 8.33540183,28 8.49559462,28 C8.65578741,28 8.842679,27.9217001 8.92277539,27.7912002 L16.905716,16.8292133 C17.03921,16.6206746 17.03921,16.3596749 16.8523184,16.1767141 L16.8523184,16.1767141 Z" id="Fill-4" fill="#DEDEDE" mask="url(#mask-5)"></path>
                    </g>
                    <circle id="Oval-3" fill="#202930" cx="19" cy="22" r="7"></circle>
                    <g id="Group-8" transform="translate(14.000000, 17.000000)" stroke="#12BB9B" stroke-linecap="square">
                        <path d="M8.33024507,9.16666667 L1.55978624,9.16666667 C0.823786238,9.16666667 0.226452905,8.56933333 0.226452905,7.83333333 L0.226452905,3.83333333 L9.66357841,3.83333333 L9.66357841,7.83333333 C9.66357841,8.56933333 9.06624507,9.16666667 8.33024507,9.16666667 Z" id="Stroke-1" fill="#12BB9B"></path>
                        <path d="M1.33333333,3.66666667 C1.33333333,1.642 2.97533333,0 5,0 C7.02466667,0 8.66666667,1.642 8.66666667,3.66666667" id="Stroke-3" stroke-linejoin="round"></path>
                    </g>
                </g>
            </g>
        </g>
    </g>
</svg>