<?xml version="1.0" encoding="UTF-8"?>
<svg width="48px" height="48px" viewBox="0 0 48 48" version="1.1" xmlns="http://www.w3.org/2000/svg" xmlns:xlink="http://www.w3.org/1999/xlink">
    <!-- Generator: Sketch 47.1 (45422) - http://www.bohemiancoding.com/sketch -->
    <title>Icon Transfer</title>
    <desc>Created with Sketch.</desc>
    <defs>
        <circle id="path-1" cx="24" cy="24" r="24"></circle>
        <path d="M17.2581769,13.1996367 C17.0910593,13.1996367 16.9554137,13.3340496 16.9554137,13.4996485 L16.9554137,16.4998711 C16.9554137,16.9961052 16.5478738,17.3999414 16.0470886,17.3999414 L1.513887,17.3999414 C1.01310182,17.3999414 0.605561895,16.9961052 0.605561895,16.4998711 L0.605561895,4.49894538 C0.605561895,3.95320744 1.11755921,3.56645848 1.60078106,3.43626471 L10.7103593,0.727053087 C10.89355,0.653852056 11.4905964,0.494230213 11.8200416,0.715063869 C12.0132026,0.844378658 12.111025,1.10810629 12.111025,1.49872274 C12.111025,1.66432161 12.2466706,1.79873446 12.4137882,1.79873446 C12.5809058,1.79873446 12.7165514,1.66432161 12.7165514,1.49872274 C12.7165514,0.896589767 12.5288191,0.465434994 12.158854,0.21791566 C11.507592,-0.218020737 10.5868484,0.129420466 10.5102439,0.161204199 L1.43455048,2.85930558 C0.720308901,3.05162529 0,3.63336605 0,4.49894538 L0,16.4998711 C0,17.3270216 0.679114939,18 1.513887,18 L16.0470886,18 C16.8818252,18 17.5609756,17.3270568 17.5609756,16.4998711 L17.5609756,13.4996485 C17.5609401,13.3340496 17.4252945,13.1996367 17.2581769,13.1996367 Z" id="path-2"></path>
        <path d="M17.4041732,9.68793146 L17.4041732,5.73098361 C17.4041732,4.89182559 16.7359758,4.20907784 15.9146236,4.20907784 L4.77112244,4.20907784 L14.1888658,2.37642038 C14.1918333,2.37549297 14.530261,2.30825618 14.7611626,2.50090654 C14.9336581,2.64486819 15.0209357,2.91242426 15.0209357,3.29594152 C15.0209357,3.46394434 15.1544006,3.6003084 15.3188317,3.6003084 C15.4832627,3.6003084 15.6167276,3.46394434 15.6167276,3.29594152 C15.6167276,2.71670633 15.4534836,2.28874502 15.1317434,2.02393549 C14.6765382,1.64987062 14.0881824,1.77556954 14.0714949,1.77952884 L1.55937604,4.21457093 C1.40835085,4.24378416 1.30407156,4.38592667 1.31838509,4.54208725 C1.3329779,4.69824783 1.46138073,4.81784728 1.61509407,4.81784728 L15.9146585,4.81784728 C16.407393,4.81784728 16.8083813,5.22754587 16.8083813,5.73098361 L16.8083813,9.68789579 L10.8502178,9.68789579 C10.521635,9.68789579 10.254391,9.96090928 10.254391,10.2966652 L10.254391,12.1229379 C10.254391,12.4586582 10.5216001,12.7317073 10.8502178,12.7317073 L17.4041732,12.7317073 C17.7327559,12.7317073 18,12.4586938 18,12.1229379 L18,10.2966652 C18,9.96094495 17.7327909,9.68793146 17.4041732,9.68793146 Z M10.8502178,12.1229379 L10.8502178,10.2966652 L17.4041732,10.2966652 L17.4044874,12.1229379 L10.8502178,12.1229379 Z" id="path-3"></path>
        <path d="M25.1111111,19.1032147 L23.281726,17.2738296 C23.064768,17.0568716 22.7130097,17.0568716 22.4960518,17.2738296 C22.2790938,17.4907875 22.2790938,17.8425458 22.4960518,18.0595038 L25.2738296,20.8372815 C25.4907875,21.0542395 25.8425458,21.0542395 26.0595038,20.8372815 L28.8372815,18.0595038 C29.0542395,17.8425458 29.0542395,17.4907875 28.8372815,17.2738296 C28.6203236,17.0568716 28.2685653,17.0568716 28.0516073,17.2738296 L26.2222222,19.1032147 L26.2222222,13.7777778 C26.2222222,12.2436535 24.9785687,11 23.4444444,11 L19.5555556,11 C19.2487307,11 19,11.2487307 19,11.5555556 C19,11.8623804 19.2487307,12.1111111 19.5555556,12.1111111 L23.4444444,12.1111111 C24.364919,12.1111111 25.1111111,12.8573032 25.1111111,13.7777778 L25.1111111,19.1032147 Z" id="path-4"></path>
    </defs>
    <g id="12_Elements" stroke="none" stroke-width="1" fill="none" fill-rule="evenodd">
        <g id="Elements" transform="translate(-196.000000, -966.000000)">
            <g id="Icon-Transfer" transform="translate(196.000000, 966.000000)">
                <g id="Oval-2-Copy-6">
                    <use fill="#202930" fill-rule="evenodd" xlink:href="#path-1"></use>
                    <circle stroke="#9AA3AD" stroke-width="2" cx="24" cy="24" r="23"></circle>
                </g>
                <g id="001-wallet-1" transform="translate(16.000000, 18.000000)" fill-rule="nonzero">
                    <g id="Shape">
                        <use fill="#DEDEDE" fill-rule="evenodd" xlink:href="#path-2"></use>
                        <path stroke="#DEDEDE" stroke-width="0.1" d="M17.2581769,13.1496367 C17.4527989,13.1496367 17.6109342,13.3063222 17.6109756,13.4996485 L17.6109756,16.4998711 C17.6109756,17.3547618 16.9093498,18.05 16.0470886,18.05 L1.513887,18.05 C0.651614435,18.05 -0.05,17.3547505 -0.05,16.4998711 L-0.05,4.49894538 C-0.05,3.68843541 0.581789009,3.03714288 1.42030234,2.81137865 L10.4910824,0.115021555 C10.9849484,-0.0898869448 11.6726511,-0.167702484 12.1866571,0.176358613 C12.5719037,0.434101854 12.7665514,0.881131744 12.7665514,1.49872274 C12.7665514,1.69203855 12.6084184,1.84873446 12.4137882,1.84873446 C12.219158,1.84873446 12.061025,1.69203855 12.061025,1.49872274 C12.061025,1.12301227 11.9689242,0.874906016 11.7922017,0.756596226 C11.5452081,0.591031528 11.064566,0.639359943 10.7246125,0.774978527 L1.61378864,3.4845431 C1.07386571,3.63001376 0.655561895,4.03227975 0.655561895,4.49894538 L0.655561895,16.4998711 C0.655561895,16.9683882 1.04061439,17.3499414 1.513887,17.3499414 L16.0470886,17.3499414 C16.5203612,17.3499414 16.9054137,16.9683882 16.9054137,16.4998711 L16.9054137,13.4996485 C16.9054137,13.3063327 17.0635467,13.1496367 17.2581769,13.1496367 Z"></path>
                    </g>
                    <g id="Shape">
                        <use fill="#DEDEDE" fill-rule="evenodd" xlink:href="#path-3"></use>
                        <path stroke="#DEDEDE" stroke-width="0.1" d="M17.4541732,9.639883 C17.7873111,9.66598697 18.05,9.9506994 18.05,10.2966652 L18.05,12.1229379 C18.05,12.4860586 17.7606251,12.7817073 17.4041732,12.7817073 L10.8502178,12.7817073 C10.4937541,12.7817073 10.204391,12.4860466 10.204391,12.1229379 L10.204391,10.2966652 C10.204391,9.93354455 10.4937658,9.63789579 10.8502178,9.63789579 L16.7583813,9.68789579 L16.7583813,5.73098361 C16.7583813,5.25492248 16.3795354,4.86784728 15.9146585,4.86784728 L1.61509407,4.86784728 C1.43544052,4.86784728 1.28558518,4.72847987 1.26859381,4.54665107 C1.25194352,4.36499646 1.37354188,4.19959054 1.5498245,4.16549173 L14.0599523,1.73087941 C14.3620362,1.65920642 14.8055123,1.69113891 15.1635178,1.98532997 C15.4980807,2.2606933 15.6667276,2.70296684 15.6667276,3.29594152 C15.6667276,3.49132094 15.5111203,3.6503084 15.3188317,3.6503084 C15.1265431,3.6503084 14.9709357,3.49132094 14.9709357,3.29594152 C14.9709357,2.92563781 14.8880812,2.67195591 14.7291306,2.5392986 C14.5709673,2.40733675 14.3100417,2.39093461 14.1984165,2.42549975 L4.77112244,4.15907784 L15.9146236,4.15907784 C16.7638215,4.15907784 17.4541732,4.86443685 17.4541732,5.73098361 L17.4541732,9.639883 Z M10.9002178,12.0733223 L17.3544874,12.1229465 L17.4041732,10.3466652 L10.9002178,10.2966652 L10.9002178,12.0733223 Z"></path>
                    </g>
                    <path d="M15.5592431,6.6857143 C15.7409855,6.6857143 15.8885017,6.53210561 15.8885017,6.34285715 C15.8885017,6.15360868 15.7409855,6 15.5592431,6 L14.9006872,6 C14.7189448,6 14.5714286,6.15360868 14.5714286,6.34285715 C14.5714286,6.53210561 14.7189448,6.6857143 14.9006872,6.6857143 L15.5592431,6.6857143 Z" id="Shape" fill="#DEDEDE"></path>
                    <path d="M15.5592431,16.1142857 C15.7409855,16.1142857 15.8885017,15.960677 15.8885017,15.7714286 C15.8885017,15.5821801 15.7409855,15.4285714 15.5592431,15.4285714 L14.9006872,15.4285714 C14.7189448,15.4285714 14.5714286,15.5821801 14.5714286,15.7714286 C14.5714286,15.960677 14.7189448,16.1142857 14.9006872,16.1142857 L15.5592431,16.1142857 Z" id="Shape-Copy-7" fill="#DEDEDE"></path>
                    <path d="M12.9878145,6.6857143 C13.169557,6.6857143 13.3170732,6.53210561 13.3170732,6.34285715 C13.3170732,6.15360868 13.169557,6 12.9878145,6 L12.3292586,6 C12.1475162,6 12,6.15360868 12,6.34285715 C12,6.53210561 12.1475162,6.6857143 12.3292586,6.6857143 L12.9878145,6.6857143 Z" id="Shape-Copy-2" fill="#DEDEDE"></path>
                    <path d="M12.9878145,16.1142857 C13.169557,16.1142857 13.3170732,15.960677 13.3170732,15.7714286 C13.3170732,15.5821801 13.169557,15.4285714 12.9878145,15.4285714 L12.3292586,15.4285714 C12.1475162,15.4285714 12,15.5821801 12,15.7714286 C12,15.960677 12.1475162,16.1142857 12.3292586,16.1142857 L12.9878145,16.1142857 Z" id="Shape-Copy-8" fill="#DEDEDE"></path>
                    <path d="M10.416386,6.6857143 C10.5981284,6.6857143 10.7456446,6.53210561 10.7456446,6.34285715 C10.7456446,6.15360868 10.5981284,6 10.416386,6 L9.75783007,6 C9.57608764,6 9.42857143,6.15360868 9.42857143,6.34285715 C9.42857143,6.53210561 9.57608764,6.6857143 9.75783007,6.6857143 L10.416386,6.6857143 Z" id="Shape-Copy-3" fill="#DEDEDE"></path>
                    <path d="M10.416386,16.1142857 C10.5981284,16.1142857 10.7456446,15.960677 10.7456446,15.7714286 C10.7456446,15.5821801 10.5981284,15.4285714 10.416386,15.4285714 L9.75783007,15.4285714 C9.57608764,15.4285714 9.42857143,15.5821801 9.42857143,15.7714286 C9.42857143,15.960677 9.57608764,16.1142857 9.75783007,16.1142857 L10.416386,16.1142857 Z" id="Shape-Copy-9" fill="#DEDEDE"></path>
                    <path d="M7.84495738,6.6857143 C8.02669982,6.6857143 8.17421603,6.53210561 8.17421603,6.34285715 C8.17421603,6.15360868 8.02669982,6 7.84495738,6 L7.1864015,6 C7.00465907,6 6.85714286,6.15360868 6.85714286,6.34285715 C6.85714286,6.53210561 7.00465907,6.6857143 7.1864015,6.6857143 L7.84495738,6.6857143 Z" id="Shape-Copy-4" fill="#DEDEDE"></path>
                    <path d="M7.84495738,16.1142857 C8.02669982,16.1142857 8.17421603,15.960677 8.17421603,15.7714286 C8.17421603,15.5821801 8.02669982,15.4285714 7.84495738,15.4285714 L7.1864015,15.4285714 C7.00465907,15.4285714 6.85714286,15.5821801 6.85714286,15.7714286 C6.85714286,15.960677 7.00465907,16.1142857 7.1864015,16.1142857 L7.84495738,16.1142857 Z" id="Shape-Copy-10" fill="#DEDEDE"></path>
                    <path d="M5.27352881,6.6857143 C5.45527125,6.6857143 5.60278746,6.53210561 5.60278746,6.34285715 C5.60278746,6.15360868 5.45527125,6 5.27352881,6 L4.61497293,6 C4.43323049,6 4.28571429,6.15360868 4.28571429,6.34285715 C4.28571429,6.53210561 4.43323049,6.6857143 4.61497293,6.6857143 L5.27352881,6.6857143 Z" id="Shape-Copy-5" fill="#DEDEDE"></path>
                    <path d="M5.27352881,16.1142857 C5.45527125,16.1142857 5.60278746,15.960677 5.60278746,15.7714286 C5.60278746,15.5821801 5.45527125,15.4285714 5.27352881,15.4285714 L4.61497293,15.4285714 C4.43323049,15.4285714 4.28571429,15.5821801 4.28571429,15.7714286 C4.28571429,15.960677 4.43323049,16.1142857 4.61497293,16.1142857 L5.27352881,16.1142857 Z" id="Shape-Copy-11" fill="#DEDEDE"></path>
                    <path d="M2.70210024,6.6857143 C2.88384268,6.6857143 3.03135889,6.53210561 3.03135889,6.34285715 C3.03135889,6.15360868 2.88384268,6 2.70210024,6 L2.04354436,6 C1.86180192,6 1.71428571,6.15360868 1.71428571,6.34285715 C1.71428571,6.53210561 1.86180192,6.6857143 2.04354436,6.6857143 L2.70210024,6.6857143 Z" id="Shape-Copy-6" fill="#DEDEDE"></path>
                    <path d="M2.70210024,16.1142857 C2.88384268,16.1142857 3.03135889,15.960677 3.03135889,15.7714286 C3.03135889,15.5821801 2.88384268,15.4285714 2.70210024,15.4285714 L2.04354436,15.4285714 C1.86180192,15.4285714 1.71428571,15.5821801 1.71428571,15.7714286 C1.71428571,15.960677 1.86180192,16.1142857 2.04354436,16.1142857 L2.70210024,16.1142857 Z" id="Shape-Copy-12" fill="#DEDEDE"></path>
                </g>
                <g id="Combined-Shape" fill-rule="nonzero">
                    <use fill="#12BB9B" fill-rule="evenodd" xlink:href="#path-4"></use>
                    <path stroke="#202930" stroke-width="1" d="M24.6111111,17.8961079 L24.6111111,13.7777778 C24.6111111,13.1334456 24.0887767,12.6111111 23.4444444,12.6111111 L19.5555556,12.6111111 C18.9725883,12.6111111 18.5,12.1385228 18.5,11.5555556 C18.5,10.9725883 18.9725883,10.5 19.5555556,10.5 L23.4444444,10.5 C25.2547111,10.5 26.7222222,11.9675111 26.7222222,13.7777778 L26.7222222,17.8961079 L27.698054,16.9202762 C28.110274,16.5080561 28.7786148,16.5080561 29.1908349,16.9202762 C29.603055,17.3324963 29.603055,18.0008371 29.1908349,18.4130572 L26.4130572,21.1908349 C26.0008371,21.603055 25.3324963,21.603055 24.9202762,21.1908349 L22.1424984,18.4130572 C21.7302783,18.0008371 21.7302783,17.3324963 22.1424984,16.9202762 C22.5547185,16.5080561 23.2230593,16.5080561 23.6352794,16.9202762 L24.6111111,17.8961079 Z"></path>
                </g>
            </g>
        </g>
    </g>
</svg>