<?xml version="1.0" encoding="UTF-8"?>
<svg width="48px" height="48px" viewBox="0 0 48 48" version="1.1" xmlns="http://www.w3.org/2000/svg" xmlns:xlink="http://www.w3.org/1999/xlink">
    <!-- Generator: Sketch 47.1 (45422) - http://www.bohemiancoding.com/sketch -->
    <title>Icon Open</title>
    <desc>Created with Sketch.</desc>
    <defs>
        <circle id="path-1" cx="24" cy="24" r="24"></circle>
        <path d="M37.3333593,31.0344055 C37.3333593,30.8042868 37.5199073,30.6177388 37.7500259,30.6177388 C37.9801446,30.6177388 38.1666926,30.8042868 38.1666926,31.0344055 L38.1666925,31.4221437 C38.165532,33.4519581 36.8294106,35.2392413 34.8828957,35.814765 C32.9363809,36.3902887 30.8431646,35.6169534 29.7383803,33.9141325 C28.633596,32.2113115 28.7804216,29.9846449 30.0992349,28.4416351 C31.4180481,26.8986253 33.5946858,26.4068428 35.4487759,27.232977 C35.6589727,27.3266353 35.753446,27.5729585 35.6597877,27.7831554 C35.5661295,27.9933523 35.3198062,28.0878255 35.1096093,27.9941672 C33.5926266,27.3182392 31.8117412,27.7206067 30.7327122,28.9830693 C29.6536831,30.2455319 29.5335531,32.0673499 30.4374675,33.4605671 C31.3413819,34.8537843 33.0540134,35.4865131 34.6466165,35.0156301 C36.2392196,34.5447471 37.3324098,33.0824244 37.3333593,31.4219055 L37.3333593,31.0344055 Z M33.5833593,31.2466971 L37.8720648,26.9579916 C38.0347832,26.7952731 38.298602,26.7952731 38.4613204,26.9579916 C38.6240389,27.12071 38.6240389,27.3845288 38.4613204,27.5472472 L33.8779871,32.1305806 C33.7152686,32.293299 33.4514499,32.293299 33.2887315,32.1305806 L32.0387315,30.8805806 C31.876013,30.7178621 31.876013,30.4540434 32.0387315,30.2913249 C32.2014499,30.1286065 32.4652686,30.1286065 32.6279871,30.2913249 L33.5833593,31.2466971 Z" id="path-2"></path>
    </defs>
    <g id="12_Elements" stroke="none" stroke-width="1" fill="none" fill-rule="evenodd">
        <g id="Elements" transform="translate(-52.000000, -966.000000)">
            <g id="Icon-Open" transform="translate(52.000000, 966.000000)">
                <g id="Oval-2">
                    <use fill="#202930" fill-rule="evenodd" xlink:href="#path-1"></use>
                    <circle stroke="#9AA3AD" stroke-width="2" cx="24" cy="24" r="23"></circle>
                </g>
                <rect id="Rectangle-path-Copy" fill="#12BB9B" fill-rule="nonzero" x="19" y="8" width="1" height="1"></rect>
                <rect id="Rectangle-path-Copy-4" fill="#12BB9B" fill-rule="nonzero" x="26" y="37" width="1" height="1"></rect>
                <rect id="Rectangle-path-Copy-2" fill="#12BB9B" fill-rule="nonzero" x="10" y="22" width="1" height="1"></rect>
                <rect id="Rectangle-path-Copy-3" fill="#12BB9B" fill-rule="nonzero" x="36" y="23" width="1" height="1"></rect>
                <g id="Group-2" transform="translate(30.000000, 10.000000)" fill-rule="nonzero" fill="#12BB9B">
                    <rect id="Rectangle-path" x="1" y="0" width="1" height="1"></rect>
                    <rect id="Rectangle-path" x="1" y="2" width="1" height="1"></rect>
                    <rect id="Rectangle-path" x="0" y="1" width="1" height="1"></rect>
                    <rect id="Rectangle-path" x="2" y="1" width="1" height="1"></rect>
                </g>
                <g id="Group-2-Copy" transform="translate(15.000000, 33.000000)" fill-rule="nonzero" fill="#12BB9B">
                    <rect id="Rectangle-path" x="1" y="0" width="1" height="1"></rect>
                    <rect id="Rectangle-path" x="1" y="2" width="1" height="1"></rect>
                    <rect id="Rectangle-path" x="0" y="1" width="1" height="1"></rect>
                    <rect id="Rectangle-path" x="2" y="1" width="1" height="1"></rect>
                </g>
                <g id="Group-2-Copy-2" transform="translate(12.000000, 13.000000)" fill-rule="nonzero" fill="#12BB9B">
                    <rect id="Rectangle-path" x="1" y="0" width="1" height="1"></rect>
                    <rect id="Rectangle-path" x="1" y="2" width="1" height="1"></rect>
                    <rect id="Rectangle-path" x="0" y="1" width="1" height="1"></rect>
                    <rect id="Rectangle-path" x="2" y="1" width="1" height="1"></rect>
                </g>
                <g id="check-circle" transform="translate(29.000000, 26.000000)"></g>
                <path d="M32.6441084,18.68364 C32.6426379,18.6672456 32.6402849,18.6509247 32.6370496,18.6348244 C32.630432,18.5793186 32.6157261,18.5249891 32.5935203,18.4736738 C32.5888144,18.4630873 32.5899909,18.4525007 32.585285,18.4425024 C32.5805791,18.432504 32.5758732,18.432504 32.5729321,18.4266226 C32.5407262,18.3659705 32.4980792,18.3114205 32.4470498,18.265472 C32.4370498,18.2566499 32.4252851,18.2513566 32.4146969,18.2431227 C32.3856528,18.2190089 32.3545499,18.1976153 32.3217558,18.1790153 L24.0864703,14.0620305 C23.9209558,13.9793232 23.726103,13.9793232 23.5605885,14.0620305 L15.325303,18.1790153 C15.1258914,18.2786317 14.9999357,18.4824959 15.0000092,18.7054012 L15.0000092,29.2919337 C14.9987592,29.5159418 15.1249355,29.7211294 15.325303,29.8212604 L23.5605885,33.9382452 C23.5658826,33.9382452 23.571765,33.9382452 23.5770591,33.9417741 C23.732206,34.0194086 23.9148528,34.0194086 24.0699997,33.9417741 C24.0752939,33.9417741 24.0811762,33.9417741 24.0864703,33.9382452 L32.3217558,29.8212604 C32.5221233,29.7211294 32.6482996,29.5159418 32.6470496,29.2919337 L32.6470496,18.7054012 C32.6470496,18.6977554 32.6441084,18.6912859 32.6441084,18.68364 Z M31.4705803,28.9284628 L24.4117641,32.457307 L24.4117641,31.0563558 C24.4117641,30.7315551 24.148382,30.4682151 23.8235294,30.4682151 C23.4986768,30.4682151 23.2352947,30.7315551 23.2352947,31.0563558 L23.2352947,32.457307 L16.1764786,28.9284628 L16.1764786,19.0688722 L23.8235294,15.2459577 L30.7435222,18.7054012 L23.8176471,22.1677855 L17.9353003,19.3511797 C17.6342712,19.229067 17.2911833,19.3741172 17.1691246,19.6751717 C17.0575806,19.950201 17.1683893,20.2652974 17.4276537,20.409833 L23.2352947,23.1929147 L23.2352947,28.703793 C23.2352947,29.0285937 23.4986768,29.2919337 23.8235294,29.2919337 C24.148382,29.2919337 24.4117641,29.0285937 24.4117641,28.703793 L24.4117641,23.1858571 L31.4705803,19.6570129 L31.4705803,28.9284628 Z" id="Shape" fill="#DEDEDE" fill-rule="nonzero"></path>
                <circle id="Oval-4" fill="#202930" cx="33" cy="31" r="5"></circle>
                <mask id="mask-3" fill="white">
                    <use xlink:href="#path-2"></use>
                </mask>
                <use id="Combined-Shape" fill="#12BB9B" fill-rule="nonzero" xlink:href="#path-2"></use>
            </g>
        </g>
    </g>
</svg>