<?xml version="1.0" encoding="UTF-8"?>
<svg width="52px" height="49px" viewBox="0 0 52 49" version="1.1" xmlns="http://www.w3.org/2000/svg" xmlns:xlink="http://www.w3.org/1999/xlink">
    <!-- Generator: Sketch 47.1 (45422) - http://www.bohemiancoding.com/sketch -->
    <title>Icon Liquidation</title>
    <desc>Created with Sketch.</desc>
    <defs>
        <circle id="path-1" cx="24" cy="25" r="24"></circle>
        <polygon id="path-2" points="0 0 8.94736842 0 8.94736842 10 0 10"></polygon>
        <polygon id="path-4" points="0 8.42105263 8.94736842 8.42105263 8.94736842 14.7368421 0 14.7368421"></polygon>
        <path d="M21.1111111,20.1032147 L19.281726,18.2738296 C19.064768,18.0568716 18.7130097,18.0568716 18.4960518,18.2738296 C18.2790938,18.4907875 18.2790938,18.8425458 18.4960518,19.0595038 L21.2738296,21.8372815 C21.4907875,22.0542395 21.8425458,22.0542395 22.0595038,21.8372815 L24.8372815,19.0595038 C25.0542395,18.8425458 25.0542395,18.4907875 24.8372815,18.2738296 C24.6203236,18.0568716 24.2685653,18.0568716 24.0516073,18.2738296 L22.2222222,20.1032147 L22.2222222,14.7777778 C22.2222222,13.2436535 20.9785687,12 19.4444444,12 L15.5555556,12 C15.2487307,12 15,12.2487307 15,12.5555556 C15,12.8623804 15.2487307,13.1111111 15.5555556,13.1111111 L19.4444444,13.1111111 C20.364919,13.1111111 21.1111111,13.8573032 21.1111111,14.7777778 L21.1111111,20.1032147 Z" id="path-6"></path>
        <path d="M27.1111111,37.1032147 L25.281726,35.2738296 C25.064768,35.0568716 24.7130097,35.0568716 24.4960518,35.2738296 C24.2790938,35.4907875 24.2790938,35.8425458 24.4960518,36.0595038 L27.2738296,38.8372815 C27.4907875,39.0542395 27.8425458,39.0542395 28.0595038,38.8372815 L30.8372815,36.0595038 C31.0542395,35.8425458 31.0542395,35.4907875 30.8372815,35.2738296 C30.6203236,35.0568716 30.2685653,35.0568716 30.0516073,35.2738296 L28.2222222,37.1032147 L28.2222222,31.7777778 C28.2222222,30.2436535 26.9785687,29 25.4444444,29 L21.5555556,29 C21.2487307,29 21,29.2487307 21,29.5555556 C21,29.8623804 21.2487307,30.1111111 21.5555556,30.1111111 L25.4444444,30.1111111 C26.364919,30.1111111 27.1111111,30.8573032 27.1111111,31.7777778 L27.1111111,37.1032147 Z" id="path-7"></path>
    </defs>
    <g id="12_Elements" stroke="none" stroke-width="1" fill="none" fill-rule="evenodd">
        <g id="Elements" transform="translate(-412.000000, -965.000000)">
            <g id="Icon-Liquidation" transform="translate(412.000000, 965.000000)">
                <g id="Oval-2-Copy-9">
                    <use fill="#202930" fill-rule="evenodd" xlink:href="#path-1"></use>
                    <circle stroke="#9AA3AD" stroke-width="2" cx="24" cy="25" r="23"></circle>
                </g>
                <g id="Group-4" transform="translate(13.500000, 27.000000)" stroke="#DEDEDE" stroke-linecap="round">
                    <path d="M4.00328592,3.09103199 C4.00328592,3.09103199 3.48479125,2.01457434 2.18512217,2.00013309 C0.139687681,1.97740622 -0.737914534,4.87178225 1.67149465,5.70001597 C5.40469469,6.98330435 4.05474284,9.98319706 2.22147458,9.99986349 C0.688259198,10.0138017 0.0670847736,8.95607313 0,8.80513412" id="Shape"></path>
                    <path d="M2,0 L2.05306413,11.9461598" id="Shape"></path>
                </g>
                <g id="Group-5" transform="translate(26.000000, 11.000000)">
                    <mask id="mask-3" fill="white">
                        <use xlink:href="#path-2"></use>
                    </mask>
                    <g id="Clip-2"></g>
                    <path d="M4.19978518,5.18309859 L0.997273403,6.63380282 L4.19978518,1.28169014 L4.19978518,5.18309859 Z M4.76162935,5.18309859 L4.76162935,1.29577465 L7.96414112,6.64788732 L4.76162935,5.18309859 Z M4.76162935,5.8028169 L8.06246385,7.30985915 L4.76162935,9.23943662 L4.76162935,5.8028169 Z M4.19978518,9.23943662 L0.898950673,7.29577465 L4.19978518,5.8028169 L4.19978518,9.23943662 Z M0.0140461043,7.30985915 L0.0140461043,7.33802817 C0.0140461043,7.35211268 0.0140461043,7.35211268 0.0280922085,7.36619718 L0.0280922085,7.38028169 C0.0280922085,7.3943662 0.0421383128,7.3943662 0.0421383128,7.4084507 L0.0561844171,7.42253521 L0.0702305214,7.43661972 C0.0702305214,7.45070423 0.0842766256,7.45070423 0.0842766256,7.46478873 L0.0983227299,7.47887324 C0.112368834,7.49295775 0.112368834,7.49295775 0.126414938,7.49295775 L4.34024622,9.97183099 L4.35429232,9.97183099 C4.36833843,9.98605634 4.38238453,9.98605634 4.39643064,9.98605634 L4.41047674,9.98605634 C4.43856895,9.98605634 4.45261505,10 4.48070726,10 C4.50879947,10 4.52284558,10 4.55093778,9.98605634 L4.56498389,9.98605634 C4.57902999,9.98605634 4.5930761,9.97183099 4.6071222,9.97183099 L4.62116831,9.97183099 L8.82095348,7.50704225 C8.82095348,7.50704225 8.83499959,7.50704225 8.83499959,7.49295775 C8.84904569,7.47887324 8.8630918,7.46478873 8.8771379,7.45070423 L8.891184,7.43661972 C8.90523011,7.42253521 8.91927621,7.3943662 8.93332232,7.38028169 L8.93332232,7.36619718 C8.93332232,7.35211268 8.94736842,7.35211268 8.94736842,7.33802817 L8.94736842,7.30985915 L8.94736842,7.28169014 L8.94736842,7.25352113 L8.94736842,7.22535211 C8.94736842,7.21126761 8.94736842,7.21126761 8.93332232,7.1971831 L8.93332232,7.16901408 C8.93332232,7.15492958 8.91927621,7.15492958 8.91927621,7.14084507 C8.91927621,7.14084507 8.91927621,7.12676056 8.90523011,7.12676056 L4.71949104,0.126760563 C4.70544493,0.112676056 4.69139883,0.0845070423 4.67735272,0.0704225352 L4.66330662,0.0704225352 C4.64926051,0.0563380282 4.63521441,0.0422535211 4.62116831,0.0422535211 C4.62116831,0.0422535211 4.6071222,0.0422535211 4.6071222,0.0281690141 C4.5930761,0.014084507 4.57902999,0.014084507 4.56498389,0.014084507 L4.55093778,0.014084507 C4.52284558,0 4.50879947,0 4.48070726,0 C4.45261505,0 4.43856895,0 4.41047674,0.014084507 L4.39643064,0.014084507 C4.38238453,0.014084507 4.36833843,0.0281690141 4.35429232,0.0281690141 C4.35429232,0.0281690141 4.34024622,0.0281690141 4.34024622,0.0422535211 C4.32620012,0.0563380282 4.31215401,0.0563380282 4.29810791,0.0704225352 L4.2840618,0.0704225352 C4.2700157,0.0845070423 4.25596959,0.0985915493 4.24192349,0.126760563 L0.0421383128,7.12676056 C0.0421383128,7.12676056 0.0421383128,7.14084507 0.0280922085,7.14084507 C0.0280922085,7.15492958 0.0140461043,7.15492958 0.0140461043,7.16901408 L0.0140461043,7.1971831 C0.0140461043,7.21126761 0.0140461043,7.21126761 0,7.22535211 L0,7.25352113 L0,7.28169014 C0,7.29577465 0,7.29577465 0.0140461043,7.30985915 L0.0140461043,7.30985915 Z" id="Fill-1" fill="#DEDEDE" mask="url(#mask-3)"></path>
                    <mask id="mask-5" fill="white">
                        <use xlink:href="#path-4"></use>
                    </mask>
                    <g id="Clip-5"></g>
                    <path d="M4.75240557,13.6105598 L4.75240557,11.3165099 L7.66116934,9.61300611 L4.75240557,13.6105598 Z M4.19032561,11.3165099 L4.19032561,13.6105598 L1.28156184,9.61300611 L4.19032561,11.3165099 Z M8.86964125,8.51406005 C8.78532925,8.41790227 8.63075727,8.40430281 8.51834128,8.45925011 L4.47136559,10.835721 L0.424389906,8.45925011 C0.311973915,8.39056598 0.157401927,8.41790227 0.0730899335,8.51406005 C-0.0112220599,8.6103552 -0.0252740588,8.74772345 0.0449859357,8.85748069 L4.24653361,14.6269475 C4.3027416,14.6956316 4.3870536,14.7368421 4.47136559,14.7368421 C4.55567758,14.7368421 4.65404158,14.6956316 4.69619757,14.6269475 L8.89774525,8.85748069 C8.96800524,8.74772345 8.96800524,8.6103552 8.86964125,8.51406005 L8.86964125,8.51406005 Z" id="Fill-4" fill="#DEDEDE" mask="url(#mask-5)"></path>
                </g>
                <g id="Combined-Shape" fill-rule="nonzero" transform="translate(20.000000, 17.000000) rotate(-90.000000) translate(-20.000000, -17.000000) ">
                    <use fill="#12BB9B" fill-rule="evenodd" xlink:href="#path-6"></use>
                    <path stroke="#202930" stroke-width="1" d="M20.6111111,18.8961079 L20.6111111,14.7777778 C20.6111111,14.1334456 20.0887767,13.6111111 19.4444444,13.6111111 L15.5555556,13.6111111 C14.9725883,13.6111111 14.5,13.1385228 14.5,12.5555556 C14.5,11.9725883 14.9725883,11.5 15.5555556,11.5 L19.4444444,11.5 C21.2547111,11.5 22.7222222,12.9675111 22.7222222,14.7777778 L22.7222222,18.8961079 L23.698054,17.9202762 C24.110274,17.5080561 24.7786148,17.5080561 25.1908349,17.9202762 C25.603055,18.3324963 25.603055,19.0008371 25.1908349,19.4130572 L22.4130572,22.1908349 C22.0008371,22.603055 21.3324963,22.603055 20.9202762,22.1908349 L18.1424984,19.4130572 C17.7302783,19.0008371 17.7302783,18.3324963 18.1424984,17.9202762 C18.5547185,17.5080561 19.2230593,17.5080561 19.6352794,17.9202762 L20.6111111,18.8961079 Z"></path>
                </g>
                <g id="Combined-Shape-Copy" fill-rule="nonzero" transform="translate(26.000000, 34.000000) rotate(90.000000) translate(-26.000000, -34.000000) ">
                    <use fill="#12BB9B" fill-rule="evenodd" xlink:href="#path-7"></use>
                    <path stroke="#202930" stroke-width="1" d="M26.6111111,35.8961079 L26.6111111,31.7777778 C26.6111111,31.1334456 26.0887767,30.6111111 25.4444444,30.6111111 L21.5555556,30.6111111 C20.9725883,30.6111111 20.5,30.1385228 20.5,29.5555556 C20.5,28.9725883 20.9725883,28.5 21.5555556,28.5 L25.4444444,28.5 C27.2547111,28.5 28.7222222,29.9675111 28.7222222,31.7777778 L28.7222222,35.8961079 L29.698054,34.9202762 C30.110274,34.5080561 30.7786148,34.5080561 31.1908349,34.9202762 C31.603055,35.3324963 31.603055,36.0008371 31.1908349,36.4130572 L28.4130572,39.1908349 C28.0008371,39.603055 27.3324963,39.603055 26.9202762,39.1908349 L24.1424984,36.4130572 C23.7302783,36.0008371 23.7302783,35.3324963 24.1424984,34.9202762 C24.5547185,34.5080561 25.2230593,34.5080561 25.6352794,34.9202762 L26.6111111,35.8961079 Z"></path>
                </g>
                <path d="M39.2383531,10.673602 C39.2070924,10.7204931 39.2070924,10.7673843 39.2383531,10.8142755 C39.2696137,10.8611666 39.3086898,10.8846122 39.355581,10.8846122 L50.1405494,10.8846122 C50.1874406,10.8846122 50.2265167,10.8611666 50.2577773,10.8142755 C50.289038,10.7673843 50.289038,10.7204931 50.2577773,10.673602 L44.8652931,1.34225974 C44.8340324,1.29536858 44.7949564,1.27192299 44.7480652,1.27192299 C44.701174,1.27192299 44.6620979,1.29536858 44.6308373,1.34225974 L39.2383531,10.673602 Z" id="Path" fill="#202930"></path>
                <path d="M43.8336874,4.8122061 C43.8180569,4.73405427 43.8415025,4.66371752 43.9040242,4.60119585 C43.9665459,4.53867417 44.0368826,4.50741351 44.1150344,4.50741351 L45.3810959,4.50741351 C45.4592478,4.50741351 45.5295845,4.53867417 45.5921062,4.60119585 C45.6546279,4.66371752 45.6780735,4.73405427 45.6624429,4.8122061 L45.5217694,7.43811145 C45.5061389,7.50063312 45.4709706,7.55924708 45.4162643,7.61395333 C45.3615581,7.66865957 45.3029441,7.69601287 45.2404224,7.69601287 L44.2557079,7.69601287 C44.1931863,7.69601287 44.1345723,7.66865957 44.0798661,7.61395333 C44.0251598,7.55924708 43.9899914,7.50063312 43.9743609,7.43811145 L43.8336874,4.8122061 Z M45.7327797,9.00896554 C45.7327797,9.27468204 45.6350896,9.50523051 45.4397099,9.70061026 C45.2443302,9.89599 45.0137817,9.99368005 44.7480652,9.99368005 C44.4823487,9.99368005 44.2518002,9.89599 44.0564205,9.70061026 C43.8610407,9.50523051 43.7633507,9.27468204 43.7633507,9.00896554 C43.7633507,8.74324905 43.8610407,8.51270057 44.0564205,8.31732083 C44.2518002,8.12194109 44.4823487,8.02425104 44.7480652,8.02425104 C45.0137817,8.02425104 45.2443302,8.12194109 45.4397099,8.31732083 C45.6350896,8.51270057 45.7327797,8.74324905 45.7327797,9.00896554 Z M45.7327797,0.568555489 L51.3597197,10.3219182 C51.4847627,10.5720046 51.5238388,10.8259983 51.4769477,11.0838997 C51.4300565,11.3418011 51.3050135,11.5606264 51.1018183,11.740376 C50.8986231,11.9201256 50.6563522,12.0100002 50.3750052,12.0100002 L39.1211252,12.0100002 C38.8397782,12.0100002 38.5975072,11.9201256 38.3943121,11.740376 C38.1911169,11.5606264 38.0660739,11.3418011 38.0191827,11.0838997 C37.9722916,10.8259983 38.0113677,10.5720046 38.1364106,10.3219182 L43.7633507,0.568555489 C43.9040242,0.318469146 44.1033116,0.150442703 44.3612131,0.064475444 C44.6191145,-0.0214918147 44.8770159,-0.0214918147 45.1349173,0.064475444 C45.3928187,0.150442703 45.5921062,0.318469146 45.7327797,0.568555489 Z M39.2383531,10.673602 C39.2070924,10.7204931 39.2070924,10.7673843 39.2383531,10.8142755 C39.2696137,10.8611666 39.3086898,10.8846122 39.355581,10.8846122 L50.1405494,10.8846122 C50.1874406,10.8846122 50.2265167,10.8611666 50.2577773,10.8142755 C50.289038,10.7673843 50.289038,10.7204931 50.2577773,10.673602 L44.8652931,1.34225974 C44.8340324,1.29536858 44.7949564,1.27192299 44.7480652,1.27192299 C44.701174,1.27192299 44.6620979,1.29536858 44.6308373,1.34225974 L39.2383531,10.673602 Z" id="ï±-copy" fill="#C0392B"></path>
            </g>
        </g>
    </g>
</svg>