<svg fill="none" height="24" viewBox="0 0 17 24" width="17" xmlns="http://www.w3.org/2000/svg"><path d="m8.51365 0c-3.38835 0-6.13051 2.66445-6.13051 5.95681v2.23256c-1.18986.20931-2.38314.48835-2.38314.85048v11.65115s0 .3223.372687.4751c1.350563.5316 6.663903 2.3588 7.884553 2.7774.15729.0565.20175.0565.24276.0565.05811 0 .08547 0 .24276-.0565 1.22065-.4186 6.54764-2.2458 7.89824-2.7774.3453-.1395.359-.4618.359-.4618v-11.66445c0-.36213-1.1762-.65448-2.3695-.85048v-2.23256c.0171-3.29236-2.7421-5.95681-6.11685-5.95681zm0 2.84717c1.99675 0 3.20375 1.17276 3.20375 3.11298v1.9402c-2.23951-.15286-4.15083-.15286-6.40404 0v-1.9402c0-1.94354 1.20695-3.11298 3.20029-3.11298zm-.01365 7.91033c2.7866 0 5.1253.2093 5.1253.5847v7.2691c0 .113-.0137.1262-.1163.1661-.0991.0432-4.75259 1.6744-4.75259 1.6744s-.18804.0565-.24276.0565c-.05811 0-.24276-.0698-.24276-.0698s-4.65343-1.6312-4.75259-1.6744-.11625-.0565-.11625-.1661v-7.2691c-.02735-.3754 2.31136-.5714 5.09795-.5714z" fill="#000"/></svg>