<svg height="75" viewBox="0 0 75 75" width="75" xmlns="http://www.w3.org/2000/svg"><g fill="none" fill-rule="evenodd"><path d="m-217-404h1124v619h-1124z"/><g fill-rule="nonzero" transform="translate(3 1)"><path d="m65.1666667 49.92-4.2058141 14.4-8.2525193-2.282984z" fill="#e4761b" stroke="#e4761b"/><path d="m52.7083333 61.44 7.9516917-10.5009373 4.5066417-1.0190627z" fill="#e4761b" stroke="#e4761b"/><path d="m59.4166667 39.36 5.75 10.4838758-4.1873053 1.0361242z" fill="#f6851b" stroke="#f6851b"/><path d="m59.4166667 39.2308822 3.6990721-2.7508822 2.0509279 13.44z" fill="#f6851b" stroke="#f6851b"/><g fill="#763d16" stroke="#763d16"><path d="m54.625 31.68 11.5-4.8-.5690855 2.6261743z"/><path d="m64.8176911 31.68-10.1926911-.9033438 10.5416667-1.9766562z"/><path d="m65.1666667 31.7642107-1.4702441 4.7157893-9.0714226-5.76z"/><path d="m67.0833333 28.0825963-1.9166666 1.6774037.5641512-2.88z"/><path d="m64.2083333 31.68.3631645-2.88 1.5535022 1.1794411z"/></g><path d="m44.0833333 58.56 2.7817157 1.0132057 5.8432843 2.8267943z" fill="#e2761b" stroke="#e2761b"/><g fill="#763d16" stroke="#763d16"><path d="m63.25 36.48 1.5461529-4.8 1.3288471 1.0413426z"/><path d="m63.25 36.48-11.5-4.2224837 2.7483096-1.5375163z"/><path d="m57.5 18.24-2.8689584 13.0169764-2.8810416 1.3830236z"/><path d="m66.125 26.9942215-11.5 4.6857785 2.8441378-13.44z"/><path d="m56.5416667 17.6244279 11.5-1.3044279-3.2018014 9.6z"/></g><path d="m63.25 36.5855387-3.852385 2.7744613-7.647615-6.72z" fill="#f6851b" stroke="#f6851b"/><path d="m67.5511939 6.72.4904728 9.2436637-11.5 1.3163363z" fill="#763d16" stroke="#763d16"/><path d="m68.0416667 6.72-23.6589236 17.28-.2994098-11.7227358z" fill="#e2761b" stroke="#e2761b"/><path d="m26.8333333 10.56 17.9038593 1.4430298.3044741 11.9969702z" fill="#f6851b" stroke="#f6851b"/><path d="m51.8290596 32.64-6.7873929-8.2823224 12.4583333-6.1176776z" fill="#763d16" stroke="#763d16"/><path d="m50.9395743 32.64 7.518759 6.4985578-10.5416666 1.1814422z" fill="#e4761b" stroke="#e4761b"/><path d="m48.6081353 40.32-3.5664686-16.32 6.7083333 8.4864467z" fill="#e4761b" stroke="#e4761b"/><path d="m57.5391249 17.7124459-12.4974582 6.2875541 23.9583333-17.28z" fill="#763d16" stroke="#763d16"/><path d="m26.9463493 61.5427017 5.636984 5.6572983-7.6666666-6.72z" fill="#c0ad9e" stroke="#c0ad9e"/><path d="m52.7083333 61.44 2.5669974-9.8273978 5.0996693-.7326022z" fill="#cd6116" stroke="#cd6116"/><path d="m3.83333333 33.6 9.58333337-10.56-8.33787657 9.3100601z" fill="#e2761b" stroke="#e2761b"/><path d="m60.375 51.08605-4.7916667.75395 3.2680203-12.48z" fill="#f6851b" stroke="#f6851b"/><path d="m45.0416667 24-9.579277-.3119819-8.6290564-13.1280181z" fill="#f6851b" stroke="#f6851b"/><path d="m59.4166667 39.36-3.5413929 12.48-.2919405-6.1026534z" fill="#e4751f" stroke="#e4751f"/><path d="m47.9166667 40.6342851 10.5416666-1.2742851-3.7147896 6.72z" fill="#cd6116" stroke="#cd6116"/><path d="m35.4583333 24 9.7259512.2983679 3.6907155 16.0216321z" fill="#f6851b" stroke="#f6851b"/><path d="m35.4583333 24-25.87499997-24 17.22591487 10.9718225z" fill="#e4761b" stroke="#e4761b"/><path d="m26.8333333 64.9814491-22.36485938 7.0185509-4.46847392-17.28z" fill="#e4761b" stroke="#e4761b"/><path d="m7.66666667 37.44 8.34674553-6.72 6.9865878 1.6668182z" fill="#763d16" stroke="#763d16"/><path d="m22.0416667 32.64-6.7083334-1.6397917 3.5980161-15.6402083z" fill="#763d16" stroke="#763d16"/><path d="m5.75 31.881991 10.5416667-1.161991-8.47414811 6.72z" fill="#763d16" stroke="#763d16"/><path d="m54.625 45.12-4.0479129-2.0234874-2.6604204-2.7765126z" fill="#cd6116" stroke="#cd6116"/><path d="m5.55308548 31.68-.76141881-3.84 11.50000003 2.7230752z" fill="#763d16" stroke="#763d16"/><path d="m49.8333333 48 .8293957-4.8 3.962271 2.1305633z" fill="#233447" stroke="#233447"/><path d="m55.5833333 50.88-5.75-3.1835964 5.441006-2.5764036z" fill="#f6851b" stroke="#f6851b"/><path d="m16.2916667 30.72-11.51782898-2.6375946-.94050439-3.1224054z" fill="#763d16" stroke="#763d16"/><path d="m19.1666667 15.36-3.6424286 15.36-11.69090477-5.9772585z" fill="#763d16" stroke="#763d16"/><path d="m19.1666667 15.36 15.3333333 8.3273689-12.1562772 8.9526311z" fill="#763d16" stroke="#763d16"/><path d="m23 33.0671517 12.5939277-9.0671517 5.6144056 17.28z" fill="#e4761b" stroke="#e4761b"/><path d="m41.2083333 40.32-17.4144147-.3383576-.7939186-7.3416424z" fill="#e4761b" stroke="#e4761b"/><path d="m7.66666667 37.5651671 15.50173513-4.9251671.7899315 7.68z" fill="#f6851b" stroke="#f6851b"/><path d="m48.875 41.0135506-7.7191657.2664494-5.697501-17.28z" fill="#f6851b" stroke="#f6851b"/><path d="m50.7916667 43.2269947-.9156645 4.7730053-1.9593355-7.68z" fill="#cd6116" stroke="#cd6116"/><path d="m9.58333333 0 25.87499997 24-15.9142183-8.3948916z" fill="#763d16" stroke="#763d16"/><path d="m0 54.6204841 21.7070452-.8604841 5.1262881 10.56z" fill="#e4761b" stroke="#e4761b"/><path d="m27.1034344 65.28-5.0617677-10.9961695 10.5416666-.5238305z" fill="#cd6116" stroke="#cd6116"/><g fill="#f6851b" stroke="#f6851b"><path d="m49.8333333 48 5.5523398 3.3843295 3.0726602 7.1756705z"/><path d="m23 40.1652126-23 14.5547874 7.17068336-17.28z"/><path d="m21.0671522 53.8504317-21.0671522.8695683 23-14.4z"/><path d="m48.4482444 40.32 1.3850889 5.3603046-6.7083333.3996954z"/><path d="m42.4111157 46.08-2.1611157-5.486796 7.6666667-.273204z"/></g><path d="m32.6196906 67.8477447-5.7863573-2.5677447 20.125 3.84z" fill="#c0ad9e" stroke="#c0ad9e"/><path d="m6.70833333 37.44-2.875-4.4784178 1.09755775-1.2815822z" fill="#763d16" stroke="#763d16"/><path d="m48.875 66.2837668-2.2441223 2.8362332-19.7975444-3.84z" fill="#d7c1b3" stroke="#d7c1b3"/><path d="m49.8333333 59.971722-23 5.308278 5.3865306-11.52z" fill="#e4761b" stroke="#e4761b"/><path d="m26.8333333 64.4518063 23-4.9318063-1.0604274 5.76z" fill="#d7c1b3" stroke="#d7c1b3"/><path d="m3.63727677 24.96-.76227677-13.44 16.2916667 3.7899136z" fill="#763d16" stroke="#763d16"/><path d="m4.79166667 31.68-1.91666667-2.293098 1.2976447-1.546902z" fill="#763d16" stroke="#763d16"/><path d="m36.4166667 43.8572538 3.8333333-3.5372538-.5457347 8.64z" fill="#cd6116" stroke="#cd6116"/><path d="m41.2083333 40.32-3.9002992 3.6319573-5.6830341 3.0880427z" fill="#cd6116" stroke="#cd6116"/><path d="m58.4583333 58.56-1.0650795-.7626764-7.5599205-9.7973236z" fill="#f6851b" stroke="#f6851b"/><path d="m31.7557925 47.04-7.7974592-6.72 17.25.3583724z" fill="#cd6116" stroke="#cd6116"/><path d="m40.25 48.96.5893823-8.64 2.2856177 5.4525436z" fill="#e4751f" stroke="#e4751f"/><path d="m1.91666667 26.1005724 1.15647108-1.1405724.76019558 2.88z" fill="#763d16" stroke="#763d16"/><path d="m40.25 48.96-8.625-1.9709146 5.4293106-2.8290854z" fill="#233447" stroke="#233447"/><path d="m19.1666667 15.36-16.2916667-3.7231531 6.65847395-11.6368469z" fill="#763d16" stroke="#763d16"/><path d="m46.9822411 68.3687436.9344256 2.6712564-15.3333334-3.84z" fill="#c0ad9e" stroke="#c0ad9e"/><path d="m32.4373136 53.76-.8123136-6.72 8.625 2.0271552z" fill="#f6851b" stroke="#f6851b"/><path d="m23.9583333 40.32 7.7874105 6.7043951.8375895 6.7356049z" fill="#e4751f" stroke="#e4751f"/><path d="m43.125 45.5005167 6.5901087-.3805167 7.7848913 12.48z" fill="#f6851b" stroke="#f6851b"/><path d="m24.0081566 40.32 8.5751767 12.9350344-10.5416666.5049656z" fill="#f6851b" stroke="#f6851b"/><path d="m43.0079064 46.08 8.7420936 12.48-11.5-9.50529z" fill="#e4751f" stroke="#e4751f"/><path d="m40.25 48.96 11.5 9.5466384-1.1977334 1.0133616z" fill="#f6851b" stroke="#f6851b"/><path d="m50.7916667 59.52-18.2083334-6.0136253 8.1386755-4.5463747z" fill="#f6851b" stroke="#f6851b"/><path d="m57.5 57.8669925-6.1903186.6930075-8.1846814-12.48z" fill="#f6851b" stroke="#f6851b"/><path d="m59.4166667 64.32-2.7049393 5.3329096-8.7950607 1.3870904z" fill="#c0ad9e" stroke="#c0ad9e"/><path d="m47.7401388 71.04-.7818055-2.4299191 1.9166667-2.3700809z" fill="#c0ad9e" stroke="#c0ad9e"/><path d="m49.1997732 65.9558959 1.5918935-.6758959-2.875 5.76z" fill="#c0ad9e" stroke="#c0ad9e"/><path d="m47.9166667 71.04 2.985677-5.5600724 8.514323-1.1599276z" fill="#c0ad9e" stroke="#c0ad9e"/><g fill="#161616" stroke="#161616"><path d="m58.1731291 57.6 2.2018709 1.2078564-6.7083333.7121436z"/><path d="m52.9727813 59.52-2.1811146-1.2505849 6.7083333-.6694151z"/><path d="m52.7083333 61.4147782 7.6666667-.9347782-1.0621016 3.84z"/><path d="m59.4166667 64.1764256-8.625 1.1035744 1.9035488-3.84z"/><path d="m50.7916667 64.6499363-1.9166667.6300637 1.2386536-5.76z"/><path d="m49.8333333 59.3081608 1.0286744-.7481608 1.8463256.96z"/><path d="m59.7279061 59.52.6470939.8909678-7.6666667 1.0290322z"/><path d="m52.7083333 61.44.6894705-1.101793 6.0188629-.818207z"/><path d="m49.8333333 59.52 2.875 1.3835932-2.192629 4.3764068z"/><path d="m52.7083333 59.7345247-.6534936.7454753-2.2215064-.96z"/></g></g></g></svg>