<svg height="519" viewBox="0 0 691 519" width="691" xmlns="http://www.w3.org/2000/svg" xmlns:xlink="http://www.w3.org/1999/xlink"><linearGradient id="a" x1="58.629245%" x2="41.073596%" y1="-6.214411%" y2="101.217566%"><stop offset="0" stop-color="#1f282f"/><stop offset=".11" stop-color="#1f282f"/><stop offset=".23" stop-color="#1e262d"/><stop offset=".36" stop-color="#1b2329"/><stop offset=".5" stop-color="#192025"/><stop offset=".64" stop-color="#141a1f"/><stop offset=".78" stop-color="#0f1417"/><stop offset=".92" stop-color="#0a0d0f"/><stop offset="1"/></linearGradient><g fill="none" fill-rule="evenodd" transform=""><g fill-rule="nonzero"><path d="m688.440394 219.85697c-16.653019 141.108539-111.826292 240.015749-261.427068 279.385238-118.759291 31.426523-225.794673 26.821904-327.970045-40.428552-93.51488054-61.448636-122.6979726-170.278798-79.4646152-260.34514 59.8863767-124.6930737 226.5317362-111.708049 346.9724532-161.1616536 234.77763-96.3516459 342.87254 4.3743877 321.889275 182.5501076z" fill="#202930"/><path d="m688.390164 220.309735c-16.651815 141.292433-111.818202 240.328539-261.408156 279.749336-118.7507 31.467478-225.778339 26.856858-327.9463191-40.481239-93.50811557-61.528717-122.6890965-170.500708-79.4588667-260.684425 59.8820445-124.8555751 226.5153488-111.8536282 346.9473528-161.3716813 234.760646-96.4772124 342.847736 4.3800885 321.865989 182.7880093z" fill="url(#a)" opacity=".8"/><circle cx="57" cy="254" fill="#f4b7a1" r="7" transform="matrix(.90092559 -.43397359 .43397359 .90092559 -104.582051 49.901395)"/><path d="m524.69378 44v.0238532l-.69378 12.9761468 5-5.6770642z" fill="#199580"/><path d="m526 44 4.040816 8 6.959184-1.7198697-11-6.2540717z" fill="#1aac8c"/><path d="m529.235067 51.7105263-5.235067 6.2894737 7.589595-2.0526316 5.410405-5.9473684z" fill="#22c6a3"/><circle cx="335.5" cy="466.5" fill="#f4b7a1" r="1.5" transform="matrix(.83503997 -.55018929 .55018929 .83503997 -201.319212 261.542362)"/><path d="m640.5 188c1.41813-.124877 2.5-1.206747 2.5-2.5s-1.08187-2.375123-2.5-2.5c-1.41813.124877-2.5 1.206747-2.5 2.5s1.08187 2.375123 2.5 2.5z" fill="#b2b2b2"/><circle cx="574.5" cy="185.5" fill="#1aac8c" r="1.5" transform="matrix(.95481269 -.29720823 .29720823 .95481269 -29.172016 179.128376)"/><circle cx="584" cy="131" fill="#d5cac1" r="3" transform="matrix(.34136403 -.93993117 .93993117 .34136403 261.512423 635.201113)"/><circle cx="513" cy="206" fill="#f4b7a1" r="2" transform="matrix(.98209049 -.18840986 .18840986 .98209049 -29.624851 100.343618)"/><circle cx="358.5" cy="414.5" fill="#bebebe" r="5.5" transform="matrix(.97978528 -.200052 .200052 .97978528 -75.674578 80.097644)"/><path d="m362.966345 414.751534c-.368647 1.088659-1.162072 2.007924-2.222666 2.57519-1.169155.65095-2.567852.839426-3.886217.523673-1.318366-.315753-2.447557-1.109666-3.137407-2.205854-.569245-.878283-.811509-1.907859-.689027-2.928241 0-.519191.422307-1.142221 1.289147-.311515.947282.957261 2.140908 1.672181 3.467358 2.076767 1.463466.464612 3.065414.359836 4.445332-.290747.60012-.373818.86684.103838.73348.560727z" fill="#8c8c8c"/><path d="m67.907338 248.530145c-.3809349-.875863-1.4565159-.515213-2.5096889 0-.7770269.29372-1.5274656.673318-2.2407935 1.133469h-.1568556l.336119.644017h.1568556c.649107-.415088 1.323041-.776647 2.0167142-1.081948 1.2772524-.515213 1.6133714-.437931 1.6805952-.283367s.1120397.953144-2.7561761 3.348886c-.1281094.150254-.1281094.390721 0 .540974.0646177.123928.1910865.186238.3137111.154565.0434966.017679.090951.017679.1344476 0 2.5320968-2.215418 3.4284142-3.503451 3.0250714-4.456596z" fill="#fff"/><path d="m51.4061713 258.73743c-2.8206865 1.345117-4.51734 1.746292-4.7506298 1.463109-.2332899-.283182 0-.825948 3.266058-3.586977l-.2544981-.613562s0 0-.1060408 0c-3.4145152 2.808226-3.8386785 3.822963-3.4357233 4.530919s.8271185.448372 1.633029.283182c1.4652429-.36027 2.8884477-.906617 4.2416337-1.628299l-.2332899-.165189z" fill="#fff"/><path d="m125 370.908654h-.023256.023256-.023256l-14.976744-2.908654.27907 9.975962v.024038z" fill="#b2b2b2"/><path d="m125 371-15 7.195122 7.251185 6.804878 7.725118-13.97561z" fill="#fff"/><circle cx="147" cy="410" fill="#1aac8c" r="4" transform="matrix(.96390978 -.26622912 .26622912 .96390978 -103.848676 53.932672)"/><path d="m150.9949 410.978483c-.145949.831616-.622456 1.586683-1.340322 2.123857-.806171.636623-1.860191.956502-2.928405.888725-1.068214-.067778-2.06237-.517611-2.762082-1.249781-.564237-.596791-.902094-1.341077-.964091-2.123857 0-.403533.164601-.913259.940576-.403533.882692.601455 1.916915.99554 3.009845 1.146883 1.195872.157421 2.410961-.134219 3.362561-.807066.446773-.254863.728946.063716.681918.424772z" fill="#199580"/><path d="m143 161h5v5h-5z" fill="#1aac8c" transform="matrix(.99999925 -.00122173 .00122173 .99999925 -.199644 .177884)"/><path d="m143 171h5v5h-5z" fill="#1aac8c" transform="matrix(.99999925 -.00122173 .00122173 .99999925 -.211862 .177891)"/><path d="m148 166h5v5h-5z" fill="#1aac8c" transform="matrix(-.0010472 -.99999945 .99999945 -.0010472 -17.842304 319.17637)"/><path d="m138 166h5v5h-5z" fill="#1aac8c" transform="matrix(-.0010472 -.99999945 .99999945 -.0010472 -27.852776 309.176376)"/><path d="m138 166h5v5h-5z" fill="#1aac8c" transform="matrix(-.0010472 -.99999945 .99999945 -.0010472 -27.852776 309.176376)"/><circle cx="153" cy="237" fill="#d5cac1" r="3" transform="matrix(.96212289 -.27261611 .27261611 .96212289 -58.81482 50.687139)"/><path d="m337.487554 126.796656c.82051-.352822 1.390466-1.116583 1.49517-2.003582.104705-.886999-.271749-1.762479-.987554-2.296656s-1.662215-.645896-2.482724-.293074c-.82051.352822-1.390466 1.116583-1.49517 2.003582-.104705.886999.271749 1.762479.987554 2.296656s1.662215.645896 2.482724.293074z" fill="#b2b2b2"/><circle cx="288.5" cy="110.5" fill="#1aac8c" r="1.5" transform="matrix(.99149036 -.1301801 .1301801 .99149036 -11.929871 38.497275)"/><circle cx="629" cy="265" fill="#d5cac1" r="3" transform="matrix(.34136403 -.93993117 .93993117 .34136403 165.200265 765.755236)"/><path d="m60.2816874 251.638009c-1.7234028 1.137646-2.3289227 3.04986-4.2386393 3.437144-1.2202111.127069-2.4271557-.347818-3.2604918-1.282878-.3964834-.395973-.76978-.816283-1.1178828-1.258672-.7685445-1.01662-1.6069567 0-1.6535351.774568-.1303537 2.399306.8898352 4.710249 2.7248395 6.172336 2.3194804 1.866182 5.5135413 2.027879 7.9965456.404819 2.4830043-1.623061 3.7261967-4.685248 3.1124156-7.666391-.1347679-.627707-.6235563-1.106965-1.234329-1.210262-.8212726-.056507-1.6381369.164231-2.3289227.629336z" fill="#e79280"/><path d="m47.8384751 260.942844c-.8762966.14361-1.5450492 0-1.7756535-.246188-.2306044-.246188 0-1.497645 3.7357905-3.939011.1345035-.117291.3497656-.117291.4842691 0 .061976.054023.0969009.127965.0969009.205157 0 .077191-.0349249.151134-.0969009.205157-3.6666092 2.42085-3.6666092 3.015805-3.5743674 3.138899.0922417.123094 4.4276035-.594955 10.815344-3.774885l.9685383-.492377c.1599762-.080101.3624235-.035074.4612087.102579.0926523.148519.0426401.335391-.1153022.430829l-.9915987.492376c-3.1311414 1.676268-6.4959225 2.979877-10.0082288 3.877464z" fill="#fff"/><path d="m379 275.445347-122.106435 118.491905c-2.094479 2.04972-5.212702 2.631958-7.901545 1.475385-5.053314-2.120867-13.781765-7.23861-25.725961-19.502753-12.334679-12.794359-17.043449-21.554461-18.835078-26.487782-.971705-2.689081-.268908-5.700364 1.791629-7.676615l122.267222-118.745487" fill="#3d4b56"/><path d="m379 275.445347-122.106435 118.491905c-2.094479 2.04972-5.212702 2.631958-7.901545 1.475385-5.053314-2.120867-13.781765-7.23861-25.725961-19.502753-12.334679-12.794359-17.043449-21.554461-18.835078-26.487782-.971705-2.689081-.268908-5.700364 1.791629-7.676615l122.267222-118.745487" fill="#3d4b56"/><path d="m299 224h23v6h-23z" fill="#3d4b56" transform="matrix(.69553669 .71849058 -.71849058 .69553669 257.633219 -153.978153)"/><path d="m282 241h23v6h-23z" fill="#3d4b56" transform="matrix(.69553669 .71849058 -.71849058 .69553669 264.671682 -136.587937)"/><path d="m313 229h6v6h-6z" fill="#313d47" transform="matrix(.69566208 .71836917 -.71836917 .69566208 262.832431 -156.398262)"/><path d="m295 247h6v6h-6z" fill="#313d47" transform="matrix(.69566208 .71836917 -.71836917 .69566208 270.284993 -137.989534)"/><path d="m345 307h23v6h-23z" fill="#3d4b56" transform="matrix(.69553669 .71849058 -.71849058 .69553669 331.273249 -161.758265)"/><path d="m363 291h23v6h-23z" fill="#3d4b56" transform="matrix(.69553669 .71849058 -.71849058 .69553669 325.257739 -179.562509)"/><path d="m345 307h23v6h-23z" fill="#3d4b56" transform="matrix(.69553669 .71849058 -.71849058 .69553669 331.273249 -161.758265)"/><path d="m345 307h23v6h-23z" fill="#3d4b56" transform="matrix(.69553669 .71849058 -.71849058 .69553669 331.273249 -161.758265)"/><path d="m365 285h6v6h-6z" fill="#313d47" transform="matrix(.69553669 .71849058 -.71849058 .69553669 318.967784 -176.7191)"/><path d="m348 302h6v6h-6z" fill="#313d47" transform="matrix(.69553669 .71849058 -.71849058 .69553669 326.006248 -159.328884)"/><path d="m269.608254 381s-11.506739-1.112098-30.630938-21.129856c-20.551035-21.361542-19.975699-31.509434-19.975699-31.509434l117.368733-114.36071 50.62965 52.616121z" fill="#152128"/><path d="m320 334.399763c-7.531839-2.952099-18.258296-11.277942-29.357848-22.625073-11.099551-11.347132-19.167713-22.232999-21.895964-29.77469l-26.746188 25.600237s.746188 11.531638 20.240359 31.366055c19.49417 19.949734 31.036771 21.033708 31.036771 21.033708z" fill="#3d4b56"/><path d="m318 334.374748c-7.417509-2.954984-17.981144-11.288962-28.91221-22.647182-4.377549-4.515708-8.494889-9.279147-12.331896-14.267033-2.640909-3.462871-8.427943 13.158914-6.292252 31.188933.594978 5.211602 1.973223 10.302261 4.087668 15.098122 3.467628 7.779919 8.221263 12.974227 11.711856 14.590233 1.683081.900035 3.523386 1.464452 5.419604 1.662179z" fill="#313d47"/><rect fill="#3d4b56" height="54" rx="3.36" transform="matrix(.69553669 .71849058 -.71849058 .69553669 213.889558 -126.749268)" width="113" x="200" y="162"/><path d="m272.508571 244.560537-33.508571-35.012988.571429-76.547549 43.428571 45.350376v62.440599l-4.022857 3.931445c-.878514.847405-2.05405 1.306531-3.267463 1.276164-1.213414-.030367-2.365077-.547733-3.201109-1.438047z" fill="#313d47"/><rect fill="#3d4b56" height="54" rx="3.36" transform="matrix(.69553669 .71849058 -.71849058 .69553669 376.039863 -189.401178)" width="113" x="355" y="322"/><path d="m427.508571 404.583472-33.508571-35.041978.571429-76.541494 43.428571 45.387926v62.376573l-4.022857 3.9347c-.872531.85407-2.044621 1.321785-3.257979 1.300078-1.213358-.021708-2.3684-.531058-3.210593-1.415805z" fill="#313d47"/><path d="m437.293597 167.668588c-13.558523-14.008476-26.680415-25.302665-35.71177-31.122278-3.146095-2.412145-7.25812-3.165165-11.053644-2.024213-3.513477 1.838468-6.425022 4.648988-8.387899 8.096853-15.52602 22.613443-12.999089 53.042421 6.043884 72.779664 10.64068 11.018165 25.222393 17.347989 40.530328 17.593943s30.085101-5.612158 41.073595-16.282805c1.309891-1.242131 1.67758-3.128329.505572-6.325666-3.125355-8.510896-15.557831-24.750607-33.000066-42.715498z" fill="#3d4b56"/><path d="m332.023289 219.863242s-.582227 10.0369 20.21491 31.213152c19.46966 19.844122 30.97446 20.923606 30.97446 20.923606l.558937-.528258 3.376915-3.215483c13.437792-12.838963 10.759549-34.451602-2.538508-48.232243-13.181612-13.436124-35.329515-16.766446-48.650862-4.042321-1.187742 1.148387-2.328906 2.296773-3.400203 3.215483l-.558938.528258" fill="#199580"/><path d="m466.51127 215.548294c-3.316882 3.276225-22.760672-11.617818-43.462591-33.366373-20.701918-21.748555-33.855071-41.475609-30.538189-44.728598s21.914296 11.33899 42.661965 32.924895c20.747668 21.585906 34.655697 41.917087 31.338815 45.170076z" fill="#152128"/><circle cx="454.5" cy="151.5" fill="#1aac8c" r="4.5"/><path d="m332.045728 219.885946s-.571595 10.114857 19.845753 31.455585c4.808345 5.120029 10.08272 9.76982 15.753138 13.887676 9.39701 6.642938 29.082718-31.455585 16.00464-45.1118-12.940894-13.540483-34.684341-16.896672-47.762418-4.073718-1.166052 1.157306-2.286377 2.314613-3.33811 3.240458l-.548731.532361" fill="#1aac8c"/><path d="m421.455816 187.284286c-16.505486-17.197068-17.258849 21.980357-10.318783 36.330228 2.114183 4.633202 6.386944 7.924319 11.414583 8.792143 15.989847 2.351271 32.21388-2.354456 44.448384-12.892106-5.958412 2.300535-21.276782-6.94716-45.544184-32.230265z" fill="#313d47"/><path d="m335.0233 216.792537s-.582488 10.069075 20.200673 31.264707c19.478389 19.839296 31.011646 20.942756 31.011646 20.942756l.559188-.528741c14.606318-13.961871 14.981783-36.961098.838783-51.379868-14.13111-14.431004-37.441611-14.83234-52.074402-.896562l-.559188.528741" fill="#313d47"/><path d="m363.520337 206.007257c9.103186.594059 17.653855 4.471783 23.986878 10.878036 13.498216 13.439533 14.039391 34.774269 1.239088 48.848538-.818266.866594-6.873433.8894-20.924225-20.843867-10.380287-16.03199-11.315447-39.361614-4.301741-38.882707z" fill="#3d4b56"/></g><path d="m373 310c.464286.184385 78 80 78 80" stroke="#152128" stroke-linecap="round"/><path d="m445 346-38 36" stroke="#152128" stroke-linecap="round"/><path d="m378 352 38-36" stroke="#152128" stroke-linecap="round"/><path d="m216 148c.464286.207433 78 80 78 80" stroke="#152128" stroke-linecap="round"/><path d="m261 156-38 36" stroke="#152128" stroke-linecap="round"/><path d="m290 186-38 36" stroke="#152128" stroke-linecap="round"/><path d="m234.340709 385.437154c4.656566 4.15473 9.96179 7.528442 15.707795 9.988941 2.730941 1.137199 5.88009.554557 8.017035-1.483277l12.934461-12.399265s-12.631491-6.211221-17.78197-9.270479c-3.44919-2.062682-13.773453-1.807743-20.974801-4.496182-5.989471-2.31762-11.046729.764814-8.622974 6.39663 1.794511 4.032658 8.366615 9.247303 10.720454 11.263632z" fill="#313d47" fill-rule="nonzero"/><path d="m450.003987 151.94154c.022383 1.533717.976108 2.928642 2.474136 3.618688s3.291482.56057 4.652542-.335882c1.36106-.896453 2.063606-2.41095 1.82253-3.928879 0-1.076788-1.530785 1.11986-4.498154 1.335218-2.96737.215357-4.545256-1.830541-4.451054-.689145z" fill="#199580" fill-rule="nonzero"/><circle cx="327.5" cy="303.5" fill="#3d4b56" fill-rule="nonzero" r="2.5"/><path d="m327.7993 301.14418c-1.013352-.316411-2.142557-.10304-2.919563.551671-.777005.654712-1.069372 1.639169-.755914 2.545318.313458.906148 1.179311 1.579536 2.238666 1.741045.718406.180861-.436174-1.039951 0-2.645093.436175-1.605143 2.232188-2.01208 1.436811-2.192941z" fill="#313d47" fill-rule="nonzero"/><circle cx="337.5" cy="292.5" fill="#3d4b56" fill-rule="nonzero" r="2.5"/><path d="m338.789042 290.082355c-1.617078-.352414-3.269422.458736-3.690615 1.811755-.421192 1.35302.548265 2.735547 2.165342 3.087961.762636.182315-.435792-1.048311 0-2.666357s2.36962-2.051044 1.525273-2.233359z" fill="#313d47" fill-rule="nonzero"/><path d="m272 378.658094s-11.353513-1.089797-30.590134-21.123524c-20.523659-21.401771-19.949089-31.53457-19.949089-31.53457l-2.459162 2.318718s-.57457 10.155987 19.949089 31.53457c19.213638 20.033727 30.590134 21.146712 30.590134 21.146712z" fill="#1aac8c" fill-rule="nonzero"/><path d="m270 379s-12.222572-1.836-30.751349-20.4-20.248651-30.6-20.248651-30.6" stroke="#b2b2b2" stroke-linecap="round"/><path d="m382 274s-11.368075-1.610304-30.261815-21.260678c-20.462535-21.377367-19.734978-31.739322-19.734978-31.739322" stroke="#b2b2b2" stroke-linecap="round"/><path d="m438.159583 196 9.833259-37.148672c.009544-.053156.009544-.107562 0-.160718.029328-.319137-.191872-.607803-.510216-.665829-.175407-.048747-.363287-.02496-.520656.065921-.15737.09088-.270765.241078-.314243.416231l-9.647727 36.459884z" fill="#b2b2b2" fill-rule="nonzero"/><path d="m409.961092 168 37.506031-8.665861c.238681-.053664.43019-.228782.502387-.459387.072198-.230605.014115-.481664-.152368-.658605-.166483-.176942-.416075-.252883-.654755-.199219l-38.162387 8.804515z" fill="#b2b2b2" fill-rule="nonzero"/><path d="m423.943837 182 28.821563-27.724995c.298775-.278172.314235-.744552.034531-1.04169s-.748654-.312514-1.047429-.034342l-28.752502 27.839466.460408.480781z" fill="#fff" fill-rule="nonzero"/><path d="m543 317h5v5h-5z" fill="#1aac8c" fill-rule="nonzero" transform="matrix(.99999925 -.00122173 .00122173 .99999925 -.389936 .666692)"/><path d="m543 327h5v5h-5z" fill="#1aac8c" fill-rule="nonzero" transform="matrix(.99999925 -.00122173 .00122173 .99999925 -.402153 .6667)"/><path d="m548 322h5v5h-5z" fill="#1aac8c" fill-rule="nonzero" transform="matrix(-.0010472 -.99999945 .99999945 -.0010472 226.57666 875.339514)"/><path d="m538 322h5v5h-5z" fill="#1aac8c" fill-rule="nonzero" transform="matrix(-.0010472 -.99999945 .99999945 -.0010472 216.566188 865.339519)"/><path d="m538 322h5v5h-5z" fill="#1aac8c" fill-rule="nonzero" transform="matrix(-.0010472 -.99999945 .99999945 -.0010472 216.566188 865.339519)"/><path d="m280.913688 426.561628c1.138605-.780759 1.428698-2.33671.64794-3.475315-.780758-1.138606-2.33671-1.428699-3.475315-.647941-1.138606.780758-1.428699 2.33671-.647941 3.475315.780759 1.138606 2.33671 1.428699 3.475316.647941z" fill="#b2b2b2" fill-rule="nonzero"/><circle cx="224.5" cy="462.5" fill="#1aac8c" fill-rule="nonzero" r="1.5" transform="matrix(.6079303 -.7939904 .7939904 .6079303 -279.200911 359.583082)"/><circle cx="507.5" cy="393.5" fill="#1aac8c" fill-rule="nonzero" r="1.5" transform="matrix(.95481269 -.29720823 .29720823 .95481269 -94.018878 168.614386)"/></g></svg>