<svg height="24" viewBox="0 0 24 24" width="24" xmlns="http://www.w3.org/2000/svg"><g fill="none" transform=""><path d="m21.6 0h-19.2c-1.32495.0013-2.3987 1.07505-2.4 2.4v14.4c.0013 1.32495 1.07505 2.3987 2.4 2.4h3.4228l-.9 2.4h-1.7228c-.2209 0-.4.1791-.4.4v1.6c0 .2209.1791.4.4.4h17.6c.2209 0 .4-.1791.4-.4v-1.6c0-.2209-.1791-.4-.4-.4h-1.7228l-.9-2.4h3.4228c1.32495-.0013 2.3987-1.07505 2.4-2.4v-14.4c-.0013-1.32495-1.07505-2.3987-2.4-2.4zm-1.2 22.4v.8h-16.8v-.8zm-2.1772-.8h-12.4456l.9-2.4h10.6456zm4.9772-4.8c0 .88365-.71635 1.6-1.6 1.6h-19.2c-.88365 0-1.6-.71635-1.6-1.6v-.8h22.4zm0-1.6h-22.4v-12.8c0-.88365.71635-1.6 1.6-1.6h19.2c.88365 0 1.6.71635 1.6 1.6z" fill="#dedede"/><path d="m11.6 16.8h1v1h-1z" fill="#9aa3ad"/><path d="m18.8 3.6c-.66275 0-1.2.53725-1.2 1.2.0007.1782.0417.3539.12.514l-4.806 4.806c-.32385-.16055-.70415-.16055-1.028 0l-2.206-2.206c.0783-.1601.1193-.3358.12-.514 0-.66275-.53725-1.2-1.2-1.2s-1.2.53725-1.2 1.2c.0007.1782.0417.3539.12.514l-1.806 1.806c-.1601-.0783-.3358-.1193-.514-.12-.66275 0-1.2.53725-1.2 1.2s.53725 1.2 1.2 1.2 1.2-.53725 1.2-1.2c-.0007-.1782-.0417-.3539-.12-.514l1.806-1.806c.32385.16055.70415.16055 1.028 0l2.206 2.206c-.0783.1601-.1193.3358-.12.514 0 .66275.53725 1.2 1.2 1.2s1.2-.53725 1.2-1.2c-.0007-.1782-.0417-.3539-.12-.514l4.806-4.806c.1601.0783.3358.1193.514.12.66275 0 1.2-.53725 1.2-1.2s-.53725-1.2-1.2-1.2zm-13.6 7.6c-.2209 0-.4-.1791-.4-.4s.1791-.4.4-.4.4.1791.4.4-.1791.4-.4.4zm3.4-3.4c-.2209 0-.4-.1791-.4-.4s.1791-.4.4-.4.4.1791.4.4-.1791.4-.4.4zm3.8 3.8c-.2209 0-.4-.1791-.4-.4s.1791-.4.4-.4.4.1791.4.4-.1791.4-.4.4zm6.4-6.4c-.2209 0-.4-.1791-.4-.4s.1791-.4.4-.4.4.1791.4.4-.1791.4-.4.4z" fill="#9aa3ad"/><g fill="#12bb9b"><path d="m7.2 11.2h1v1h-1z"/><path d="m10.4 6.4h1v1h-1z"/><path d="m14.4 11.2h1v1h-1z"/><path d="m20.8 3.6h1v1h-1z"/><path d="m2.4 2.4h2.4v1h-2.4z"/><path d="m2.4 4h4.4v1h-4.4z"/><path d="m17.2 11.2h2.4v1h-2.4z"/><path d="m17.2 12.8h4.4v1h-4.4z"/></g></g></svg>