<svg height="175" viewBox="0 0 486 175" width="486" xmlns="http://www.w3.org/2000/svg" xmlns:xlink="http://www.w3.org/1999/xlink"><linearGradient id="a" x1="25.344034%" x2="74.402959%" y1="-24.609567%" y2="102.151555%"><stop offset="0" stop-color="#101a20"/><stop offset=".231035768" stop-color="#121d23"/><stop offset=".48" stop-color="#0b1216"/><stop offset=".957573158" stop-color="#090909"/><stop offset="1" stop-color="#010203"/></linearGradient><g fill="none" transform="translate(0 -1)"><path d="m260 175.67c-58.5.83-65.49-25.28-123.5-35.17-44-7.5-75-29-72.5-71 2.37-39.83 45.5-69.44 124.68-51.92 44.82 9.92 72.37 12.19 116.49 3.63 42.33-8.21 103.33-.1 111.5 42.46 12.66 66-80.67 110.91-156.67 112z" fill="#152128"/><path d="m260 175.67c-58.5.83-65.49-25.28-123.5-35.17-44-7.5-75-29-72.5-71 2.37-39.83 45.5-69.44 124.68-51.92 44.82 9.92 72.37 12.19 116.49 3.63 42.33-8.21 103.33-.1 111.5 42.46 12.66 66-80.67 110.91-156.67 112z" fill="url(#a)"/><path d="m309.66 86.55c-2.500046 17.850237-11.998888 33.97251-26.401103 44.810286-14.402216 10.837775-32.52442 15.500545-50.368897 12.959714-5-.71 19.77 2.15 49.29-26.94 23.67-23.33 28.02-34.68 27.48-30.83z" fill="#cecece"/><path d="m306.34 70.41c0 7.29-28 1.38-63.09 1.38s-63.09 5.91-63.09-1.38 28-13.21 63.09-13.21 63.09 5.91 63.09 13.21z" fill="#cecece"/><ellipse cx="243.25" cy="72.24" fill="#60eac3" rx="61.75" ry="12.93"/><ellipse cx="243.31" cy="73.69" fill="#35dbb3" rx="52.62" ry="11.48"/><ellipse cx="243.09" cy="77.21" fill="#22c6a3" rx="40.66" ry="7.96"/><path d="m268.27 80.45c0 2.61-3.39 4.72-25 4.72-22.24 0-25-2.11-25-4.72s11.06-4.72 25-4.72 25 2.11 25 4.72z" fill="#14a582"/><path d="m231.22 71.26 11.87 1.35.02 14.12-11.57 7.01-7.81-9.81z" fill="#19907a"/><path d="m223.73 83.93.08 5.46 7.17 12.46 4.77 2.9-4.22-11.01z" fill="#199d84"/><path d="m254.95 71.26-11.87 1.35-.02 14.12 11.57 7.01 7.81-9.81z" fill="#35dbb3"/><path d="m262.44 83.93-.08 5.46-7.17 12.46-4.77 2.9 4.22-11.01z" fill="#199d84"/><path d="m254.95 71.27-4.5-3.05h-7.36-7.37l-4.5 3.05 11.87 1.34z" fill="#60eac3"/><path d="m243.09 86.74-11.56 7 4.22 11.01h14.67l4.22-11.01z" fill="#1aac8c"/><path d="m309.54 74.87c-.88574-3.5547566-3.129558-6.62071-6.25-8.54l-1.65 1.12-.06.5c2.21 1.34 3.42 2.77 3.42 4.27 0 7.14-27.37 12.93-61.75 12.93s-61.75-5.79-61.75-12.93c0-1.81 1.75-3.53 4.93-5.09 0-1.72-.3-2.32-1.45-1.81-2.73 1.19-6.7 5.09-7.46 7.34-1.56 4.66-1.88 13.85-1.15 17.75 5.92 31.61 34.64 55.16 68 54.55 29.48-.54 61.19-36.42 65.09-57 .694555-4.3336805.721534-8.748154.08-13.09z" fill="#cecece"/><path d="m303.26 107.3c-13.033756 26.207798-41.391213 41.117929-70.37 37-5-.71 19.77 2.15 49.29-26.94 5.1-5 9.31-9.51 12.76-13.39 12.56-14.11 11.58-3.25 8.32 3.33z" fill="#b2b2b2"/><path d="m.69 68.99h-.01.01l-.69 12.55 4.82-5.5z" fill="#d8d8d8"/><path d="m.69 68.98v.01l4.13 7.05 7.15-1.52-11.28-5.53z" fill="#acacac"/><path d="m4.82 76.03-4.82 5.51 6.99-1.8 4.98-5.22z" fill="#bec0c2"/><g fill="#22c6a3"><path d="m129.09 9.35h2.68v2.68h-2.68z"/><path d="m129.09 14.71h2.68v2.68h-2.68z"/><path d="m131.77 12.04h2.68v2.68h-2.68z" transform="matrix(0 -1 1 0 119.73 146.49)"/><path d="m126.41 12.04h2.68v2.68h-2.68z" transform="matrix(0 -1 1 0 114.37 141.13)"/><path d="m126.41 12.04h2.68v2.68h-2.68z" transform="matrix(0 -1 1 0 114.37 141.13)"/><path d="m458.57 84.78h2.68v2.68h-2.68z"/><path d="m458.57 90.14h2.68v2.68h-2.68z"/><path d="m461.25 87.46h2.68v2.68h-2.68z" transform="matrix(0 -1 1 0 373.79 551.39)"/><path d="m455.89 87.45h2.68v2.68h-2.68z" transform="matrix(0 -1 1 0 368.44 546.02)"/><path d="m455.89 87.45h2.68v2.68h-2.68z" transform="matrix(0 -1 1 0 368.44 546.02)"/></g><path d="m398.08 56.39-10.88 6.72 7.39.83v.01z" fill="#f4b7a1"/><path d="m398.08 56.39-3.49 7.56 5.43 5.09z" fill="#e5a693"/><path d="m394.6 63.94-7.41-.83 5.57 4.8 7.26 1.13z" fill="#e79280"/><circle cx="32.388521" cy="3.288447" fill="#d3d3d3" r="1.87" transform="matrix(.95881973 -.28401534 .28401534 .95881973 .399798 9.334256)"/><path d="m33.54 4.76c-.81462.63512746-1.9898725.48962001-2.625-.325s-.48962-1.98987254.325-2.625c.39-.3.06.82.82 1.8s1.94.82 1.48 1.15z" fill="#b2b2b2"/><path d="m81.14 52.55 3.95 6.38 7.44-.31-4.11-4.68z" fill="#313d47"/><path d="m92.19 45.72 3.95 6.39-3.61 6.51-2.35-5.77z" fill="#4c5b66"/><path d="m92.53 58.62-.34-12.9-11.05 6.83z" fill="#3d4b56"/><path d="m84.67 45.91 7.52-.19-11.05 6.83z" fill="#313d47"/><circle cx="450.728375" cy="5.68521" fill="#d3d3d3" r="2.05" transform="matrix(.99912283 -.04187565 .04187565 .99912283 .157293 18.879532)"/><path d="m451.67 7.46c-.648437.33761598-1.427734.30364897-2.044336-.08910599-.616603-.39275497-.976835-1.08462906-.945-1.815.031834-.73037095.450899-1.38827803 1.099336-1.72589401.48-.25-.1.89.52 2.09s1.9 1.27 1.37 1.54z" fill="#b2b2b2"/><circle cx="108.624226" cy="118.289699" fill="#f4b7a1" r="4.17" transform="matrix(.88837696 -.45911477 .45911477 .88837696 -42.183582 63.074842)"/><path d="m111.57 121.24c-1.052147 1.052147-2.585685 1.463058-4.022945 1.077945s-2.559887-1.50774-2.945-2.945.025798-2.970798 1.077945-4.022945c.77-.78.34 1.8 2.29 3.75s4.45 1.29 3.6 2.14z" fill="#e79280"/><path d="m353.8 24.09 1.16-4.08 4.37-1.08-1.16 4.08z" fill="#acacac"/><path d="m352.02 16.94 2.94 3.07 4.37-1.08-2.94-3.08z" fill="#bec0c2"/><path d="m352.02 16.94-1.16 4.08 2.93 3.07h.01l1.16-4.08z" fill="#d8d8d8"/><circle cx="480.906189" cy="32.905795" fill="#4c5b66" r="5.09" transform="matrix(.96302163 -.26942409 .26942409 .96302163 8.917514 130.784517)"/><path d="m484 36.94c-1.421417 1.2044609-3.388119 1.5341899-5.124641.859176-1.736522-.675014-2.964209-2.2464535-3.198987-4.0947043-.234779-1.8482508.561025-3.6767293 2.073628-4.7644717 1-.83.15 2.23 2.22 4.88s5.23 2.18 4.03 3.12z" fill="#3d4b56"/><path d="m365.1 111.4-4.85.9-3.39-3.99 4.85-.9z" fill="#3d4b56"/><path d="m358.57 116.94 1.68-4.64-3.39-3.99-1.68 4.64z" fill="#313d47"/><path d="m358.57 116.94 4.86-.9 1.67-4.64-4.85.9z" fill="#4c5b66"/></g></svg>