<?xml version="1.0" encoding="UTF-8"?>
<svg width="48px" height="48px" viewBox="0 0 48 48" version="1.1" xmlns="http://www.w3.org/2000/svg" xmlns:xlink="http://www.w3.org/1999/xlink">
    <!-- Generator: Sketch 47.1 (45422) - http://www.bohemiancoding.com/sketch -->
    <title>Icon Borrow</title>
    <desc>Created with Sketch.</desc>
    <defs>
        <circle id="path-1" cx="24" cy="24" r="24"></circle>
        <polygon id="path-2" points="9.9406248 13.1737406 0 9.93223255 9.9406248 0 19.8812496 9.93223255"></polygon>
    </defs>
    <g id="12_Elements" stroke="none" stroke-width="1" fill="none" fill-rule="evenodd">
        <g id="Elements" transform="translate(-268.000000, -966.000000)">
            <g id="Icon-Borrow" transform="translate(268.000000, 966.000000)">
                <g id="Oval-2-Copy-7">
                    <use fill="#202930" fill-rule="evenodd" xlink:href="#path-1"></use>
                    <circle stroke="#9AA3AD" stroke-width="2" cx="24" cy="24" r="23"></circle>
                </g>
                <g id="Group-3" transform="translate(14.000000, 14.000000)" fill-rule="nonzero">
                    <polygon id="Shape" fill="#DEDEDE" transform="translate(9.940693, 9.932764) rotate(45.000000) translate(-9.940693, -9.932764) " points="2.91739314 2.9094646 16.9639921 2.9094646 16.9639921 16.9560636 2.91739314 16.9560636"></polygon>
                    <g id="Shape">
                        <use fill="#9AA3AD" fill-rule="evenodd" xlink:href="#path-2"></use>
                        <path stroke="#9AA3AD" stroke-width="1" d="M9.9406248,12.6478289 L18.9510652,9.7096418 L9.9406248,0.706808361 L0.930184411,9.7096418 L9.9406248,12.6478289 Z"></path>
                    </g>
                    <polygon id="Shape" fill="#202930" points="4 9 8.13114754 9 9.90163934 7.20890332 11.8688525 9 16 9 9.90163934 3"></polygon>
                    <polygon id="Shape" fill="#DEDEDE" style="mix-blend-mode: multiply;" points="9.9406248 19.8644651 9.9406248 0 19.8728574 9.93223255"></polygon>
                </g>
                <rect id="Rectangle-path-Copy" fill="#12BB9B" fill-rule="nonzero" x="20" y="10" width="1" height="1"></rect>
                <rect id="Rectangle-path-Copy-4" fill="#12BB9B" fill-rule="nonzero" x="27" y="39" width="1" height="1"></rect>
                <rect id="Rectangle-path-Copy-2" fill="#12BB9B" fill-rule="nonzero" x="11" y="24" width="1" height="1"></rect>
                <rect id="Rectangle-path-Copy-3" fill="#12BB9B" fill-rule="nonzero" x="37" y="25" width="1" height="1"></rect>
                <g id="Group-2" transform="translate(31.000000, 12.000000)" fill-rule="nonzero" fill="#12BB9B">
                    <rect id="Rectangle-path" x="1" y="0" width="1" height="1"></rect>
                    <rect id="Rectangle-path" x="1" y="2" width="1" height="1"></rect>
                    <rect id="Rectangle-path" x="0" y="1" width="1" height="1"></rect>
                    <rect id="Rectangle-path" x="2" y="1" width="1" height="1"></rect>
                </g>
                <g id="Group-2-Copy" transform="translate(16.000000, 35.000000)" fill-rule="nonzero" fill="#12BB9B">
                    <rect id="Rectangle-path" x="1" y="0" width="1" height="1"></rect>
                    <rect id="Rectangle-path" x="1" y="2" width="1" height="1"></rect>
                    <rect id="Rectangle-path" x="0" y="1" width="1" height="1"></rect>
                    <rect id="Rectangle-path" x="2" y="1" width="1" height="1"></rect>
                </g>
                <g id="Group-2-Copy-2" transform="translate(13.000000, 15.000000)" fill-rule="nonzero" fill="#12BB9B">
                    <rect id="Rectangle-path" x="1" y="0" width="1" height="1"></rect>
                    <rect id="Rectangle-path" x="1" y="2" width="1" height="1"></rect>
                    <rect id="Rectangle-path" x="0" y="1" width="1" height="1"></rect>
                    <rect id="Rectangle-path" x="2" y="1" width="1" height="1"></rect>
                </g>
            </g>
        </g>
    </g>
</svg>