<svg width="48" height="48" viewBox="0 0 48 48" fill="none" xmlns="http://www.w3.org/2000/svg">
<path d="M47 24C47 36.7025 36.7025 47 24 47C11.2975 47 1 36.7025 1 24C1 11.2975 11.2975 1 24 1C36.7025 1 47 11.2975 47 24Z" fill="#202930" stroke="#9AA3AD" stroke-width="2"/>
<path fill-rule="evenodd" clip-rule="evenodd" d="M5.99658 1.62219C5.99768 1.62784 5.99854 1.63354 5.99903 1.63928L5.99951 1.64307L6 1.64688V5.35217C6.00037 5.43057 5.95752 5.50241 5.88941 5.53745L3.08936 6.97839C3.08765 6.97961 3.08557 6.97961 3.08374 6.97961C3.03101 7.00681 2.969 7.00681 2.91626 6.97961C2.91443 6.97839 2.91236 6.97839 2.91065 6.97839L0.110598 5.53745C0.0424828 5.50241 -0.000363882 5.43057 2.32898e-06 5.35217V1.64688C2.32898e-06 1.56888 0.042849 1.49753 0.110598 1.46265L2.91065 0.021698C2.96692 -0.00723267 3.03308 -0.00723267 3.08936 0.021698L5.88941 1.46265C5.90052 1.46918 5.91114 1.47665 5.92102 1.48511L5.92603 1.48859C5.9281 1.4899 5.93018 1.49121 5.93201 1.49292C5.94934 1.509 5.96387 1.52808 5.97486 1.54932C5.97522 1.5502 5.97583 1.55072 5.97644 1.5513C5.97718 1.55203 5.97815 1.55289 5.97901 1.55487C5.97986 1.55664 5.9801 1.55847 5.98047 1.5603C5.98072 1.5621 5.98108 1.56396 5.98181 1.5658C5.98938 1.58374 5.99439 1.60275 5.99658 1.62219ZM3.2002 6.46008L5.6001 5.22498V1.97998L3.2002 3.21506V5.14633C3.2002 5.26001 3.1106 5.35217 3.00012 5.35217C2.88965 5.35217 2.80017 5.26001 2.80017 5.14633V3.21753L0.825564 2.24344C0.737429 2.19287 0.699709 2.08258 0.737673 1.98633C0.779177 1.88095 0.895754 1.83017 0.998171 1.87292L2.99817 2.85873L5.35291 1.64691L3.00012 0.436096L0.400149 1.77411V5.22498L2.80017 6.46008V5.96973C2.80017 5.85605 2.88965 5.76389 3.00012 5.76389C3.1106 5.76389 3.2002 5.85605 3.2002 5.96973V6.46008Z" transform="translate(21 12)" fill="#DEDEDE"/>
<path d="M6.10724 0.0674073C5.93029 -0.0510381 5.7198 -0.0613719 5.5539 -0.0426005C5.39287 -0.0243793 5.26664 0.0220487 5.23852 0.0333762L0.703642 1.38154C0.335011 1.48103 -0.05 1.78533 -0.05 2.24947V8.24994C-0.05 8.69155 0.312374 9.05 0.756944 9.05H8.02354C8.46809 9.05 8.83049 8.69157 8.83049 8.24994V6.74982C8.83046 6.63898 8.73983 6.54982 8.62909 6.54982C8.51835 6.54982 8.42771 6.63898 8.42771 6.74982V8.24994C8.42771 8.47001 8.24675 8.64997 8.02354 8.64997H0.756944C0.533734 8.64997 0.352781 8.47001 0.352781 8.24994V2.24947C0.352781 2.12988 0.408629 2.0256 0.495639 1.94193C0.582992 1.85792 0.699615 1.79707 0.813398 1.76641L0.813402 1.76643L0.814644 1.76606L5.36943 0.411452L5.36949 0.411651L5.37373 0.409957C5.41556 0.393244 5.50854 0.365367 5.61018 0.355147C5.71366 0.344742 5.8147 0.353833 5.88218 0.399064L5.88221 0.399081C5.95754 0.449515 6.00551 0.559279 6.00551 0.749361C6.00551 0.860204 6.09615 0.949367 6.20689 0.949367C6.31764 0.949367 6.40828 0.860205 6.40828 0.749361C6.40828 0.438096 6.31073 0.203552 6.10724 0.0674073ZM6.10724 0.0674073L6.07943 0.108958M6.10724 0.0674073C6.10724 0.067405 6.10723 0.067403 6.10723 0.0674008L6.07943 0.108958M6.07943 0.108958C6.26441 0.232717 6.35828 0.448295 6.35828 0.749361C6.35828 0.832161 6.29045 0.899367 6.20689 0.899367C6.12333 0.899367 6.05551 0.832161 6.05551 0.749361C6.05551 0.554053 6.0066 0.422189 5.91002 0.357532L5.25512 0.0806021C5.29342 0.0647102 5.7538 -0.10901 6.07943 0.108958Z" transform="translate(8 19)" fill="#DEDEDE" stroke="#DEDEDE" stroke-width="0.1"/>
<mask id="path-4-outside-1" maskUnits="userSpaceOnUse" x="-1" y="-1" width="10" height="7" fill="black">
<rect fill="white" x="-1" y="-1" width="10" height="7"/>
<path fill-rule="evenodd" clip-rule="evenodd" d="M8.04361 1.98745V3.96591C8.20792 3.96591 8.34146 4.10241 8.34146 4.27029V5.18341C8.34146 5.35128 8.20792 5.48779 8.04361 5.48779H4.76663C4.60233 5.48779 4.46866 5.35128 4.46866 5.18341V4.27029C4.46866 4.10241 4.60233 3.96591 4.76663 3.96591H7.74564V1.98745C7.74564 1.73571 7.5452 1.53088 7.29886 1.53088H0.14908C0.0721761 1.53088 0.00796712 1.47107 0.000642906 1.393C-0.00643717 1.31491 0.0456869 1.24383 0.121126 1.22924L6.37723 0.0117152C6.38553 0.00973157 6.67972 -0.0531041 6.90738 0.133908C7.06827 0.266323 7.14981 0.480313 7.14981 0.769924C7.14981 0.853909 7.08316 0.922116 7.00089 0.922116C6.91873 0.922116 6.85196 0.853909 6.85196 0.769924C6.85196 0.578152 6.80838 0.444393 6.72208 0.372402C6.6066 0.276089 6.43741 0.309689 6.43595 0.310147L1.72708 1.2265H7.29886C7.70951 1.2265 8.04361 1.56787 8.04361 1.98745ZM4.76663 4.27026V5.18341H8.04373L8.04361 4.27026H4.76663Z"/>
</mask>
<path fill-rule="evenodd" clip-rule="evenodd" d="M8.04361 1.98745V3.96591C8.20792 3.96591 8.34146 4.10241 8.34146 4.27029V5.18341C8.34146 5.35128 8.20792 5.48779 8.04361 5.48779H4.76663C4.60233 5.48779 4.46866 5.35128 4.46866 5.18341V4.27029C4.46866 4.10241 4.60233 3.96591 4.76663 3.96591H7.74564V1.98745C7.74564 1.73571 7.5452 1.53088 7.29886 1.53088H0.14908C0.0721761 1.53088 0.00796712 1.47107 0.000642906 1.393C-0.00643717 1.31491 0.0456869 1.24383 0.121126 1.22924L6.37723 0.0117152C6.38553 0.00973157 6.67972 -0.0531041 6.90738 0.133908C7.06827 0.266323 7.14981 0.480313 7.14981 0.769924C7.14981 0.853909 7.08316 0.922116 7.00089 0.922116C6.91873 0.922116 6.85196 0.853909 6.85196 0.769924C6.85196 0.578152 6.80838 0.444393 6.72208 0.372402C6.6066 0.276089 6.43741 0.309689 6.43595 0.310147L1.72708 1.2265H7.29886C7.70951 1.2265 8.04361 1.56787 8.04361 1.98745ZM4.76663 4.27026V5.18341H8.04373L8.04361 4.27026H4.76663Z" transform="translate(8.65857 19.8781)" fill="#DEDEDE"/>
<path d="M8.04361 3.96591H7.94361V4.06591H8.04361V3.96591ZM7.74564 3.96591V4.06591H7.84564V3.96591H7.74564ZM0.000642906 1.393L-0.0989491 1.40203L-0.0989198 1.40234L0.000642906 1.393ZM0.121126 1.22924L0.140111 1.32743L0.140229 1.3274L0.121126 1.22924ZM6.37723 0.0117152L6.39635 0.109962L6.40047 0.108977L6.37723 0.0117152ZM6.90738 0.133908L6.97093 0.0566955L6.97086 0.0566357L6.90738 0.133908ZM6.72208 0.372402L6.78613 0.295612L6.78613 0.295607L6.72208 0.372402ZM6.43595 0.310147L6.45517 0.40891L6.46577 0.405595L6.43595 0.310147ZM1.72708 1.2265L1.70798 1.12834L1.72708 1.3265V1.2265ZM4.76663 5.18341H4.66663V5.28341H4.76663V5.18341ZM4.76663 4.27026V4.17026H4.66663V4.27026H4.76663ZM8.04373 5.18341V5.28341H8.14375L8.14373 5.18339L8.04373 5.18341ZM8.04361 4.27026L8.14361 4.27025L8.1436 4.17026H8.04361V4.27026ZM8.14361 3.96591V1.98745H7.94361V3.96591H8.14361ZM8.44146 4.27029C8.44146 4.04925 8.26519 3.86591 8.04361 3.86591V4.06591C8.15065 4.06591 8.24146 4.15558 8.24146 4.27029H8.44146ZM8.44146 5.18341V4.27029H8.24146V5.18341H8.44146ZM8.04361 5.58779C8.26519 5.58779 8.44146 5.40445 8.44146 5.18341H8.24146C8.24146 5.29812 8.15065 5.38779 8.04361 5.38779V5.58779ZM4.76663 5.58779H8.04361V5.38779H4.76663V5.58779ZM4.36866 5.18341C4.36866 5.4045 4.54511 5.58779 4.76663 5.58779V5.38779C4.65954 5.38779 4.56866 5.29806 4.56866 5.18341H4.36866ZM4.36866 4.27029V5.18341H4.56866V4.27029H4.36866ZM4.76663 3.86591C4.54511 3.86591 4.36866 4.04919 4.36866 4.27029H4.56866C4.56866 4.15563 4.65954 4.06591 4.76663 4.06591V3.86591ZM7.74564 3.86591H4.76663V4.06591H7.74564V3.86591ZM7.64564 1.98745V3.96591H7.84564V1.98745H7.64564ZM7.29886 1.63088C7.48794 1.63088 7.64564 1.78889 7.64564 1.98745H7.84564C7.84564 1.68254 7.60246 1.43088 7.29886 1.43088V1.63088ZM0.14908 1.63088H7.29886V1.43088H0.14908V1.63088ZM-0.0989198 1.40234C-0.0869499 1.52992 0.018711 1.63088 0.14908 1.63088V1.43088C0.125641 1.43088 0.102884 1.41221 0.100206 1.38366L-0.0989198 1.40234ZM0.102141 1.13106C-0.0256057 1.15577 -0.110487 1.27476 -0.0989486 1.40203L0.100234 1.38397C0.0976129 1.35506 0.116979 1.3319 0.140111 1.32743L0.102141 1.13106ZM6.35813 -0.0864432L0.102023 1.13109L0.140229 1.3274L6.39633 0.109874L6.35813 -0.0864432ZM6.97086 0.0566357C6.83597 -0.0541668 6.68322 -0.0894513 6.56723 -0.0978036C6.45159 -0.10613 6.36547 -0.0882897 6.35399 -0.0855462L6.40047 0.108977C6.39729 0.109736 6.46241 0.0951669 6.55286 0.10168C6.64295 0.108167 6.75113 0.13497 6.84391 0.211179L6.97086 0.0566357ZM7.24981 0.769924C7.24981 0.462678 7.16293 0.214722 6.97093 0.0566955L6.84383 0.21112C6.9736 0.317925 7.04981 0.497947 7.04981 0.769924H7.24981ZM7.00089 1.02212C7.14046 1.02212 7.24981 0.90704 7.24981 0.769924H7.04981C7.04981 0.800777 7.02586 0.822116 7.00089 0.822116V1.02212ZM6.75196 0.769924C6.75196 0.907094 6.86148 1.02212 7.00089 1.02212V0.822116C6.97598 0.822116 6.95196 0.800723 6.95196 0.769924H6.75196ZM6.65802 0.449193C6.70957 0.492192 6.75196 0.587522 6.75196 0.769924H6.95196C6.95196 0.568782 6.90719 0.396595 6.78613 0.295612L6.65802 0.449193ZM6.46577 0.405595C6.46335 0.406351 6.46144 0.406844 6.46092 0.406977C6.46011 0.407186 6.45946 0.407343 6.45909 0.407431C6.45833 0.40761 6.45775 0.407738 6.45748 0.407796C6.4569 0.407923 6.4565 0.408005 6.45637 0.408031C6.45605 0.408095 6.45599 0.408105 6.45621 0.408065C6.45661 0.407991 6.45764 0.407808 6.45925 0.407558C6.46247 0.407059 6.46771 0.406337 6.47455 0.405683C6.48837 0.404361 6.50786 0.403396 6.52998 0.404788C6.57589 0.407678 6.62302 0.420002 6.65803 0.449198L6.78613 0.295607C6.70566 0.22849 6.61045 0.209457 6.54254 0.205183C6.50773 0.202992 6.47744 0.204494 6.45551 0.206591C6.44448 0.207646 6.43536 0.208872 6.42859 0.209922C6.42521 0.210446 6.42235 0.210938 6.42006 0.21136C6.41893 0.211567 6.41782 0.21178 6.41677 0.211992C6.41627 0.212092 6.41558 0.212235 6.41479 0.212407C6.41442 0.212487 6.41375 0.212635 6.41294 0.212828C6.41253 0.212924 6.41185 0.213087 6.41102 0.213303C6.41048 0.213441 6.40855 0.213939 6.40612 0.214699L6.46577 0.405595ZM1.74619 1.32466L6.45505 0.408305L6.41684 0.211988L1.70798 1.12834L1.74619 1.32466ZM7.29886 1.1265H1.72708V1.3265H7.29886V1.1265ZM8.14361 1.98745C8.14361 1.51468 7.76675 1.1265 7.29886 1.1265V1.3265C7.65226 1.3265 7.94361 1.62106 7.94361 1.98745H8.14361ZM4.86663 5.18341V4.27026H4.66663V5.18341H4.86663ZM8.04373 5.08341H4.76663V5.28341H8.04373V5.08341ZM7.94361 4.27027L7.94373 5.18342L8.14373 5.18339L8.14361 4.27025L7.94361 4.27027ZM4.76663 4.37026H8.04361V4.17026H4.76663V4.37026Z" transform="translate(8.65857 19.8781)" fill="#DEDEDE" mask="url(#path-4-outside-1)"/>
<path d="M0.493907 0.342857C0.584778 0.342857 0.658537 0.266053 0.658537 0.171429C0.658537 0.0768043 0.584778 0 0.493907 0H0.164629C0.0737581 0 0 0.0768043 0 0.171429C0 0.266053 0.0737581 0.342857 0.164629 0.342857H0.493907Z" transform="translate(15.2856 22)" fill="#DEDEDE"/>
<path d="M0.493907 0.342857C0.584778 0.342857 0.658537 0.266053 0.658537 0.171429C0.658537 0.0768043 0.584778 0 0.493907 0H0.164629C0.0737581 0 0 0.0768043 0 0.171429C0 0.266053 0.0737581 0.342857 0.164629 0.342857H0.493907Z" transform="translate(15.2856 26.7143)" fill="#DEDEDE"/>
<path d="M0.493907 0.342857C0.584778 0.342857 0.658537 0.266053 0.658537 0.171429C0.658537 0.0768043 0.584778 0 0.493907 0H0.164629C0.0737581 0 0 0.0768043 0 0.171429C0 0.266053 0.0737581 0.342857 0.164629 0.342857H0.493907Z" transform="translate(14 22)" fill="#DEDEDE"/>
<path d="M0.493907 0.342857C0.584778 0.342857 0.658537 0.266053 0.658537 0.171429C0.658537 0.0768043 0.584778 0 0.493907 0H0.164629C0.0737581 0 0 0.0768043 0 0.171429C0 0.266053 0.0737581 0.342857 0.164629 0.342857H0.493907Z" transform="translate(14 26.7143)" fill="#DEDEDE"/>
<path d="M0.493907 0.342857C0.584778 0.342857 0.658537 0.266053 0.658537 0.171429C0.658537 0.0768043 0.584778 0 0.493907 0H0.164629C0.0737581 0 0 0.0768043 0 0.171429C0 0.266053 0.0737581 0.342857 0.164629 0.342857H0.493907Z" transform="translate(12.7144 22)" fill="#DEDEDE"/>
<path d="M0.493907 0.342857C0.584778 0.342857 0.658537 0.266053 0.658537 0.171429C0.658537 0.0768043 0.584778 0 0.493907 0H0.164629C0.0737581 0 0 0.0768043 0 0.171429C0 0.266053 0.0737581 0.342857 0.164629 0.342857H0.493907Z" transform="translate(12.7144 26.7143)" fill="#DEDEDE"/>
<path d="M0.493907 0.342857C0.584778 0.342857 0.658537 0.266053 0.658537 0.171429C0.658537 0.0768043 0.584778 0 0.493907 0H0.164629C0.0737581 0 0 0.0768043 0 0.171429C0 0.266053 0.0737581 0.342857 0.164629 0.342857H0.493907Z" transform="translate(11.4286 22)" fill="#DEDEDE"/>
<path d="M0.493907 0.342857C0.584778 0.342857 0.658537 0.266053 0.658537 0.171429C0.658537 0.0768043 0.584778 0 0.493907 0H0.164629C0.0737581 0 0 0.0768043 0 0.171429C0 0.266053 0.0737581 0.342857 0.164629 0.342857H0.493907Z" transform="translate(11.4286 26.7143)" fill="#DEDEDE"/>
<path d="M0.493907 0.342857C0.584778 0.342857 0.658537 0.266053 0.658537 0.171429C0.658537 0.0768043 0.584778 0 0.493907 0H0.164629C0.0737581 0 0 0.0768043 0 0.171429C0 0.266053 0.0737581 0.342857 0.164629 0.342857H0.493907Z" transform="translate(10.1428 22)" fill="#DEDEDE"/>
<path d="M0.493907 0.342857C0.584778 0.342857 0.658537 0.266053 0.658537 0.171429C0.658537 0.0768043 0.584778 0 0.493907 0H0.164629C0.0737581 0 0 0.0768043 0 0.171429C0 0.266053 0.0737581 0.342857 0.164629 0.342857H0.493907Z" transform="translate(10.1428 26.7143)" fill="#DEDEDE"/>
<path d="M0.493907 0.342857C0.584778 0.342857 0.658537 0.266053 0.658537 0.171429C0.658537 0.0768043 0.584778 0 0.493907 0H0.164629C0.0737581 0 0 0.0768043 0 0.171429C0 0.266053 0.0737581 0.342857 0.164629 0.342857H0.493907Z" transform="translate(8.85718 22)" fill="#DEDEDE"/>
<path d="M0.493907 0.342857C0.584778 0.342857 0.658537 0.266053 0.658537 0.171429C0.658537 0.0768043 0.584778 0 0.493907 0H0.164629C0.0737581 0 0 0.0768043 0 0.171429C0 0.266053 0.0737581 0.342857 0.164629 0.342857H0.493907Z" transform="translate(8.85718 26.7143)" fill="#DEDEDE"/>
<path d="M6.10724 0.0674073C5.93029 -0.0510381 5.7198 -0.0613719 5.5539 -0.0426005C5.39287 -0.0243793 5.26664 0.0220487 5.23852 0.0333762L0.703642 1.38154C0.335011 1.48103 -0.05 1.78533 -0.05 2.24947V8.24994C-0.05 8.69155 0.312374 9.05 0.756944 9.05H8.02354C8.46809 9.05 8.83049 8.69157 8.83049 8.24994V6.74982C8.83046 6.63898 8.73983 6.54982 8.62909 6.54982C8.51835 6.54982 8.42771 6.63898 8.42771 6.74982V8.24994C8.42771 8.47001 8.24675 8.64997 8.02354 8.64997H0.756944C0.533734 8.64997 0.352781 8.47001 0.352781 8.24994V2.24947C0.352781 2.12988 0.408629 2.0256 0.495639 1.94193C0.582992 1.85792 0.699615 1.79707 0.813398 1.76641L0.813402 1.76643L0.814644 1.76606L5.36943 0.411452L5.36949 0.411651L5.37373 0.409957C5.41556 0.393244 5.50854 0.365367 5.61018 0.355147C5.71366 0.344742 5.8147 0.353833 5.88218 0.399064L5.88221 0.399081C5.95754 0.449515 6.00551 0.559279 6.00551 0.749361C6.00551 0.860204 6.09615 0.949367 6.20689 0.949367C6.31764 0.949367 6.40828 0.860205 6.40828 0.749361C6.40828 0.438096 6.31073 0.203552 6.10724 0.0674073ZM6.10724 0.0674073L6.07943 0.108958M6.10724 0.0674073C6.10724 0.067405 6.10723 0.067403 6.10723 0.0674008L6.07943 0.108958M6.07943 0.108958C6.26441 0.232717 6.35828 0.448295 6.35828 0.749361C6.35828 0.832161 6.29045 0.899367 6.20689 0.899367C6.12333 0.899367 6.05551 0.832161 6.05551 0.749361C6.05551 0.554053 6.0066 0.422189 5.91002 0.357532L5.25512 0.0806021C5.29342 0.0647102 5.7538 -0.10901 6.07943 0.108958Z" transform="translate(32 19)" fill="#DEDEDE" stroke="#DEDEDE" stroke-width="0.1"/>
<mask id="path-19-outside-2" maskUnits="userSpaceOnUse" x="-1" y="-1" width="10" height="7" fill="black">
<rect fill="white" x="-1" y="-1" width="10" height="7"/>
<path fill-rule="evenodd" clip-rule="evenodd" d="M8.04361 1.98745V3.96591C8.20792 3.96591 8.34146 4.10241 8.34146 4.27029V5.18341C8.34146 5.35128 8.20792 5.48779 8.04361 5.48779H4.76663C4.60233 5.48779 4.46866 5.35128 4.46866 5.18341V4.27029C4.46866 4.10241 4.60233 3.96591 4.76663 3.96591H7.74564V1.98745C7.74564 1.73571 7.5452 1.53088 7.29886 1.53088H0.14908C0.0721761 1.53088 0.00796712 1.47107 0.000642906 1.393C-0.00643717 1.31491 0.0456869 1.24383 0.121126 1.22924L6.37723 0.0117152C6.38553 0.00973157 6.67972 -0.0531041 6.90738 0.133908C7.06827 0.266323 7.14981 0.480313 7.14981 0.769924C7.14981 0.853909 7.08316 0.922116 7.00089 0.922116C6.91873 0.922116 6.85196 0.853909 6.85196 0.769924C6.85196 0.578152 6.80838 0.444393 6.72208 0.372402C6.6066 0.276089 6.43741 0.309689 6.43595 0.310147L1.72708 1.2265H7.29886C7.70951 1.2265 8.04361 1.56787 8.04361 1.98745ZM4.76663 4.27026V5.18341H8.04373L8.04361 4.27026H4.76663Z"/>
</mask>
<path fill-rule="evenodd" clip-rule="evenodd" d="M8.04361 1.98745V3.96591C8.20792 3.96591 8.34146 4.10241 8.34146 4.27029V5.18341C8.34146 5.35128 8.20792 5.48779 8.04361 5.48779H4.76663C4.60233 5.48779 4.46866 5.35128 4.46866 5.18341V4.27029C4.46866 4.10241 4.60233 3.96591 4.76663 3.96591H7.74564V1.98745C7.74564 1.73571 7.5452 1.53088 7.29886 1.53088H0.14908C0.0721761 1.53088 0.00796712 1.47107 0.000642906 1.393C-0.00643717 1.31491 0.0456869 1.24383 0.121126 1.22924L6.37723 0.0117152C6.38553 0.00973157 6.67972 -0.0531041 6.90738 0.133908C7.06827 0.266323 7.14981 0.480313 7.14981 0.769924C7.14981 0.853909 7.08316 0.922116 7.00089 0.922116C6.91873 0.922116 6.85196 0.853909 6.85196 0.769924C6.85196 0.578152 6.80838 0.444393 6.72208 0.372402C6.6066 0.276089 6.43741 0.309689 6.43595 0.310147L1.72708 1.2265H7.29886C7.70951 1.2265 8.04361 1.56787 8.04361 1.98745ZM4.76663 4.27026V5.18341H8.04373L8.04361 4.27026H4.76663Z" transform="translate(32.6586 19.8781)" fill="#DEDEDE"/>
<path d="M8.04361 3.96591H7.94361V4.06591H8.04361V3.96591ZM7.74564 3.96591V4.06591H7.84564V3.96591H7.74564ZM0.000642906 1.393L-0.0989491 1.40203L-0.0989198 1.40234L0.000642906 1.393ZM0.121126 1.22924L0.140111 1.32743L0.140229 1.3274L0.121126 1.22924ZM6.37723 0.0117152L6.39635 0.109962L6.40047 0.108977L6.37723 0.0117152ZM6.90738 0.133908L6.97093 0.0566955L6.97086 0.0566357L6.90738 0.133908ZM6.72208 0.372402L6.78613 0.295612L6.78613 0.295607L6.72208 0.372402ZM6.43595 0.310147L6.45517 0.40891L6.46577 0.405595L6.43595 0.310147ZM1.72708 1.2265L1.70798 1.12834L1.72708 1.3265V1.2265ZM4.76663 5.18341H4.66663V5.28341H4.76663V5.18341ZM4.76663 4.27026V4.17026H4.66663V4.27026H4.76663ZM8.04373 5.18341V5.28341H8.14375L8.14373 5.18339L8.04373 5.18341ZM8.04361 4.27026L8.14361 4.27025L8.1436 4.17026H8.04361V4.27026ZM8.14361 3.96591V1.98745H7.94361V3.96591H8.14361ZM8.44146 4.27029C8.44146 4.04925 8.26519 3.86591 8.04361 3.86591V4.06591C8.15065 4.06591 8.24146 4.15558 8.24146 4.27029H8.44146ZM8.44146 5.18341V4.27029H8.24146V5.18341H8.44146ZM8.04361 5.58779C8.26519 5.58779 8.44146 5.40445 8.44146 5.18341H8.24146C8.24146 5.29812 8.15065 5.38779 8.04361 5.38779V5.58779ZM4.76663 5.58779H8.04361V5.38779H4.76663V5.58779ZM4.36866 5.18341C4.36866 5.4045 4.54511 5.58779 4.76663 5.58779V5.38779C4.65954 5.38779 4.56866 5.29806 4.56866 5.18341H4.36866ZM4.36866 4.27029V5.18341H4.56866V4.27029H4.36866ZM4.76663 3.86591C4.54511 3.86591 4.36866 4.04919 4.36866 4.27029H4.56866C4.56866 4.15563 4.65954 4.06591 4.76663 4.06591V3.86591ZM7.74564 3.86591H4.76663V4.06591H7.74564V3.86591ZM7.64564 1.98745V3.96591H7.84564V1.98745H7.64564ZM7.29886 1.63088C7.48794 1.63088 7.64564 1.78889 7.64564 1.98745H7.84564C7.84564 1.68254 7.60246 1.43088 7.29886 1.43088V1.63088ZM0.14908 1.63088H7.29886V1.43088H0.14908V1.63088ZM-0.0989198 1.40234C-0.0869499 1.52992 0.018711 1.63088 0.14908 1.63088V1.43088C0.125641 1.43088 0.102884 1.41221 0.100206 1.38366L-0.0989198 1.40234ZM0.102141 1.13106C-0.0256057 1.15577 -0.110487 1.27476 -0.0989486 1.40203L0.100234 1.38397C0.0976129 1.35506 0.116979 1.3319 0.140111 1.32743L0.102141 1.13106ZM6.35813 -0.0864432L0.102023 1.13109L0.140229 1.3274L6.39633 0.109874L6.35813 -0.0864432ZM6.97086 0.0566357C6.83597 -0.0541668 6.68322 -0.0894513 6.56723 -0.0978036C6.45159 -0.10613 6.36547 -0.0882897 6.35399 -0.0855462L6.40047 0.108977C6.39729 0.109736 6.46241 0.0951669 6.55286 0.10168C6.64295 0.108167 6.75113 0.13497 6.84391 0.211179L6.97086 0.0566357ZM7.24981 0.769924C7.24981 0.462678 7.16293 0.214722 6.97093 0.0566955L6.84383 0.21112C6.9736 0.317925 7.04981 0.497947 7.04981 0.769924H7.24981ZM7.00089 1.02212C7.14046 1.02212 7.24981 0.90704 7.24981 0.769924H7.04981C7.04981 0.800777 7.02586 0.822116 7.00089 0.822116V1.02212ZM6.75196 0.769924C6.75196 0.907094 6.86148 1.02212 7.00089 1.02212V0.822116C6.97598 0.822116 6.95196 0.800723 6.95196 0.769924H6.75196ZM6.65802 0.449193C6.70957 0.492192 6.75196 0.587522 6.75196 0.769924H6.95196C6.95196 0.568782 6.90719 0.396595 6.78613 0.295612L6.65802 0.449193ZM6.46577 0.405595C6.46335 0.406351 6.46144 0.406844 6.46092 0.406977C6.46011 0.407186 6.45946 0.407343 6.45909 0.407431C6.45833 0.40761 6.45775 0.407738 6.45748 0.407796C6.4569 0.407923 6.4565 0.408005 6.45637 0.408031C6.45605 0.408095 6.45599 0.408105 6.45621 0.408065C6.45661 0.407991 6.45764 0.407808 6.45925 0.407558C6.46247 0.407059 6.46771 0.406337 6.47455 0.405683C6.48837 0.404361 6.50786 0.403396 6.52998 0.404788C6.57589 0.407678 6.62302 0.420002 6.65803 0.449198L6.78613 0.295607C6.70566 0.22849 6.61045 0.209457 6.54254 0.205183C6.50773 0.202992 6.47744 0.204494 6.45551 0.206591C6.44448 0.207646 6.43536 0.208872 6.42859 0.209922C6.42521 0.210446 6.42235 0.210938 6.42006 0.21136C6.41893 0.211567 6.41782 0.21178 6.41677 0.211992C6.41627 0.212092 6.41558 0.212235 6.41479 0.212407C6.41442 0.212487 6.41375 0.212635 6.41294 0.212828C6.41253 0.212924 6.41185 0.213087 6.41102 0.213303C6.41048 0.213441 6.40855 0.213939 6.40612 0.214699L6.46577 0.405595ZM1.74619 1.32466L6.45505 0.408305L6.41684 0.211988L1.70798 1.12834L1.74619 1.32466ZM7.29886 1.1265H1.72708V1.3265H7.29886V1.1265ZM8.14361 1.98745C8.14361 1.51468 7.76675 1.1265 7.29886 1.1265V1.3265C7.65226 1.3265 7.94361 1.62106 7.94361 1.98745H8.14361ZM4.86663 5.18341V4.27026H4.66663V5.18341H4.86663ZM8.04373 5.08341H4.76663V5.28341H8.04373V5.08341ZM7.94361 4.27027L7.94373 5.18342L8.14373 5.18339L8.14361 4.27025L7.94361 4.27027ZM4.76663 4.37026H8.04361V4.17026H4.76663V4.37026Z" transform="translate(32.6586 19.8781)" fill="#DEDEDE" mask="url(#path-19-outside-2)"/>
<path d="M0.493907 0.342857C0.584778 0.342857 0.658537 0.266053 0.658537 0.171429C0.658537 0.0768043 0.584778 0 0.493907 0H0.164629C0.0737581 0 0 0.0768043 0 0.171429C0 0.266053 0.0737581 0.342857 0.164629 0.342857H0.493907Z" transform="translate(39.2856 22)" fill="#DEDEDE"/>
<path d="M0.493907 0.342857C0.584778 0.342857 0.658537 0.266053 0.658537 0.171429C0.658537 0.0768043 0.584778 0 0.493907 0H0.164629C0.0737581 0 0 0.0768043 0 0.171429C0 0.266053 0.0737581 0.342857 0.164629 0.342857H0.493907Z" transform="translate(39.2856 26.7143)" fill="#DEDEDE"/>
<path d="M0.493907 0.342857C0.584778 0.342857 0.658537 0.266053 0.658537 0.171429C0.658537 0.0768043 0.584778 0 0.493907 0H0.164629C0.0737581 0 0 0.0768043 0 0.171429C0 0.266053 0.0737581 0.342857 0.164629 0.342857H0.493907Z" transform="translate(38 22)" fill="#DEDEDE"/>
<path d="M0.493907 0.342857C0.584778 0.342857 0.658537 0.266053 0.658537 0.171429C0.658537 0.0768043 0.584778 0 0.493907 0H0.164629C0.0737581 0 0 0.0768043 0 0.171429C0 0.266053 0.0737581 0.342857 0.164629 0.342857H0.493907Z" transform="translate(38 26.7143)" fill="#DEDEDE"/>
<path d="M0.493907 0.342857C0.584778 0.342857 0.658537 0.266053 0.658537 0.171429C0.658537 0.0768043 0.584778 0 0.493907 0H0.164629C0.0737581 0 0 0.0768043 0 0.171429C0 0.266053 0.0737581 0.342857 0.164629 0.342857H0.493907Z" transform="translate(36.7144 22)" fill="#DEDEDE"/>
<path d="M0.493907 0.342857C0.584778 0.342857 0.658537 0.266053 0.658537 0.171429C0.658537 0.0768043 0.584778 0 0.493907 0H0.164629C0.0737581 0 0 0.0768043 0 0.171429C0 0.266053 0.0737581 0.342857 0.164629 0.342857H0.493907Z" transform="translate(36.7144 26.7143)" fill="#DEDEDE"/>
<path d="M0.493907 0.342857C0.584778 0.342857 0.658537 0.266053 0.658537 0.171429C0.658537 0.0768043 0.584778 0 0.493907 0H0.164629C0.0737581 0 0 0.0768043 0 0.171429C0 0.266053 0.0737581 0.342857 0.164629 0.342857H0.493907Z" transform="translate(35.4286 22)" fill="#DEDEDE"/>
<path d="M0.493907 0.342857C0.584778 0.342857 0.658537 0.266053 0.658537 0.171429C0.658537 0.0768043 0.584778 0 0.493907 0H0.164629C0.0737581 0 0 0.0768043 0 0.171429C0 0.266053 0.0737581 0.342857 0.164629 0.342857H0.493907Z" transform="translate(35.4286 26.7143)" fill="#DEDEDE"/>
<path d="M0.493907 0.342857C0.584778 0.342857 0.658537 0.266053 0.658537 0.171429C0.658537 0.0768043 0.584778 0 0.493907 0H0.164629C0.0737581 0 0 0.0768043 0 0.171429C0 0.266053 0.0737581 0.342857 0.164629 0.342857H0.493907Z" transform="translate(34.1428 22)" fill="#DEDEDE"/>
<path d="M0.493907 0.342857C0.584778 0.342857 0.658537 0.266053 0.658537 0.171429C0.658537 0.0768043 0.584778 0 0.493907 0H0.164629C0.0737581 0 0 0.0768043 0 0.171429C0 0.266053 0.0737581 0.342857 0.164629 0.342857H0.493907Z" transform="translate(34.1428 26.7143)" fill="#DEDEDE"/>
<path d="M0.493907 0.342857C0.584778 0.342857 0.658537 0.266053 0.658537 0.171429C0.658537 0.0768043 0.584778 0 0.493907 0H0.164629C0.0737581 0 0 0.0768043 0 0.171429C0 0.266053 0.0737581 0.342857 0.164629 0.342857H0.493907Z" transform="translate(32.8572 22)" fill="#DEDEDE"/>
<path d="M0.493907 0.342857C0.584778 0.342857 0.658537 0.266053 0.658537 0.171429C0.658537 0.0768043 0.584778 0 0.493907 0H0.164629C0.0737581 0 0 0.0768043 0 0.171429C0 0.266053 0.0737581 0.342857 0.164629 0.342857H0.493907Z" transform="translate(32.8572 26.7143)" fill="#DEDEDE"/>
<mask id="path-33-outside-3" maskUnits="userSpaceOnUse" x="-2" y="-1" width="10" height="6" fill="black">
<rect fill="white" x="-2" y="-1" width="10" height="6"/>
<path d="M0.948867 0.1628C0.731801 -0.0542666 0.379866 -0.0542666 0.1628 0.1628C-0.0542666 0.379866 -0.0542666 0.731801 0.1628 0.948867L2.94197 3.72804C3.15903 3.9451 3.51097 3.9451 3.72804 3.72804L6.5072 0.948867C6.72427 0.731801 6.72427 0.379866 6.5072 0.1628C6.29014 -0.0542666 5.9382 -0.0542666 5.72114 0.1628L3.335 2.54893L0.948867 0.1628Z"/>
</mask>
<path d="M0.948867 0.1628C0.731801 -0.0542666 0.379866 -0.0542666 0.1628 0.1628C-0.0542666 0.379866 -0.0542666 0.731801 0.1628 0.948867L2.94197 3.72804C3.15903 3.9451 3.51097 3.9451 3.72804 3.72804L6.5072 0.948867C6.72427 0.731801 6.72427 0.379866 6.5072 0.1628C6.29014 -0.0542666 5.9382 -0.0542666 5.72114 0.1628L3.335 2.54893L0.948867 0.1628Z" transform="translate(26.62 27.7089) rotate(-90)" fill="#12BB9B"/>
<path d="M0.948867 0.1628L1.65597 -0.544307L1.65597 -0.544307L0.948867 0.1628ZM0.1628 0.948867L0.869907 0.24176L0.869907 0.24176L0.1628 0.948867ZM2.94197 3.72804L2.23486 4.43514L2.23486 4.43514L2.94197 3.72804ZM3.72804 3.72804L4.43514 4.43514L4.43514 4.43514L3.72804 3.72804ZM6.5072 0.948867L5.8001 0.24176L5.8001 0.24176L6.5072 0.948867ZM5.72114 0.1628L6.42824 0.869907L6.42824 0.869907L5.72114 0.1628ZM3.335 2.54893L2.62789 3.25604L3.335 3.96315L4.04211 3.25604L3.335 2.54893ZM1.65597 -0.544307C1.04838 -1.1519 0.0632839 -1.1519 -0.544307 -0.544307L0.869907 0.869907C0.696449 1.04336 0.415218 1.04336 0.24176 0.869907L1.65597 -0.544307ZM-0.544307 -0.544307C-1.1519 0.0632839 -1.1519 1.04838 -0.544307 1.65597L0.869907 0.24176C1.04336 0.415218 1.04336 0.696449 0.869907 0.869907L-0.544307 -0.544307ZM-0.544307 1.65597L2.23486 4.43514L3.64907 3.02093L0.869907 0.24176L-0.544307 1.65597ZM2.23486 4.43514C2.84245 5.04273 3.82755 5.04273 4.43514 4.43514L3.02093 3.02093C3.19439 2.84747 3.47562 2.84747 3.64907 3.02093L2.23486 4.43514ZM4.43514 4.43514L7.21431 1.65597L5.8001 0.24176L3.02093 3.02093L4.43514 4.43514ZM7.21431 1.65597C7.8219 1.04838 7.8219 0.0632839 7.21431 -0.544307L5.8001 0.869907C5.62664 0.696449 5.62664 0.415218 5.8001 0.24176L7.21431 1.65597ZM7.21431 -0.544307C6.60672 -1.1519 5.62162 -1.1519 5.01403 -0.544307L6.42824 0.869907C6.25478 1.04336 5.97355 1.04336 5.8001 0.869907L7.21431 -0.544307ZM5.01403 -0.544307L2.62789 1.84183L4.04211 3.25604L6.42824 0.869907L5.01403 -0.544307ZM4.04211 1.84183L1.65597 -0.544307L0.24176 0.869907L2.62789 3.25604L4.04211 1.84183Z" transform="translate(26.62 27.7089) rotate(-90)" fill="#202930" mask="url(#path-33-outside-3)"/>
<rect x="-0.375" y="-0.375" width="2.20925" height="1.75" rx="0.875" transform="translate(18.4 23.8289)" stroke="#202930" stroke-width="0.75"/>
<rect width="11" height="1" rx="0.5" transform="translate(18.4 23.8289)" fill="#12BB9B"/>
</svg>
