<?xml version="1.0" encoding="UTF-8"?>
<svg width="48px" height="48px" viewBox="0 0 48 48" version="1.1" xmlns="http://www.w3.org/2000/svg" xmlns:xlink="http://www.w3.org/1999/xlink">
    <!-- Generator: Sketch 47.1 (45422) - http://www.bohemiancoding.com/sketch -->
    <title>Icon Unknown</title>
    <desc>Created with Sketch.</desc>
    <defs>
        <circle id="path-1" cx="24" cy="24" r="24"></circle>
    </defs>
    <g id="12_Elements" stroke="none" stroke-width="1" fill="none" fill-rule="evenodd">
        <g id="Artboard-2" transform="translate(-22.000000, -503.000000)">
            <g id="Icon-Unknown" transform="translate(22.000000, 503.000000)">
                <g id="Oval-2">
                    <use fill="#202930" fill-rule="evenodd" xlink:href="#path-1"></use>
                    <circle stroke="#9AA3AD" stroke-width="2" cx="24" cy="24" r="23"></circle>
                </g>
                <path d="M18,19.4528902 L20.3360656,19.4528902 C20.4863388,17.4993383 21.7978142,16.2834913 23.8606557,16.2834913 C25.8961749,16.2834913 27.2076503,17.5266607 27.2076503,19.2206498 C27.2076503,20.6823984 26.5928962,21.5430541 25.0081967,22.5129995 C23.136612,23.6332181 22.2622951,24.8627263 22.2759563,26.666005 L22.2759563,27.9228356 L24.6666667,27.9228356 L24.6666667,27.0348574 C24.6666667,25.6004312 25.1584699,24.8354039 26.8934426,23.8108137 C28.6420765,22.7589011 29.7486339,21.2425077 29.7486339,19.0976989 C29.7486339,16.2834913 27.3989071,14.1523438 23.9562842,14.1523438 C20.1174863,14.1523438 18.1502732,16.5020705 18,19.4528902 Z M23.4781421,34.1523438 C24.3661202,34.1523438 25.0355191,33.4692836 25.0355191,32.5949667 C25.0355191,31.7069886 24.3661202,31.0375897 23.4781421,31.0375897 C22.6038251,31.0375897 21.920765,31.7069886 21.920765,32.5949667 C21.920765,33.4692836 22.6038251,34.1523438 23.4781421,34.1523438 Z" id="?" fill="#DEDEDE"></path>
            </g>
        </g>
    </g>
</svg>