<?xml version="1.0" encoding="utf-8"?>
<!-- Generator: Adobe Illustrator 22.0.1, SVG Export Plug-In . SVG Version: 6.00 Build 0)  -->
<svg version="1.1" id="Ebene_1" xmlns="http://www.w3.org/2000/svg" xmlns:xlink="http://www.w3.org/1999/xlink" x="0px" y="0px"
	 viewBox="0 0 22 22" style="enable-background:new 0 0 22 22;" xml:space="preserve">
<style type="text/css">
	.st0{fill:#FFFFFF;}
</style>
<g id="HEADER_x2F_help" transform="translate(-30.000000, -783.000000)">
	<path id="_xF2CB_" class="st0" d="M36.3,786.5c1.2-1,2.6-1.5,4.2-1.5s3,0.5,4.2,1.5s1.8,2.3,1.8,3.7c0,1.6-0.7,3-2.2,4.2
		c-0.8,0.7-1.2,1-1.2,1c-0.2,0.3-0.4,0.5-0.4,0.8v0.8h-4.5v-0.8c0-1.3,0.7-2.6,2.2-3.8c0.6-0.5,1-0.9,1.2-1.1
		c0.3-0.3,0.4-0.7,0.4-1.1c0-0.2-0.1-0.3-0.3-0.5c-0.3-0.2-0.7-0.3-1.2-0.3s-0.9,0.1-1.2,0.3c-0.2,0.2-0.3,0.3-0.3,0.5v2.2h-4.5
		v-2.2C34.5,788.8,35.1,787.5,36.3,786.5z M43.7,787.6c-0.9-0.8-1.9-1.1-3.2-1.1s-2.3,0.4-3.2,1.1s-1.3,1.6-1.3,2.6v0.8h1.5v-0.8
		c0-0.7,0.3-1.2,1-1.7c0.6-0.4,1.2-0.6,2-0.6s1.5,0.2,2,0.6c0.7,0.4,1,1,1,1.7c0,0.7-0.2,1.4-0.8,2c-0.2,0.3-0.7,0.8-1.4,1.3
		c-0.7,0.6-1.1,1.2-1.4,1.9h1.5c0.2-0.4,0.4-0.8,0.6-1c0.2-0.2,0.6-0.5,1.4-1.1c0.5-0.5,0.9-0.9,1.2-1.4s0.4-1,0.4-1.7
		C45,789.2,44.6,788.4,43.7,787.6z M38.2,798.5h4.5v4.5h-4.5V798.5z M39.8,800v1.5h1.5V800H39.8z"/>
</g>
</svg>
