<svg height="19" viewBox="0 0 21 19" width="21" xmlns="http://www.w3.org/2000/svg"><path d="m22.7474933 34.2158032c-.0234376-.117187.0117186-.2226555.1054685-.3164055.09375-.0937499.1992185-.1406246.3164055-.1406246h1.898433c.117187 0 .2226555.0468747.3164055.1406246.0937499.09375.1289061.1992185.1054685.3164055l-.210937 3.9374907c-.0234376.0937499-.0761719.1816403-.1582028.2636712-.0820308.0820309-.1699213.1230466-.2636712.1230466h-1.476559c-.0937499 0-.1816404-.0410157-.2636712-.1230466-.0820309-.0820309-.1347652-.1699213-.1582028-.2636712zm2.8476495 6.2929538c0 .3984364-.1464842.744139-.4394521 1.0371069s-.6386705.4394521-1.0371069.4394521-.744139-.1464842-1.0371069-.4394521-.4394521-.6386705-.4394521-1.0371069.1464842-.744139.4394521-1.0371069.6386705-.4394521 1.0371069-.4394521.744139.1464842 1.0371069.4394521.4394521.6386705.4394521 1.0371069zm0-12.6562198 8.4374799 14.6249651c.1874993.3749993.2460931.7558576.1757808 1.1425754s-.2578117.7148419-.5624987.9843726c-.3046869.2695308-.6679671.404296-1.0898411.404296h-16.8749598c-.421874 0-.7851542-.1347652-1.0898411-.404296-.304687-.2695307-.4921864-.5976548-.5624987-.9843726s-.0117185-.7675761.1757808-1.1425754l8.4374799-14.6249651c.210937-.3749993.5097644-.6269515.8964823-.7558576.3867178-.1289061.7734356-.1289061 1.1601534 0 .3867179.1289061.6855453.3808583.8964823.7558576zm-9.7382581 15.1523076c-.0468747.0703123-.0468747.1406247 0 .210937.0468748.0703123.1054685.1054685.1757809.1054685h16.1718364c.0703124 0 .1289061-.0351562.1757809-.1054685.0468747-.0703123.0468747-.1406247 0-.210937l-8.0859183-13.9921542c-.0468747-.0703123-.1054685-.1054685-.1757808-.1054685s-.1289061.0351562-.1757808.1054685z" fill="#c0392b" fill-rule="evenodd" transform="translate(-14 -27)"/></svg>