<?xml version="1.0" encoding="utf-8"?>
<!-- Generator: Adobe Illustrator 22.0.1, SVG Export Plug-In . SVG Version: 6.00 Build 0)  -->
<svg version="1.1" id="Ebene_1" xmlns="http://www.w3.org/2000/svg" xmlns:xlink="http://www.w3.org/1999/xlink" x="0px" y="0px"
	 viewBox="0 0 22 22" style="enable-background:new 0 0 22 22;" xml:space="preserve">
<style type="text/css">
	.st0{fill:#FFFFFF;}
</style>
<g id="HEADER_x2F_settings" transform="translate(-26.000000, -852.000000)">
	<path id="_xF19A_" class="st0" d="M34.9,853.2h4.2l0.1,0.6l0.4,2.2c0.7,0.3,1.3,0.7,1.9,1.2l2.2-0.8l0.6-0.2l0.3,0.5l1.5,2.6
		l0.3,0.5l-0.4,0.4l-1.7,1.5c0.1,0.6,0.1,1,0.1,1.2s0,0.6-0.1,1.2l1.7,1.5l0.4,0.4l-0.3,0.5l-1.5,2.6l-0.3,0.5l-0.6-0.2l-2.2-0.8
		c-0.6,0.5-1.2,0.9-1.9,1.2l-0.4,2.2l-0.1,0.6h-4.2l-0.1-0.6l-0.4-2.2c-0.7-0.3-1.3-0.7-1.9-1.2l-2.2,0.8l-0.6,0.2l-0.3-0.5
		l-1.5-2.6l-0.3-0.5l0.4-0.4l1.7-1.5c-0.1-0.6-0.1-1-0.1-1.2s0-0.6,0.1-1.2l-1.7-1.5l-0.4-0.4l0.3-0.5l1.5-2.6l0.3-0.5l0.6,0.2
		l2.2,0.8c0.6-0.5,1.2-0.9,1.9-1.2l0.4-2.2L34.9,853.2z M36.1,854.8l-0.4,2l-0.1,0.4l-0.4,0.1c-0.8,0.3-1.6,0.7-2.2,1.3l-0.4,0.3
		l-0.4-0.1l-1.9-0.7l-0.9,1.5l1.5,1.3l0.4,0.3l-0.1,0.5c-0.1,0.4-0.1,0.8-0.1,1.3s0,0.9,0.1,1.3l0.1,0.5l-0.4,0.3l-1.5,1.3l0.9,1.5
		l1.9-0.7l0.4-0.1l0.4,0.3c0.7,0.6,1.4,1,2.2,1.3l0.4,0.1l0.1,0.4l0.4,2h1.8l0.4-2l0.1-0.4l0.4-0.1c0.8-0.3,1.6-0.7,2.2-1.3l0.4-0.3
		l0.4,0.1l1.9,0.7l0.9-1.5l-1.5-1.3l-0.3-0.3l0.1-0.5c0.1-0.4,0.1-0.8,0.1-1.3s0-0.9-0.1-1.3l-0.1-0.5l0.4-0.3l1.5-1.3l-0.9-1.5
		l-1.9,0.7l-0.4,0.1l-0.4-0.3c-0.7-0.6-1.4-1-2.2-1.3l-0.4-0.1l-0.1-0.4l-0.4-2H36.1z M34.3,860.4c0.8-0.8,1.6-1.1,2.7-1.1
		s1.9,0.4,2.6,1.1s1.1,1.6,1.1,2.6s-0.4,1.9-1.1,2.6s-1.6,1.1-2.6,1.1s-1.9-0.4-2.6-1.1s-1.1-1.6-1.1-2.6S33.6,861.1,34.3,860.4z
		 M38.6,861.4c-0.4-0.4-1-0.7-1.6-0.7s-1.2,0.2-1.6,0.7s-0.7,1-0.7,1.6s0.2,1.2,0.7,1.6s1,0.7,1.6,0.7s1.2-0.2,1.6-0.7
		s0.7-1,0.7-1.6S39,861.8,38.6,861.4z"/>
</g>
</svg>
